<?xml version="1.0" encoding="utf-8"?>
<!-- Generator: Adobe Illustrator 19.2.1, SVG Export Plug-In . SVG Version: 6.00 Build 0)  -->
<svg version="1.1" id="Layer_1" xmlns="http://www.w3.org/2000/svg" xmlns:xlink="http://www.w3.org/1999/xlink" x="0px" y="0px"
	 viewBox="0 0 736.1 224" style="enable-background:new 0 0 736.1 224;" xml:space="preserve">
<style type="text/css">
	.st0{fill:#F7C94A;}
	.st1{fill:#313131;}
</style>
<g>
	<path class="st0" d="M497.1,126.6c0,6.3,0.1,12.7,0,19c-0.1,6.2-4.1,10.3-9.8,10.3c-5.4-0.1-9.2-4.2-9.3-10.2
		c-0.1-11.3,0.1-22.7-0.1-34c-0.2-12.9-9.6-23.3-21.8-24.6c-12.3-1.3-23.4,6.5-26.5,18.8c-0.6,2.2-0.6,4.6-0.7,6.9
		c-0.1,10.7,0,21.3,0,32c0,6.8-3.7,11-9.5,11.2c-5.5,0.1-9.8-4.2-9.9-10.8c-0.2-11.5,0.1-23-0.2-34.5c-0.5-17.3-17.2-28.2-33.3-21.8
		c-9.3,3.8-14.7,10.9-15,21c-0.4,11-0.1,22-0.2,33c0,1.7,0,3.4-0.3,5c-1,5-5.2,8.4-9.9,8.1c-4.8-0.3-9.2-3.9-9.2-8.9
		c0-14.3-1.5-28.7,0.8-42.9c2.7-17.1,12.9-28.7,29.3-34.1c16.4-5.4,31.3-1.9,43.9,9.9c3,2.8,4.3,3.4,7.7,0.2
		c13.8-13.1,30.2-16.1,47.5-8.8c17,7.2,25.9,20.8,26.6,39.4C497.2,115.9,497.1,121.3,497.1,126.6z"/>
	<path class="st1" d="M87.7,63.8c0,16.5,0,33,0,49.5c-0.1,22.3-18.4,42-40.3,43.4c-23.9,1.5-44.3-14.9-47-38.2
		c-1.9-16.3,3.5-30.1,16.5-40C30.7,68,46,66,62.1,73.3c5.4,2.4,6.2,2,6.2-4.1c0-18.5,0-37,0-55.5c0-1.8,0-3.7,0.2-5.5
		c0.6-4.8,3.7-7.4,8.2-8.1c4.7-0.7,8,1.5,9.9,5.8c1,2.4,1,4.9,1,7.4C87.7,30.1,87.7,47,87.7,63.8z M19.7,112.8
		c0,13.6,10.5,24.4,23.8,24.4c13.5,0,24.8-11.2,24.7-24.4C68.1,99.5,57,88.6,43.8,88.7C30.3,88.7,19.8,99.2,19.7,112.8z"/>
	<path class="st0" d="M512,161c0-16.5-0.1-33,0-49.5c0.1-23.6,16.2-41.7,40.4-44.1c20.3-2,40.6,11.1,45.9,33.5
		c4.1,17.4-1,32.5-14.8,43.8c-14,11.5-29.7,13.1-46.3,5.9c-1.1-0.5-2.1-1-3.1-1.6c-2.2-1.4-2.9-0.6-2.9,1.8c0.1,6.7,0,13.3,0,20
		c0,13.7,0,27.3,0,41c0,8.2-3.3,12.3-9.7,12.2c-6.2-0.1-9.4-4.2-9.4-12C512,194.9,512,177.9,512,161z M555.6,135.2
		c13.8,0,24.4-10.4,24.5-24.1c0-13.8-10.5-24.3-24.2-24.4c-13.5,0-24.6,10.8-24.7,24.1C531.1,124.2,542.1,135.2,555.6,135.2z"/>
	<path class="st0" d="M670.4,122.6c4.5,9,11.8,13.3,21.5,13.6c10,0.3,20,0.1,30,0.1c2,0,4,0.1,6,0.4c5.1,0.9,8.3,4.7,8.3,9.7
		c-0.1,4.9-3.5,9.3-8.6,9.4c-15,0-30,1.8-44.9-1c-19.9-3.7-35.3-23.7-34.4-43.4c1-22.1,16.6-39.7,37.8-42.5
		c25.9-3.5,49.4,15.9,50,41c0.2,8.2-3.4,12-11.6,12.1c-16.3,0-32.6,0-49,0C673.9,121.9,672.3,121.4,670.4,122.6z M669.8,102.6
		c14.4,0,27.9,0,41.3,0c3.2,0,3.5-1.2,1.9-3.5c-5.5-8.1-13.1-12-22.9-11.2C680.9,88.7,674.4,93.5,669.8,102.6z"/>
	<path class="st1" d="M189.7,125.4c0,7.6,0,13.8,0,19.9c-0.1,6.7-3.5,10.9-8.8,11.2c-5.8,0.3-10.3-4-10.4-10.9
		c-0.3-11.5,0-23-0.1-34.5c-0.1-9.9-6.7-18.8-16.1-21.9c-16.3-5.3-31.9,5.7-32.4,22.9c-0.3,10-0.1,20-0.1,30c0,1.5,0,3-0.1,4.5
		c-0.5,5.6-4.5,9.7-9.4,9.8c-5.2,0.1-9.6-4.1-9.8-10c-0.2-9.2-0.1-18.3-0.1-27.5c0-5.8-0.2-11.6,1.3-17.4
		c5.3-20.4,22.9-33.8,44.2-33.4c19.3,0.4,37.4,15.5,41.4,35.1C190.7,111.1,189.4,119,189.7,125.4z"/>
	<path class="st0" d="M614.1,78c0-21.6,0-43.3,0-64.9c0-2,0.1-4,0.6-5.9c1.2-4.5,4.5-6.9,9.1-7.1c4.4-0.2,8.3,2.8,9.5,7.3
		c0.4,1.7,0.5,3.6,0.5,5.4c0,43.4,0,86.9,0,130.3c0,0.7,0,1.3,0,2c-0.2,6.6-4.2,10.9-10,10.8c-5.7-0.1-9.6-4.4-9.8-11
		c-0.1-3.3,0-6.7,0-10C614.1,115.9,614.1,97,614.1,78z"/>
	<path class="st0" d="M216.2,155.9c-6.5,0.1-10.8-3.2-11.3-8.7c-0.5-6.1,3-10,9.7-10.9c16.5-2.2,23.8-10.3,24.3-27.1
		c0.8-21.8,20.7-41,42.6-41c6.2,0,10.5,3.8,10.7,9.5c0.2,5.8-3.6,9.8-9.9,10.2c-15,1.1-23.7,10.4-24.2,26
		C257.4,136.5,238.5,155.5,216.2,155.9z"/>
	<path class="st0" d="M307,111.8c0-10.7,0-21.3,0-32c0-6.8,4-11.5,9.7-11.6c5.7-0.1,9.9,4.5,9.9,11.5c0.1,21.5,0.1,43,0,64.5
		c0,7.3-4.2,11.9-10,11.8c-6.1-0.2-9.6-4.6-9.6-12.2C307,133.1,307,122.4,307,111.8z"/>
	<path class="st0" d="M316.6,59.9c-5.3-0.2-9.7-4.9-9.5-10.1c0.2-5.2,5.1-9.8,10.2-9.5c5.2,0.3,9.6,5.3,9.3,10.4
		C326.3,55.7,321.6,60,316.6,59.9z"/>
</g>
</svg>
