<?xml version="1.0" encoding="utf-8"?>
<!-- Generator: Adobe Illustrator 19.1.0, SVG Export Plug-In . SVG Version: 6.00 Build 0)  -->
<svg version="1.1" id="Layer_1" xmlns="http://www.w3.org/2000/svg" xmlns:xlink="http://www.w3.org/1999/xlink" x="0px" y="0px"
	 viewBox="-323 267 56 64" style="enable-background:new -323 267 56 64;" xml:space="preserve">
<style type="text/css">
	.st0{fill:#00435A;}
	.st1{fill:#00AEDE;}
	.st2{fill:#394D54;}
</style>
<g>
	<path class="st0" d="M-281.5,306v-13.8l-11.9,6.9L-281.5,306"/>
	<path class="st1" d="M-282.2,290.8l-11.9-6.9v13.8L-282.2,290.8"/>
	<path class="st1" d="M-295.7,297.7v-13.8l-12,6.9L-295.7,297.7"/>
	<path class="st1" d="M-296.5,282.6l-11.9-6.9v13.9L-296.5,282.6"/>
	<path class="st0" d="M-282.2,307.3l-11.9-6.9v13.8L-282.2,307.3"/>
	<path class="st0" d="M-295.7,314.3v-13.8l-12,6.9L-295.7,314.3"/>
	<path class="st1" d="M-267.9,299.1l-12-6.9V306L-267.9,299.1"/>
	<path class="st1" d="M-310,289.5v-13.9l-12,6.9L-310,289.5"/>
	<path class="st0" d="M-296.5,315.6l-11.9-6.9v13.8L-296.5,315.6"/>
	<path class="st1" d="M-310,322.5v-13.8l-12,6.9L-310,322.5"/>
	<path class="st0" d="M-296.5,299.1l-11.9-6.9V306L-296.5,299.1"/>
	<path class="st1" d="M-281.5,289.5v-13.9l-11.9,6.9L-281.5,289.5"/>
	<path class="st0" d="M-294.2,267.4v13.8l11.9-6.9L-294.2,267.4"/>
	<path class="st0" d="M-307.7,274.3l12,6.9v-13.8L-307.7,274.3"/>
	<path class="st0" d="M-282.2,323.8l-11.9-6.9v13.8L-282.2,323.8"/>
	<path class="st0" d="M-295.7,330.8v-13.8l-12,6.9L-295.7,330.8"/>
	<path class="st1" d="M-267.2,314.3v-13.8l-11.9,6.9L-267.2,314.3"/>
	<path class="st1" d="M-310,306v-13.9l-12,6.9L-310,306"/>
	<path class="st1" d="M-310.8,307.3l-12.1-6.9v13.8L-310.8,307.3"/>
	<path class="st1" d="M-267.2,297.7v-13.8l-11.9,6.9L-267.2,297.7"/>
	<path class="st1" d="M-267.9,282.6l-12-6.9v13.9L-267.9,282.6"/>
	<path class="st1" d="M-267.9,315.6l-12-6.9v13.8L-267.9,315.6"/>
	<path class="st0" d="M-281.5,322.5v-13.8l-11.9,6.9L-281.5,322.5"/>
	<path class="st1" d="M-310.8,290.8l-12.1-6.9v13.8L-310.8,290.8"/>
</g>
</svg>
