<?xml version="1.0" encoding="UTF-8" standalone="no"?>
<!-- Created with Inkscape (http://www.inkscape.org/) -->

<svg
   xmlns:dc="http://purl.org/dc/elements/1.1/"
   xmlns:cc="http://creativecommons.org/ns#"
   xmlns:rdf="http://www.w3.org/1999/02/22-rdf-syntax-ns#"
   xmlns:svg="http://www.w3.org/2000/svg"
   xmlns="http://www.w3.org/2000/svg"
   version="1.1"
   width="550"
   height="347.76266"
   viewBox="0 0 550 347.76267"
   id="svg2"
   xml:space="preserve"><metadata
     id="metadata8"><rdf:RDF><cc:Work
         rdf:about=""><dc:format>image/svg+xml</dc:format><dc:type
           rdf:resource="http://purl.org/dc/dcmitype/StillImage" /><dc:title></dc:title></cc:Work></rdf:RDF></metadata><defs
     id="defs6"><clipPath
       id="clipPath18"><path
         d="M 0,560 H 960 V 0 H 0 z"
         id="path16" /></clipPath></defs><g
     transform="matrix(1.3333333,0,0,-1.3333333,278.34858,94.208134)"
     id="g44"><path
       d="m 0,0 c -7.084,0 -10.949,-9.35 -10.949,-17.377 0,-13.363 6.012,-34.483 18.679,-34.483 6.669,0 10.107,7.484 10.107,14.974 C 17.837,-25.663 12.467,0 0,0"
       id="path46"
       style="fill:#2C91DE;fill-opacity:1;fill-rule:evenodd;stroke:none" /></g><g
     transform="matrix(1.3329076,0,0,-1.3333333,333.50647,238.21199)"
     id="g48"><path
       d="m 0,0 c -6.447,-10.964 -29.663,-45.45 -41.044,-45.45 -6.024,0 -27.937,10.953 -27.937,18.698 0,2.679 3.004,5.622 4.723,6.694 10.105,6.691 21.282,25.932 21.282,36.629 0,3.481 -1.933,5.086 -4.52,5.086 -3.437,0 -6.873,-0.804 -10.314,-0.804 -31.152,0 -45.553,33.687 -45.553,64.163 0,42.782 33.308,62.294 63.607,62.294 32.234,0 64.898,-19.786 64.898,-64.97 C 25.142,51.596 14.392,24.331 0,0 m 138.134,69.91 c -21.976,21.98 -53.225,29.038 -81.151,21.186 -4.724,49.139 -46.127,87.563 -96.504,87.563 -46.524,0 -85.402,-32.776 -94.786,-76.496 -30.654,9.794 -65.578,2.531 -89.895,-21.786 -34.677,-34.679 -34.677,-90.898 0,-125.572 28.763,-28.773 70.722,-36.968 92.593,-36.968 0,0 3.377,0.023 10.388,0.023 h 159.46 c 33.017,-0.213 68.704,3.578 99.895,34.762 32.384,32.384 32.384,84.903 0,117.288"
       id="path50"
       style="fill:#2C91DE;fill-opacity:1;fill-rule:evenodd;stroke:none" /></g></svg>