<?xml version="1.0" encoding="utf-8"?>
<!-- Generator: Adobe Illustrator 19.1.0, SVG Export Plug-In . SVG Version: 6.00 Build 0)  -->
<svg version="1.1" id="Layer_1" xmlns="http://www.w3.org/2000/svg" xmlns:xlink="http://www.w3.org/1999/xlink" x="0px" y="0px"
	 viewBox="0 0 100 100" style="enable-background:new 0 0 100 100;" xml:space="preserve">
<style type="text/css">
	.st0{fill:#9D5025;}
	.st1{fill:#F58435;}
	.st2{fill:#FFFFFF;}
	.st3{fill:#FFFFFF;stroke:#F58435;stroke-miterlimit:10;}
	.st4{fill:#FBBF92;}
	.st5{fill:none;stroke:#FBBF92;stroke-width:2;stroke-miterlimit:10;}
	.st6{fill:none;}
</style>
<circle class="st0" cx="50" cy="50.6" r="30.4"/>
<rect x="19.6" y="48.1" class="st0" width="60.9" height="2.5"/>
<circle class="st1" cx="50" cy="48.1" r="30.4"/>
<g>
	<polygon class="st2" points="52,44.8 48,44.8 45.9,26.7 54.1,26.7 	"/>
</g>
<g>
	<g>
		<polygon class="st2" points="67.6,58.1 69.2,56.8 63.5,48.3 51,44 50,50.9 61.2,51.9 		"/>
	</g>
</g>
<g>
	<g>
		<polygon class="st2" points="32.4,58.1 30.8,56.8 36.5,48.3 49,44 50,50.9 38.8,51.9 		"/>
	</g>
</g>
<circle class="st3" cx="50" cy="26.7" r="5.6"/>
<circle class="st1" cx="50" cy="26.7" r="1.9"/>
<circle class="st3" cx="50" cy="47.4" r="4.1"/>
<circle class="st1" cx="50" cy="47.4" r="1.3"/>
<rect x="36.9" y="56.7" class="st2" width="26.3" height="14.5"/>
<line class="st5" x1="39.2" y1="57.9" x2="39.2" y2="70.1"/>
<line class="st5" x1="42.8" y1="57.9" x2="42.8" y2="70.1"/>
<line class="st5" x1="46.4" y1="57.9" x2="46.4" y2="70.1"/>
<line class="st5" x1="50" y1="57.9" x2="50" y2="70.1"/>
<line class="st5" x1="53.6" y1="57.9" x2="53.6" y2="70.1"/>
<line class="st5" x1="57.2" y1="57.9" x2="57.2" y2="70.1"/>
<line class="st5" x1="60.8" y1="57.9" x2="60.8" y2="70.1"/>
</svg>
