<?xml version="1.0" encoding="utf-8"?>
<!-- Generator: Adobe Illustrator 13.0.0, SVG Export Plug-In . SVG Version: 6.00 Build 14948)  -->
<!DOCTYPE svg PUBLIC "-//W3C//DTD SVG 1.0//EN" "http://www.w3.org/TR/2001/REC-SVG-20010904/DTD/svg10.dtd" [
	<!ENTITY ns_flows "http://ns.adobe.com/Flows/1.0/">
	<!ENTITY ns_extend "http://ns.adobe.com/Extensibility/1.0/">
	<!ENTITY ns_ai "http://ns.adobe.com/AdobeIllustrator/10.0/">
	<!ENTITY ns_graphs "http://ns.adobe.com/Graphs/1.0/">
	<!ENTITY ns_vars "http://ns.adobe.com/Variables/1.0/">
	<!ENTITY ns_imrep "http://ns.adobe.com/ImageReplacement/1.0/">
	<!ENTITY ns_sfw "http://ns.adobe.com/SaveForWeb/1.0/">
	<!ENTITY ns_custom "http://ns.adobe.com/GenericCustomNamespace/1.0/">
	<!ENTITY ns_adobe_xpath "http://ns.adobe.com/XPath/1.0/">
]>
<svg version="1.0"
	 xmlns:x="&ns_extend;" xmlns:i="&ns_ai;" xmlns:graph="&ns_graphs;" i:viewOrigin="21 142" i:rulerOrigin="0 0" i:pageBounds="0 90 300 0"
	 xmlns="http://www.w3.org/2000/svg" xmlns:xlink="http://www.w3.org/1999/xlink" xmlns:a="http://ns.adobe.com/AdobeSVGViewerExtensions/3.0/"
	 x="0px" y="0px" width="262px" height="204px" viewBox="0 0 262 204" enable-background="new 0 0 262 204" xml:space="preserve">
<metadata><?xpacket begin="﻿" id="W5M0MpCehiHzreSzNTczkc9d"?>
<x:xmpmeta xmlns:x="adobe:ns:meta/" x:xmptk="Adobe XMP Core 4.1-c036 46.277092, Fri Feb 23 2007 14:17:08        ">
   <rdf:RDF xmlns:rdf="http://www.w3.org/1999/02/22-rdf-syntax-ns#">
      <rdf:Description rdf:about=""
            xmlns:xap="http://ns.adobe.com/xap/1.0/"
            xmlns:xapGImg="http://ns.adobe.com/xap/1.0/g/img/">
         <xap:CreatorTool>Adobe Illustrator CS3</xap:CreatorTool>
         <xap:ModifyDate>2008-05-29T17:30:37-04:00</xap:ModifyDate>
         <xap:MetadataDate>2008-05-29T17:30:37-04:00</xap:MetadataDate>
         <xap:Thumbnails>
            <rdf:Alt>
               <rdf:li rdf:parseType="Resource">
                  <xapGImg:width>256</xapGImg:width>
                  <xapGImg:height>200</xapGImg:height>
                  <xapGImg:format>JPEG</xapGImg:format>
                  <xapGImg:image>/9j/4AAQSkZJRgABAgEASABIAAD/7QAsUGhvdG9zaG9wIDMuMAA4QklNA+0AAAAAABAASAAAAAEA&#xA;AQBIAAAAAQAB/+4ADkFkb2JlAGTAAAAAAf/bAIQABgQEBAUEBgUFBgkGBQYJCwgGBggLDAoKCwoK&#xA;DBAMDAwMDAwQDA4PEA8ODBMTFBQTExwbGxscHx8fHx8fHx8fHwEHBwcNDA0YEBAYGhURFRofHx8f&#xA;Hx8fHx8fHx8fHx8fHx8fHx8fHx8fHx8fHx8fHx8fHx8fHx8fHx8fHx8fHx8f/8AAEQgAyAEAAwER&#xA;AAIRAQMRAf/EAaIAAAAHAQEBAQEAAAAAAAAAAAQFAwIGAQAHCAkKCwEAAgIDAQEBAQEAAAAAAAAA&#xA;AQACAwQFBgcICQoLEAACAQMDAgQCBgcDBAIGAnMBAgMRBAAFIRIxQVEGE2EicYEUMpGhBxWxQiPB&#xA;UtHhMxZi8CRygvElQzRTkqKyY3PCNUQnk6OzNhdUZHTD0uIIJoMJChgZhJRFRqS0VtNVKBry4/PE&#xA;1OT0ZXWFlaW1xdXl9WZ2hpamtsbW5vY3R1dnd4eXp7fH1+f3OEhYaHiImKi4yNjo+Ck5SVlpeYmZ&#xA;qbnJ2en5KjpKWmp6ipqqusra6voRAAICAQIDBQUEBQYECAMDbQEAAhEDBCESMUEFURNhIgZxgZEy&#xA;obHwFMHR4SNCFVJicvEzJDRDghaSUyWiY7LCB3PSNeJEgxdUkwgJChgZJjZFGidkdFU38qOzwygp&#xA;0+PzhJSktMTU5PRldYWVpbXF1eX1RlZmdoaWprbG1ub2R1dnd4eXp7fH1+f3OEhYaHiImKi4yNjo&#xA;+DlJWWl5iZmpucnZ6fkqOkpaanqKmqq6ytrq+v/aAAwDAQACEQMRAD8A9U4q7FXYq7FXYq7FXYq7&#xA;FXYq7FXYq7FXYqxLzN+ankry9I8F3feveR/atLUetID4MRRFPszDMTNrsWPYnfyb8emnLkHn+p/8&#xA;5Ijky6XotV/ZluZqH6Y0U/8AE818+2P5sfm5UdB3ljt3/wA5BeeZifRisrZe3CJ2P0l3b9WY8u1c&#xA;p5UG0aKHmlc/51fmTLUDVhGpFCEt7cfiYyfxyo9o5j/F9gZjSY+5CH80fzGuHoutXLPT7MYUbfJF&#xA;GQOuzH+Isvy2MdFn+K/zOuUHHU9WZa9Y5Jxv80IyJ1WU/wAUvmnwsY6BprP8z9RqskWtXQYnl6gu&#xA;nFT4ltsgcmQ8zL7U/ux3KGl6r5s8jeYFmCy2V6lGmtZgQksbb0df2lPj2PTfDhzTxSsLOEckafTn&#xA;k7zjpHmvSE1DT3owot1asR6kMlPst7eB751Gn1EcsbDp8uIwNFPcvanYq7FXYq7FXYq7FXYq7FXY&#xA;q7FXYq7FXYq7FXYq7FUt1fzJoGjJz1XULezHULLIqsf9Va8j9AyvJmhD6iAzjjlLkGJ3X55fl1BJ&#xA;wS+luOtWigloKf64T8MxJdpYR1+xvGjyHonnl78w/JvmCUQ6XqcclyeltIGilP8AqpIFLf7GuX4t&#xA;XjybRO7VPBOPMMizIanYq8H/ADb/ADfuLieby/5cuPTtErHe6hESGkbo0cTDog6Fh9rtt10Wv7QJ&#xA;PBA7dS7PTaWvVJi/k38ote8w26X1zINN06QVilkUtJIp/aSOq/D7sR7VzVRxkuTkziOz0rS/yQ8k&#xA;2gBuln1B+/rSlFr7CL0z95OWjEHHOokWR2nkHyVagejolnVejSRLKRT3kDHJCAazkkeqZwaPpEG0&#xA;FjbxUFPgiRduvYYaDHiKLAAAAFANgBhQ3irsVYx588jWHmvSzDJxh1CEFrK7pUq38rU3KN3+/Izj&#xA;bZjyGJeD6Pq3mb8vfNTMYzFdQH07u0cn05ojvSo6g9VYZDBnlhnYcucI5Ivpryn5s0nzRo8ep6a9&#xA;Ub4ZoW+3FIBUo48R+OdRgzxyx4ouny4jA0U5y5rdirsVdirsVdirsVdirsVdirsVdirsVdirH/Nv&#xA;nvy35VtvV1S5AnYVhs46PPJ/qp2H+U1B75j59VDEPUfg24sMpnZ4b5t/PTzVq7PBpR/Q9iageieV&#xA;ww/ypaDj/sAPmc0eftPJPaPpH2uyxaOMee5Y9pnkHznrrm6NtIqSnk13eMU5V7/FWRvmAcweGUt2&#xA;85IxT5fyau1StxqaJJ3WOIuPvLJ+rJeEw8fyY3r3knWdFrcClxbIa+vFUFad2XqvzGQMCGyMwXoP&#xA;5W/nRcW80Oi+aJzLatRLXU5DV4z0CzMftJ/lncd9um20XaJB4ch27/1uHqNJe8fknn52/mT+jbRv&#xA;Leky/wCn3aA306H+6hcbIpH7Ug+5fmMv7S1nCOCPM82rSaezxHkwX8qvy/XWLldY1SPlpcDfuIGG&#xA;08g8f8hT18Tt45pMcL3c3NkrYc3vcTAKFGwGwAzIcJVxQ4kAEk0A3JOKvPfNn5z+X9Jd7XS1/St4&#xA;tQzI3G3Q+8m/P/Y7e+UzzAcnd6PsPLk3n6I/b8nn0nnj80fNc7R6YZ1jB3i05DGqV/mlHxD/AGT5&#xA;TxzlydyNBo9OLnX+d+r9itH+W35sToZZZJUcivGS8Bc/8C7D7zh8ObE9p6IbCv8AS/sSfUj+ZPlK&#xA;dPrlxfWPI/u39Znhc9aVDPG3yOQPFFysX5XUj0iMvhv+t6F+XX5vtqVzFpHmDil5KQltfKAqyMei&#xA;SKNlY9iNjl2PNexdJ2l2N4YM8X09R3e5lH5g/l/YebNP6iDVbdT9Tu6fT6clOqE/d1HcG2cLdFiy&#xA;mJ8nh/lzzJ5k/L/zNKODJJE/pahp8hokqg9Nq+NUcfiDuNPqJYZWPiHLyY45Ivp3y15k0rzHpEOq&#xA;abLzglHxoac43A+KNx2Zf7RtnUYc0ckeKLpsmMwNFNMtYOxV2KuxV2KuxV2KuxV2KuxV2Ku6Yq8h&#xA;/Mb88bbTzLpfldkub4VWbUtnhiPQiIHaRvf7I981Gr7SEfTj3Pe5+DR3vLk8q0Dyn5r87alLdBnl&#xA;DvW71O5LFQf9Y1LNT9kfgM0nqmbLnSnGAp7J5X/LHy35fVJRF9d1BaE3k4BIb/itN1T9fvl0YAOL&#xA;PKZJ5d6haQEqzcnHVV3P9MlbEBKLrVID0jan0YLZAJc0kVzzCqRQbhvA42zeYeePKIsWbUbFONqT&#xA;+/hXpGT+0P8AJP4ZTOFbhyITvZINA0+LVNatbO5m9KOZwryMdyAPsqfE0oMhEWWUjQfR+jfVrezh&#xA;tbdBFBCoSKNegUCgGZQcGScRSYWCtLcwQW8lxPIsUMSl5ZHICqqipJJ7DAsYmRocy8M83+fNf87a&#xA;n+gfLsUo0+Riqwx/DJcAdXlO3FPYmndvbFnkMjQeu0fZ+LSw8TKRxfd7vP8AAZX5Q/JLSrJUuvMD&#xA;C/u9j9VQkW6HwJ2aT8B7HLIYAObr9Z27Oe2L0jv6/sel21rbWsCQW0SQQRikcUahEUeAVaAZeA6C&#xA;UzI2TZVcUJb5i0W01rRbvTbpFaO4jZVLD7D0+Bx7q2+RlGxTfps8sWQTHR8nAkGo2I6HNe+jPpz8&#xA;t/MEuu+T7G8uG53UYNvcsepeI8eR92WjH55n45XF4HtPTjDnlEcuY+KE/Mb8vLLzVYGaELDrNup+&#xA;q3HQOBv6Un+Sex/Z+8FnC3FxZeE+Txbyh5s1/wAheY3Ekbqiv6Wp6a/wh1H4BhWqt/A46bUywyvp&#xA;1Dk5cUckX0/oGv6Xr+lw6npkwmtZhsejKw6o4/ZZe4zqMWWOSPFHk6ecDE0Uwyxg7FXYq7FXYq7F&#xA;XYq7FXYqsnngt4XnnkWKGJS8kjkKqqBUkk7ADASALKQLfPf5o/nHc600uj6BI0Gj7rPdCqyXHiB3&#xA;WP26nv4Zz+t7QM/TD6fvdpp9Lw7y5qH5d/lDcasItU15Wt9NNGhtN1lnHUFu6IfvPt1zXwx3zbcu&#xA;etg9xtbK1s7WO1tIkgt4V4xRRgKqgdgBl7hk2gtYu/q8HFD+9k2X2Hc4kpiEr0/SVmj9aevE/YXp&#xA;X3OABmZIqTSrHiV9EfjhpFlL5tPhh5emgWvXGmQKTahZxyxvHIoeNwVdSKgg7EHA2AvGfMmiT6Jq&#xA;hRCRAx9S1l70B6V8VOY8o0XJjKw9U/L/AM2jVtPUStS9t6JcL4+Dj/W/Xl0JWHHyQp6FbTh1BGTc&#xA;ch5v+d3maeG1tNAt3Ki6H1i8odzGrUjX5FlJPyGUZ5dHoewNKCTlPTYfpZR+Uvle00jytbXvAG/1&#xA;ONbieY9fTf4okHgApB+eTxRoOD2xq5Zcxj/DDb9bN8tdS2MVbxVLvMV8lhoGo3rkBbe2lk37lUNB&#xA;9J2wSNBu02PjyRj3kPkzNc+kPoj8lLSS38iwyPsLqeaZP9Woj/XHmbhHpeJ7cmDqCO4Afp/SzzLX&#xA;TsG/Mv8ALm380WX1qzCxa3br+5kOwmUf7qc/8RPb5ZXOFt2LLw+55F5H87a15D16WOaFzas/panp&#xA;z/C3wmnJa9HXt45LS6qWGXl1DkZsIyRfTui6zputaZBqemzCezuV5RuNj4FWHZlOxGdRjyRnESjy&#xA;LppwMTRRuTYuxV2KuxV2KuxV2KqN5eWtlay3d3KsFtApeaZzRVUbkknBKQiLPJIBJoPm/wDNH81b&#xA;rzVOdM0vnBoUbCiHZ7lwdncD9mv2V+k79Ob1uuOU8Mfo+922n0whufqZH+Wf5SLAIta8yQ1mHx2u&#xA;nSDZPB5gf2vBe3ffpiwx9SubN0D1GbV7CM09TmR2QV/HpltuMIlCyeYIQD6cTE9uVB+quC08KBht&#xA;7nUrkyy7R/tN2AH7K482V0nRjVVCqKKBQAeAyTBRdcUoW4iDLgSCk15ABWuLYCxTzRoEOq6fJbtQ&#xA;SD4oJP5XHT6D0ORlGw2wlTy3SdSv/L2tCbiVlgYx3EJ25LX4l/iDmODRbyLD3ry/rNve2sNzA/OG&#xA;ZQyH59j7jvmSDbhzjTzz87rOb9M6fqFKwS23oK3g8UjOa/RKMx843t6f2fyDw5R6iV/MfsYxp/5h&#xA;ec9PtI7O01WWO2hAWKMhH4qNgoLqxoOwyoZJDq7LJ2bgnIylEWUfZ/m359trhJW1H6wqn4oZY4yj&#xA;DwPFVb7iMkM0mmfY+mkK4a+Je++Vtei1/QLLV4kMS3SEtGTXi6MUda96Mp3zLjKxbxur05w5DA9E&#xA;1yTjvMfz18wm00O20aFqS6i/OcD/AHzCQaf7J6fccozy2p3/AGBpuLIch5R+8/seLaPpV1q2qWum&#xA;2o5XF1IsaeAr1Y+yjc5igWaeqzZhjgZy5B9W6Vp1vpmm2un2wpBaRJDH4kIKVPuepzYAUKfOs2U5&#xA;JmR5k2i8LW7FWAfmd+WcPmWA6jp4WLXIVoK7LcKvRHPZh+y30HbpXOFt2HLw7Hk8s/L38wNW8k6w&#xA;9vOjvpsknDUbB6hkYHiXQH7Mi038eh7EWaTVywy/o9Q358AyDzfTumanYapYQ39hMtxaXCh4pUOx&#xA;H8COhB6Z08JiQscnTyiYmiickxdirsVdirsVdir59/P3zje3Ou/4agkMdhYqj3SKf72aRRIOXiEV&#xA;hQeNfanP9qagmfAOQdposQEeLqU0/KH8trSK1tvM2p8Li4mUS6dACGSJT0kbsX8B+z/rdMDHDqyz&#xA;5egeg67dsvG2Q05DlJTw7DLC0xDdpoUPpq1wWLkVKDYD2w0gyRiaXYJuIQT/AJVW/XXGkWUSFAFA&#xA;KAdAMKFN1xSluo3htysca+pO/wBlcBLIBBNZ6rNvLOIgf2U6j7qfrwbpsIS40GI/FJI7nx2/txpk&#xA;JIGeyWKMIoPFeld8LIF53+YHlozRnVLZP30I/wBIUftIP2vmv6vllWSPVvxy6Jd+XXmk6dejTbl6&#xA;Wly37pj0SU7fc368jjlWyckL3euX2maZ5g0t9O1BOcL7o42dHA2dD2Irlsogii14NRPDPjjzeaan&#xA;+S/maCZv0dLDfQE/AS3pSU/ylb4fubMc4D0emw9vYZD1AxPzV9D/ACP8x3Vwh1SaKxtQf3nFhLKR&#xA;XooX4fpLfRjHAerHP29iiPQDI/IPb9J0yz0vTbfTrNOFtaoI4lO5oO5PcnqcygKFPJ5ssskzKXMo&#xA;zC1vnz877iaXzuY3rwgtokiHahq5/wCGY5h5/qe07BiBp775FPvyG8tK8l55hnSvpH6rZk/zEBpW&#xA;H0EKPmcngj1cP2g1VAYh7z+h7NmS8u7FXYq7FXnP5pfllFr1u+r6VGE1uJayRrQC5Vex/wAsD7J7&#xA;9D2pXOF7t+HNw7Hk84/LT8xr/wAm6q1reiR9Hmfje2h+1E4NDIinoy0oy9/uy3Raw4ZUfpbdRgGQ&#xA;WOb6asL+y1CyhvbKZbi0uFDwzIaqynOmhMSFjk6eUSDRV8kh2KuxV2KuxV8jeYpJ/MfnLWbqA8vW&#xA;nuJou/7uMn0x9KhRnIZ5ceSR8y77GOGAD1H8h/Mn1nSLnQZnrNYN61sCdzDKfiA/1ZP+JYcUtqcf&#xA;Uw3tn93pk82orMCPSqpap3ovUUyymgHZNMLFrFXYqo3VxFBEZJDQDoO5PgMUgJZp9vJNK99MPif+&#xA;6HgPH+GAMieiJnkiiXlI4QeJNMUBLZ9VsRUBi/8Aqj+tMbZAFKbq9519K3d/D/MVwWzAQE0Rki5P&#xA;GULdUbFmC8h84+XW0m/9SFaWVwSYqfsN1Kf09sonGnIhK2f/AJd+bTqFmLW4et9bAByerp0D/wAD&#xA;/blkJW05IU9Ls7kOo33yxxyEwikwsESpqMULsVeYfnT5JuNTtIte0+MyXVkhju4lFWaAEsGAHdCT&#xA;X2PtlGaF7h6DsPXDHI45cpcvf+1lP5ZWAsvIukR8ODSQ+u1epMzGSp+hhk8QqIdd2pk49RM+dfLZ&#xA;lGWOA7FXYq7FXYq8y/NX8sBrKPrWjRAarGK3Nuop9YUdx/xYP+GyrJC9w5GHNWx5MF/K/wDM678o&#xA;Xp0/UA0miTyfv4qHnBIdjIg69viX+PXI0WtOI0fp+5nqNOJix9T6Wtbq3u7aK6tpFmt51EkUqGqs&#xA;rCoIPvnSxkCLDqCK2KrhQ7FXYq8/83fmvplhp96umI9zcRxSBLivCNX4kKyndmo3sPnnOaj2ixCX&#xA;BiBlLlfIft/G7usXYuTh45nhHOurxP8AL60rNd3ZH2VWJD/rHk3/ABEZg4g2zKro2pHyf+YUF3Up&#xA;ZPJSYDobafZv+AO4/wBXH6ZMZx4ovpIEEAg1B3BGZDr2mIUFiaAbknFUrN9e3kjJYgJEuxmb+3Bb&#xA;KgObf6N1Fvt3rDx41/qMaWwuj0aLmHuJWnYfzdP440vEjJmSONnb4UQVPyGFCS29t+kJXurgExV4&#xA;xR9qDIsyaRgtYI/sRqvyAwsbUZ4gynFISi8t+u2LYCxnX9Gt9RspbScfC4+Fh1Vh0YfLIkWGyMqe&#xA;RxSaj5d1sMPgubV/iH7Lqe3+qwzH3iXI2Ie4+Wdet9QsobuBqxyitD1B6FT7g5kg24k40yy3mDKC&#xA;MLUQjYpMLFXBxQ3irz381PzEu/LCW2m6UiDULlDIZXAYRRA8VKr0LEg0rttlOXJw7B3fZPZsdRc5&#xA;/SPtLEfy6/M3zZeebbOw1O7N7aXrNG6MkalW4kqylFWlCN/bK8eUk7uy7S7LwxwmUBwmPve5ZlPJ&#xA;OxV2KuxV2KvKvzW/K4ais2v6JHTUFBe9tF/3cAN3Qf788R+18+tWSF7hycOatixT8qPzSuPLN2ml&#xA;ao7SaBO25NS1s7ftoOvAn7S/SN61ytDrTjPDL6PuTqdNxix9T6RgnhnhSeB1lhlUPHIhDKysKggj&#xA;YgjOjBBFh1JFL8KHYq+dvNWi3Fs+o6S9fWiLRoxHHlTdGp4MKHPLMmI6bUGMv4ZfZ3/Ld7+Mxnwc&#xA;Q/iCQ+QL1AlzYMOMgb1l8SNlYfRQZ0eIvPZAr+fdO9WxivkHx27cZP8AUfb8G/XhyDa1gXrH5S+Z&#xA;P015Pt1lbld6f/ok/iQgHpt9KU38QcnjlYcPPCpMk1czyLFbRA/vmozDoAKdckWuKLggjgiWJBRV&#xA;H3++FbUp7+zgPGSQBv5RufwwWtIZtdsR0Dt8gP4nG08JUJGu9TZY1Qw2oNWY9Tg5p5JiY4oYQBRY&#xA;4x9wGSYpQ17f3Jb6nEBEDT1G/tyNsqCk1nqz/wB5chfZf7AMd02EJc6LKwq907ff/EnGmQkgZbL0&#xA;owlS1O564WQLBvPflk39r9bt1reWwJAHV06lfmOoyucbbscqYv5E8zNpGoi2nallcsA9eiP0DfwP&#xA;9mVwlTPJGw9x0y+BAFdjmQ4kgnkUnTC1ouN64oVRih5z+aH5aal5nvrbUtNniS4hhFvLDOWUFQ7O&#xA;pVlDb1c9RlOXEZbh3nZPakNPEwmDRN7LPy3/ACnm8v6h+l9Xmjmvowy2sMJJSPkOJcsQtW4kjptg&#xA;x4qNll2n2uM0eCAIj1t6Xl7oXYq7FUPdX9jaLyurmK3XrWV1Qf8ADEeGNqASk915/wDJVrX1dbsy&#xA;R1Ecqyn7o+XhkeMMxikeiU3P5x/l/DULqDTkdooJv1sqj8cHiBkMEu549+Y2q+StX1H9I+X0uILq&#xA;Zj9djeNUhc/79WjEhj3HHfrsetEyDycvEJAUWX/kL55v4tXTypdO01jdLI9jXcwyRqZGUf5DKrGn&#xA;j8zm17L1JEvDPI8nF1uEVxDm98zfOsdirzX819G4T22rxr8Mv7i4Ip9tRVD9K1H0DOM9qNJRjmHX&#xA;0n9H48np+wNTYOM9Nx+l4jfFtF8yx3qD9zI3qEDurbSL/HMLs/NxQHfHZt12Hhme4s7uIIbyzkhY&#xA;hoZ0K1G+zDqM2h3dckv5P65LoXnR9Jum4QaiTayDt66EmJvpNVH+tlWM0aXPG42+g8yHBQGqXjxK&#xA;sEG9xNstOoHSuApiHWek28KAyqJZjuzNuK+wONJJRaxxr9lQPkAMLFdiqVanO1xIthbmrMf3rDoA&#xA;O39cBZDvRcdukMSxIKKophRaGnurWMkPKoPhXf7sCQEFNqlgKjmW+Sn+ONsqKVXeo2pqFRz4bD+u&#xA;C2YCXyqJo/UClQexFDiyDyrz35cNhdm/t1pa3DfvFHRJDv8Ac2UZI1u5EJWyb8uPNZuYBp1y/wDp&#xA;VuP3THq8Y2+9cnjlezDJDq9TsLsOoFctcUhNIpMLFFI1RixXlgASTQDck4qxPW/zT8k6QzRy34up&#xA;16wWg9Y/8EP3YPzbIGYDbHDIsJ1T/nILdl0rSdv2ZbqT9ccY/wCN8gczaNN3liuofnR58u6+ndRW&#xA;an9m3hT7gZPUb8cgchbRgiEobV/zA1r/AI+tSvVb9lGmZN9/sr8OC5FnwxHcut/y+853R5/o915b&#xA;lpnRDv4h2DY+HJfEimlv+UPmeTeWW1hHcM7sf+FQj8cl4RY+MEyg/Jec09fVVXxCQlvxLrkvB82P&#xA;jeSNH5N6YkLlr+eSQKSvFUUE08Dyw+CEeMWHflldi18/6FKTTldpF/yO/df8b5LRSrNH3stQLxn3&#xA;PrXOsdG7FUu8xaSuraLdWB+3KhMJO1JF+JDXw5Df2zD1+lGfDLH3jb39PtcnR6g4csZ933dXzd5q&#xA;05p9PduNJrUl6Eb0Gzj+P0Z5xoshhko9dntdbj48djpui/JepfW9JEDmstofTPjwO6H+H0Z0uM2H&#xA;npjdJfO1nJZ6rBqVuShloea9VlipQ/dTIZBvbKG4p9DeU9ei17y7Y6qlOVxGDMo6LKvwyL9Dg5fE&#xA;2HXzjwmkXHYkX8l1I3KopGvhtjSL2X3t5FaRc33J2VB1JxKgWglOt3I5qUt0O4B60+5jjunZs6bq&#xA;Em0t4ePcLX+oxpbCKtLCC1UiMVY/ac9TjSCbQ2rXEnwWkB/fTbGnZcSmIU49Fso1HJPUfuxJ/VjS&#xA;eJcbO2X7MSD5KMVtTlhUrQCnyxW0pvLfrtizBY9q+mQXdtLbTryilUq4/p7jARbbEvHr211Dy7rY&#xA;CMVmgYPBLTZlPQ/I9CMxiDEuQDYex+U/McGp2EV1EaE7SJ3Vx1U5kRlYcacaZra3AdQa5JoIU9c8&#xA;zaX5f0x9Q1GXhCuyIN3kc9ERe5OAypYwMjQeCeavP/mfzdem2QyRWUjcbfTLepDeHPjvI3z28AMx&#xA;5TJc2GIRRmj/AJR67dqsmoSpYRnfh/ey/SqkKP8AgskMR6qcw6Mv0/8AKjyrbAG4Wa9cdfVcqtfZ&#xA;Y+H4k5YMQazlLIrLy7oNjT6pp9vCR+2sa8v+Cpy/HJiIDAyJTHJMXYq7FXYq7FXzlI0mna+zRMYp&#xA;LO6JjdTQq0UmxBHhTMGRI5c3OjRq+T6s8l+aotf03lJRNQt6JdxDbc9JFH8r0/hnR9ldox1WO/4x&#xA;zDrO0NEcE6/hPJkGbNwHYq8d/MjRRY+YJJlT/RtQBmXw5naUb/5XxfTnnntDpPB1HEPpnv8AHr+v&#xA;4vadjajxMPCecNvh0/V8HlejynRPM5tnNLeY+nU/yvvGfoNPxzK0mbjiC4OpxcEiGVeZtO+v6PPE&#xA;orLGPVi/1k3p9IqMzJiw4sTRTD8g/MfGa98vTPtJ/pdmCf2hRZVHzHE/Qchil0a9TDq9nJABJ2A6&#xA;nL3ESm0T6/evdyCsMR4wqelR/nXAyOyakgAkmgHUnCxQsmq2EZoZgT/k1b9WC08JQ8mtwn4beN5Z&#xA;D9kUoP642nhXadZSq7XVzvcSdB/KMQFJXahfJbcUVTJM/wBmMYkqAgWl1qT7MKRj36/if4YN07KL&#xA;W+tN1nRR4AD/AJpx3TYQlxpmoMKtdH6Af7MaSCEDJZvHFxdzIw6scLMFh/nPy2NUsT6YH1yCrQN4&#xA;+KH/AFv15CcbDbCVME8o+YZdD1Sk1RaynhcoeqkGganivfKYSots42Htltrlra2T3k8oW2iT1Hkr&#xA;UcQK7eNe2ZFuKY28Z81eZdW84a8nBHaMv6WnWS78Qxp8uTdWP8BmPKRkXJhARD0/yV5Js/L9qJZQ&#xA;s2qSj99cUrxB/Yjr0Hie+XwhTTOdsoyxrdirsVdirsVdirsVdir5885Q+j5r1VPG5kf/AJGNz/42&#xA;zEnzLmQ5B6B5c1y80u6tdUtDWQKpkjJoskbAFkb59vA75oNHrJaXNxR6Hcd4d9qdNHUYuE9Xu2ka&#xA;rZ6rp8N/ZtygmFQDsykbMrDsynY56Zp9RDNATjyLw2bDLHMxlzCMy5qYv+YujfpDy9JMi1uLE+uh&#xA;pvwApIK+HH4vozR9v6PxtOSPqh6v1/Zv8Ha9j6nw8wB5S2/U+efONjzgjvUHxRHhIR/KTsfoP684&#xA;3s3LRMe96TtHFYEu5k3l7Uv0jpMFwTWUDhN/rrsfv650MTYdFIUWINcz+VfOkN/bCi28y3ESjblE&#xA;9Q6fIqWTKj6ZMyOKNPp21ube8tIrmBhJb3EayRuOjI4qD9IOZLrSKXxRRQxhI1CoOgGKpU5k1S5M&#xA;aMVs4j8RH7Rwc2XJHRadZRiiwqfdhyP440iyrrGiCiKFHgBTChZPPHBE0shoq/j7DFQl+mwvcTPf&#xA;zDdtoR4DpX+GAMj3I51woUXXFKV6pq+kaanLULyG1Vvs+s6oT8gTU/RgJAZCJPJiOofmR5IRiq6h&#xA;6h6H04pSPv40yHiBtGKSRzfmJ5UkYgTSgfzGJqfhg8QNgxlgfm6bQ7u8F9pc4Zpv96IeDoQ3845A&#xA;DfvlU6O4bYX1QU3mHUZtFi0h3/0aJ+Vd6kD7Kn2U/wCe2DiNUnhF29K/KzyktnZjW7tP9Lul/wBF&#xA;Vh9iE/tD3f8AV88uxQ6tOWfR6BlzS7FXYq7FXEgCp6Yqld75o8u2NRdalbxsvVPUVn/4Fat+GRMg&#xA;GQiSkF7+bHlO3qIWnuz29KMqP+ShjyByhmMRSC9/Oec1Fjpip4PPIW/4VQv/ABLInMyGFIb380PN&#xA;9zUJcR2qnqsEaj7i/NvxyBylmMUUhkh1nU7l7mSOa5nlNXmYEkmlN2OY888BzIciGGR5As502KWL&#xA;T7aKUcZI41Vl2NCBTtnO5pAzJHK3oMMSIAHnTLPJPmw6BqHC4c/ou6YC4HaNzsso/U3t8s3PYfah&#xA;08+CX93L7PN1na2g8aHFH6x9vk9oz0N4xplVlKsAysKMp3BB7HARag08C826AtlqV/pMg/c1IiJ3&#xA;/duOSH5gEfTnl+t050uoMR/Cdvd0e+0uUajACeo397DfJd49lqs+lzmnqkhR/wAWR16fNc32DIJC&#xA;xyLos0CDR6Jh59071bGK+QfHbtxk/wBR/wCjfryzINrYQL0T8j/Mn6R8tPpUz1udKbilTuYJKsn/&#xA;AAJ5L8qYcUrDi6iFG+9nupmf6oywKWd6Lt1APXLC0hUsrZba2SIdRu58WPXCEEoa61Nlm+r2sfrT&#xA;D7XgMFsgFL09dk3MkcQ8Nv6NjuuzaaQ0jh7ydpqdE3AxpeJMQoUBQKAbADwwsULqeo6fptnJe386&#xA;W1rEKvLIaAe3uT2AwE0kAnk8X85/nTd3Zez8uKbW23DXzj98/b4FNeA9z8XyymWXucvHgrmw7SvK&#xA;PmrzE5u44ndJTVr25YgMT35NVn+gHICBLcZiLJLb8mNRYD6zqUMR7iONpB/wxjyYwlgcwRP/ACpX&#xA;/tc/9O3/AF9w+D5o8byS7U/ylu7G0lum1W3EMS8neVXjA/4H1MBxV1ZDLfRhCQlZRUBlU9N6Gn3H&#xA;KqbXrfk38wGvZo9P1KOOF2HG3njHBKgbKynYe1MyIT73HnjrcMkvfNvlmyr9Y1O3Vh1RXDsP9inI&#xA;5MzAaxAlIb382/K0FRbie7bsUTgp+mQqfwyByhmMRSC9/Oe7aostNjj/AJWmkZ/+FUJ+vInMzGFI&#xA;bz8y/ON4eKXQgDfsW8ag/QSGb8crOUsxiCWzL5q1T/ehru5BO3ru5X6OZpmNPVQHOTkQ0szyivh8&#xA;oao+8hjiHcFqn/hQf15jS7RxjlZcmPZ+Q86CYQeSoRT17lm8QihfxPLMeXaZ6ByI9mjqUfD5X0aL&#xA;dojIR3dj+oUGY8tdlPWm+OhxjpaLjg0y2/uo4oyP5VWv4b5TKeSXMkt8YQjyAC9r+3HQlvkP65EY&#xA;iy8QIu3stZu6fVNLupwehSJyPvAOZOPs/NPlGR9wLjz1mOPOQHxCc6P+XvmjVL6CO+s2sdO5BriS&#xA;QhW4DcgLXlyI6bZtdF2DmlMcUeGPUl1+q7XxRieE3J7fnfvHuxVgH5r6MZLa21eNatCfQuCK/YY1&#xA;Q+FA1R9Ocn7UaS4xzD+HY+7p9v3vRdgampHGeu49/X8eTwjzRbyWeowanB8LMQS3hIm4+8ZpOzc1&#xA;x4e52PaOKpcXezJGttW0kH/dN3FQjw5Ch+lTm75h0/IsY/LjXJPLPneBbhuEEzmyva9ArsAG37K4&#xA;Vq+GUwNFlljxRfS+ZLr0Hql2be3on97IeMdOvucBSA3p1kttAKisz7yN7+H0YgKSisKHYqw/zv8A&#xA;mXoflhGgLC81Uj4LKM7rXoZW34D8fbISmA248Rl7nher695q87auiyl7qZifq9nECIogevFa0Huz&#xA;fScoJMi5sYxgGe+VPyssLHhd6zxvLsbi36wofcH7Z+e3tl0cVc2qeW+TPAAAABQDYAZa0t4q7FXn&#xA;P5n6nJNcQ6XGaRRASzAd3b7IP+qu/wBOU5D0b8Q6sBFtv0yum1DX06qnoIasftkdvbIkpCMsPKl3&#xA;dQRzvKkUcg5KKFmoem2w/HNdm7QjAkAWQ5+LQSkAbq00h8mWK09aeSQ/5NEH/G2Ysu0pnkAHKj2d&#xA;EcySj4PLujw0pbKxHdyX/AmmY0tZlPVyI6TGOiLUWduOKBIh/KoA/AZSeKXOy3ARjy2aF4juEiRp&#xA;XbZVUVJ/jko4ZHZjLKAm1l5W85X9Pqukyop6PMPSFPGshTNlh7G1E+UD8dvvcLL2phhzkPv+5PrP&#xA;8o/NM9DeXtvaKf2U5SOPoAUf8Nm0w+zGQ/UYj7XAydvQH0gn7E8s/wAl9GWhvtQubph1CcYlJ+R9&#xA;Q/jmzxezeIfVIn3UP1uBk7cyH6QB9qe2f5beS7WhXTllYdWmZ5K/Qx4/hmwx9jaaH8F++y4c+088&#xA;v4q9yeWmk6VZU+p2cFtTp6UaJ/xEDM7Hgxw+mIHuDiTzTl9RJ+KKy1rdirsVdiqF1bTodS025sZv&#xA;sXEZTlSvEn7LU/yTQ5RqsAzY5YzykG7BmOOYmOhfOvmLSZZLa6sJV43MLMvHwljJFPvFM8vxmWDL&#xA;UuYNF7zLEZsW3UWEu8g6kWim06Q/FGfViB/lOzD6Dv8ATnT4j0ebmEv896d6OoJeIPguVo/+um34&#xA;imDIN0wL3n8tvMf6f8o2V278ruAfVrzep9WIAcj7uvFvpy6ErDg5YcMk+msVlvI7hmNIh8Mfavjh&#xA;phaKwoUrm4t7aB7i4lWGCIFpJZGCqqjqSx2AxUB4158/OuSX1NO8sMY491k1Mijt4+ip+z/rHfwp&#xA;1yiWTucvHp+smF+V/I2s+Y5vrUxaCxZi0t5LUtIa78Aftn36ZGMCW6UxF7BoPl3SdDtBb2EISv8A&#xA;eTNvI58Xbv8ALpmRGIDjykTzTPJMXYqh76/srC2e5vJkt4E+1I5oPl7n2wE0kC3mfmf82ppedtoK&#xA;GKPob2QfGf8AUQ/Z+Z+4ZTLL3N8cXewI6nqIld5ZXkkc8nMpLEk9yW3ykSbuFp7+9nPBerfsoNz/&#xA;ABxMu9RFNtG8rXEsizXymKEb+kdnb5jsM1up14AqG5dhp9CSbnsGXgAAACgGwAzSu4W2sV9qOow6&#xA;dpsfq3EzcV+fc17AdScy9NpJZZCIFyLj59RHHEyPIM50/wDJrUZaNquqLGO8Vupf/hm4Af8AAnOn&#xA;wezB/jkB7t/tLoc3bw/hiT72Tad+VXk6zoZLd7xx+3cOT/wqcF/DNvh7D00OY4vef7HW5O1s8uR4&#xA;fcyay0zTbFOFlaw2y0oRCip9/EDNnjwwx7RAj7g4M8sp/USUTlrW7FXYq7FXYq7FXYq7FXYq7FXk&#xA;/wCaGjfVNZTUI1pDfrVqdpY6BunitD865wXtLpPDzDIOU/vH4+96/sLU8eIwPOH3F47eltF8yx3i&#xA;CkLt6hA7q20i/ryGgzcUB3jZhrsPDM9xZZ5lsF1HRJRH8boBNARvUqK7fNajNnMWHXxNFr8i/Mf1&#xA;HzDNo8zUg1NKxA9BPECR/wAEnIfdleKW9MdRCxfc97zIcJIvNfnPQ/LFl9Y1Gb964P1e1TeWUj+V&#xA;fDxY7ZGUgGcMZlyeA+bvPvmPzjerbkNHZs9LbTIKsCa7cqbyP7/cBmPKRk5sMYgyfyh+VccXC918&#xA;CSXZksAaov8AxlI+1/qjb55bDF3sZ5e56QiKihEAVFACqBQADoAMuaG8VcSAKnpirCfNH5oaVpnO&#xA;203jf3o2LA/uUPuw+18l+/KpZQOTbHETzeaXV35j80Xnq3MjT8TsT8MMYPYAbD6N8ws+pjDeRc3B&#xA;ppT2iE90vy1ZWdJJf39wN+TD4Qf8lf45pc+tlPYbB3ODRRhudymktvby/wB7EklOnJQf15iRmRyL&#xA;lSgDzDooIIv7qNY/9UAfqxlMnmVjEDkG5Jo4xV2A9u+ARJ5JJAVNL0rWvMFz9U0q3Zx0klOyKPF3&#xA;6L+vNjo+z8maVQF/cHC1OshiFyNfe9j8leRbDy1bl6i41KUUnuiOg/kjHZf1/gO77N7Mhpo3zmeZ&#xA;/QHkddr5Zz3RHT9bJ82jgOxV2KuxV2KuxV2KuxV2KuxV2KuxV2KpD530Y6r5duIUXlcQf6Rbjepe&#xA;MGoAHdlJAzV9s6Tx9PKI+obj3j9Y2dh2ZqfBzAnkdj8Xzz5psPrOmmVRWS2+Mf6v7X4b/Rnn+gy8&#xA;M66Seu12LihfUI3yVqX1vSRA5rLaH0z48Duh/h9GdNjNh56Y3YpqsdxoXmQT2p4PBKl1aN2FG5r9&#xA;xFMqkKLMbh6z5n/PHTrfSoBoaC41O5hV5C4PpWzOoJVunN16UG3v2y2WXucWGnN78nlun6V5m85a&#xA;tJOzvczOwNzezE8EHuf1KuVAGRckkRD1zyt5L0ny9CDCvrXrCkt44+I+IUb8F9h9NcyIwAceUyWQ&#xA;ZNg7FUk8xecdE0GP/TJudyRVLSOjSnwqP2R7nISmAzjAl5P5i89eYPMUptYgbezfZbOCpLD/AIsY&#xA;bt+r2zGyZtrOwcnHh3oblrSvKPSXUD7iBT/xJh/DNRn7R6Q+btsHZ/WfyZIiQW8QVFWKJeigAAZq&#xA;yTI2dy7MARFDYOtI9R1O6Wz0u3e4nboFFdvE9gPc5lafRzyS4Yiy0ZtTGAsmgze0/KDXZbdHutUi&#xA;t5mFWhWP1Avtyqu+dFj9l5EXKQB+bpJ9vxB2iSEXF+S7mnr627DuqQcfxMh/VmRH2Xj1n/sf2tMu&#xA;3z0j9v7E1038ofK1q4kuTPfONysrhUr/AKqBT95zPw+z+nhvK5e/l9jiZe2c0uVRZlaWdpZwLb2k&#xA;KQQJskUahVH0DNzjxxgKiKDq5zMjZNlWybF2KuxV2KuxV2KuxV2KuxV2KuxV2KuxV2KuxV4f510R&#xA;dL1+6tgtLab99AKbenJX4R7Kar9GeZdsaT8vqJAfSfUPcf1HZ7vs3UeNgBPMbF5vo0x0TzObdzS3&#xA;lb0iT/K+6N9BpXNppc3HES73U6nFwSMUx/MKCP0rOen7zkyE+K0BzJytEEu8h+WLfzDrTW1y7JbQ&#xA;RGaUJ1ajKoSvavLrkIRspySoPcbGwsrC1S1s4Vgt4xRI0FB/affMoCnFJtEYUIbUdSsNOtWur6dL&#xA;eBeruab+AHUn2GAmkgW8w8z/AJs3dxzttDU20PQ3bgeq3+ou4X9fyyiWXub44u9ith5f1LUpDc3b&#xA;siSHk80lWkcnvvv9JzWajXRhsN5OywaKU9zsGV2GmWVhHwt46E/akO7N8zmny55ZDci7fFgjjGwX&#xA;y3ihhHEPUkJoAN9z22wQxEspZAGX+Wvyr1fVCl3rbtY2h3WAAeuw+R2j+nf2zp+z/Z+c/Vk9Ee7+&#xA;I/q/GzodZ2zGO0PUfs/a9W0fQ9J0e1Ftp1slvH+0V3Zj4ux+Jj8867T6XHhjwwFB5zNnnlNyNo7L&#xA;2l2KuxV2KuxV2KuxV2KuxV2KuxV2KuxV2KuxV2KuxV2KuxVhP5paP9Z0iLUo1/e2TUkPjFIQD86N&#xA;T8c5r2m0nHhGQc4fcf219rvOwtTw5TA8pfeHg3nGx5RRXqD4ozwkI/lP2T9B/XnL9m5aJh3u87Rx&#xA;WBJR8w6mNQ8vabMWrMHZJh35ooBP07H6c3cjYDpoiinf5NITrV+/7ItgD8zIv9Mlh5sM3J60zBQW&#xA;YgKBUk9AMyHHYN5o/NPTNP522khb67Gxlr+4Q/Mfb+jb3yqWUDk2xxE83m083mHzNeme5ke4Ybc3&#xA;+GKMeCgbL8gMws+pjDeRc3BppT2iGQaV5asrKkkg9e4G/Nh8IP8Akr/HNLn1s57DYO5waOMNzuUz&#xA;mnjiFXO/ZR1OYkYkuUZAJh5f8qeYfM0n+iRehYVpJdyVEY8QD1c+y/Tm40HZOTObiPT/ADjydbrO&#xA;0YYhud+5615W8g6F5fVZIo/rN/T4ryUAsP8AUXog+W/vnaaHsrFp9wOKfef0dzy2q7QyZtjtHuZL&#xA;mzcF2KuxV2KuxV2KuxV2KuxV2KuxV2KuxV2KuxV2KuxV2KuxV2KuxVSuraK6tZraYVhnRo5B0qri&#xA;h/A5DLjE4mMuUhTPHMwkJDmN3z7r2jvBPe6VdD4kLRMaUr/K4r47MM8ry45afMYnnA/j5voEJxz4&#xA;gRykPx8nmE6zws9rIaem5qvYMNifwzoIyEgCORdBKJiSCyj8v/M+n+XpNQu7vk7SRIkECD4nbkT1&#xA;OwA71y3HKmnJElQ8w+dvMHmSX6sKw2jn4LKCtD/rnq/07e2RyZtrOwZY8O9DcrtK8ogUl1A17iBT&#xA;/wASYfwzT5+0ekPm7fB2f1n8mSpHDBEERVjiQbKNgBmsJMjZ3LsgBEUOSy3F9qF0tnpkD3FxJsqo&#xA;Kn5+w9zmTg0sskuECz3NGbURgLJoPSfKn5R28BS88wMLm4+0LJTWNT1+Nv2/l0+edjoPZ+Mall3P&#xA;83p8e/8AHN5rWdsSltj2Hf1ejRRRxRrFEixxoAqIoAUAdAAOmdJGIAocnRkkmyuwodirsVdirsVd&#xA;irsVdirsVdirsVdirsVdirsVdirsVdirsVdirsVdirsVeZfmto3pXlvq0a0S4Ho3BH+/EFUJ/wBZ&#xA;Nv8AY5xPtRo6nHMP4tj7+n2fc9T2BqbicZ6bj3dft+94j5v08x3S3iL+7mHGQjs4/qM13Z2a48J5&#xA;hyu0MVS4h1Q+leWby8pJNWC3P7TD4mHsv8TlmfXRhsNy14NFKe52DLrDTLOxj4W8YUn7Tndm+ZzT&#xA;Zc8shuRdtiwxxiohUnuo4tvtP/KP45GMCWcpgMg8r/l5rnmEpdXhNjpZ3EjD43H/ABWh8f5jt886&#xA;Hs7sOeb1H0w7+p9zptb2rDHsPVL8c3r2g+W9H0K1+r6dAIwf7yU/FI58Xc7n5dPDOz0ujx4I1AV9&#xA;5eX1GpnlNyKZ5lNDsVdirsVdirsVdirsVdirsVdirsVdirsVdirsVdirsVdirsVdirsVdirsVdiq&#xA;V+Z9HGr6HdWQAMrrygO20qfEm56VIofbMHtLSfmMEodSNvf0cvQ6jwcsZ9OvueEMu/FhuDuD4jPL&#xA;eT3/ADaZlVSzGgHc4gWpK2wtdV1m8FlpMDTSt1I7D+ZmOyj3OZul0U8suGIsuLqNVHHG5Gg9U8o/&#xA;lZpmlFLzVON/qA+IKRWGM/5Kn7R92+7O27P7Dx4qlk9U/sDy2s7Wnk2h6Y/aWdZvXUOxV2KuxV2K&#xA;uxV2KuxV2KuxV2KuxV2KuxV2KuxV2KuxV2KuxV2KuxV2KuxV2KuxV2KuxV5B+YfljULDVLjUbW1e&#xA;awuX9QNEOXCR93DgbgFqkGlN84LtrsnJHNLJEfu5b+49ftev7L7RhLEISPrigvK35ba1rrrdanzs&#xA;NOrsGFJXH+Qh6D/Kb8cn2d2FPLvP0Q+0sdb2tHHtH1S+wPXtG0PS9GsxaadAsEQ+0Ruzn+Z2O7HO&#xA;z0+mx4Y8MBQeYzZ55ZcUjaOy9pdirsVdirsVdirsVdirsVdirsVdirsVdirsVdirsVdirsVdirsV&#xA;dirsVf/Z</xapGImg:image>
               </rdf:li>
            </rdf:Alt>
         </xap:Thumbnails>
      </rdf:Description>
      <rdf:Description rdf:about=""
            xmlns:xapTPg="http://ns.adobe.com/xap/1.0/t/pg/"
            xmlns:stDim="http://ns.adobe.com/xap/1.0/sType/Dimensions#"
            xmlns:xapG="http://ns.adobe.com/xap/1.0/g/">
         <xapTPg:MaxPageSize rdf:parseType="Resource">
            <stDim:w>300.000000</stDim:w>
            <stDim:h>90.000000</stDim:h>
            <stDim:unit>Pixels</stDim:unit>
         </xapTPg:MaxPageSize>
         <xapTPg:NPages>1</xapTPg:NPages>
         <xapTPg:HasVisibleTransparency>True</xapTPg:HasVisibleTransparency>
         <xapTPg:HasVisibleOverprint>False</xapTPg:HasVisibleOverprint>
         <xapTPg:PlateNames>
            <rdf:Seq>
               <rdf:li>Cyan</rdf:li>
               <rdf:li>Magenta</rdf:li>
               <rdf:li>Yellow</rdf:li>
               <rdf:li>Black</rdf:li>
            </rdf:Seq>
         </xapTPg:PlateNames>
         <xapTPg:SwatchGroups>
            <rdf:Seq>
               <rdf:li rdf:parseType="Resource">
                  <xapG:groupName>Default Swatch Group</xapG:groupName>
                  <xapG:groupType>0</xapG:groupType>
               </rdf:li>
            </rdf:Seq>
         </xapTPg:SwatchGroups>
      </rdf:Description>
      <rdf:Description rdf:about=""
            xmlns:dc="http://purl.org/dc/elements/1.1/">
         <dc:format>image/svg+xml</dc:format>
      </rdf:Description>
      <rdf:Description rdf:about=""
            xmlns:xapMM="http://ns.adobe.com/xap/1.0/mm/">
         <xapMM:InstanceID>uuid:E5D4E60BC42DDD1197D69574EC258430</xapMM:InstanceID>
      </rdf:Description>
   </rdf:RDF>
</x:xmpmeta>
                                                                                                    
                                                                                                    
                                                                                                    
                                                                                                    
                                                                                                    
                                                                                                    
                                                                                                    
                                                                                                    
                                                                                                    
                                                                                                    
                                                                                                    
                                                                                                    
                                                                                                    
                                                                                                    
                                                                                                    
                                                                                                    
                                                                                                    
                                                                                                    
                                                                                                    
                                                                                                    
                           
<?xpacket end="w"?>
	</metadata>
<g id="book" i:knockout="Off" i:layer="yes" i:dimmedPercent="50" i:rgbTrio="#4F004F00FFFF">
	<path id="p_x5F_bo2" fill="#D17300" d="M255.834,111.834l-17.333-22.667l-69.667-80.5L7.422,72.514
		c-1.676,0.694-2.509,2.528-0.861,6.096c0,0,49.231,118.615,49.267,118.593l3.019,2.039c0.481,0.258,1.534,0.274,3.21-0.416
		c0,0,33.436-23.211,79.527-49.744c0,0,13.442,0.121,19.5-2.25c12.091-4.73,16.397-12.263,16.397-12.263
		c43.604-11.651,75.271-14.958,75.271-14.958C254.708,119.292,258.167,114.835,255.834,111.834z"/>
	<path id="p_x5F_bo" fill="#F28500" d="M254.334,111.667c0.789,4.557-3.235,4.917-4.913,5.612c0,0-31.667,3.307-75.271,14.958
		c0,0-4.311,7.528-16.397,12.263c-6.058,2.371-19.5,2.25-19.5,2.25c-46.091,26.533-79.527,49.744-79.527,49.744
		c-1.677,0.694-2.723,1.381-3.218,0.297L6.562,78.61c-1.648-3.568-0.815-5.402,0.861-6.096c0,0,158.545-61.528,158.55-61.536
		C183.5,17,254.334,111.667,254.334,111.667z"/>
	<polygon id="pg_x5F_s" fill="#C6A263" points="14.25,76 60,182.5 61.334,155.832 20.333,58 	"/>
	<path id="pg_x5F_b" fill="#E8CF91" d="M63,154c0,0,52.333-37.999,58.333-38.333s27.642-2.493,27.642-2.493L172.75,91l61.355-8.836
		l4.736,28.645L163.667,125l-12.334,8l-12,2L60,182.5L63,154z"/>
	
		<radialGradient id="pg_x5F_loop_1_" cx="58.6406" cy="116.7061" r="42.0501" gradientTransform="matrix(1 0 0 1 91 0)" gradientUnits="userSpaceOnUse">
		<stop  offset="0" style="stop-color:#845507"/>
		<stop  offset="1" style="stop-color:#D4B07A"/>
		<a:midPointStop  offset="0" style="stop-color:#845507"/>
		<a:midPointStop  offset="0.5" style="stop-color:#845507"/>
		<a:midPointStop  offset="1" style="stop-color:#D4B07A"/>
	</radialGradient>
	<path id="pg_x5F_loop" fill="url(#pg_x5F_loop_1_)" d="M140.625,133.625c0,0,0.042-12.124,9.709-16.458s12.354,7.583,12.354,7.583
		l-9.563,9.188L140.625,133.625z"/>
	<linearGradient id="pg_x5F_r_1_" gradientUnits="userSpaceOnUse" x1="161.124" y1="56.1216" x2="127.4575" y2="80.4546">
		<stop  offset="0" style="stop-color:#FFF4B0"/>
		<stop  offset="0.468" style="stop-color:#FEF2AE"/>
		<stop  offset="0.7568" style="stop-color:#F1E09D"/>
		<stop  offset="1" style="stop-color:#C6A263"/>
		<a:midPointStop  offset="0" style="stop-color:#FFF4B0"/>
		<a:midPointStop  offset="0.5" style="stop-color:#FFF4B0"/>
		<a:midPointStop  offset="0.468" style="stop-color:#FEF2AE"/>
		<a:midPointStop  offset="0.5" style="stop-color:#FEF2AE"/>
		<a:midPointStop  offset="0.7568" style="stop-color:#F1E09D"/>
		<a:midPointStop  offset="0.5" style="stop-color:#F1E09D"/>
		<a:midPointStop  offset="1" style="stop-color:#C6A263"/>
	</linearGradient>
	<path id="pg_x5F_r" fill="url(#pg_x5F_r_1_)" d="M149.266,113.77L94.099,33.853c-0.352-0.508-0.356-1.177-0.01-1.689
		c0.35-0.521,8.639-12.797,14.352-17.033c7.213-5.353,25.063-6.197,39.406-6.876c7.104-0.335,13.239-0.625,16.479-1.381
		c0.115-0.027,0.229-0.04,0.342-0.04c0.404,0,0.798,0.163,1.084,0.462l69.332,72.335c0.402,0.419,0.525,1.036,0.316,1.577
		c-0.21,0.544-0.719,0.915-1.294,0.957c-0.566,0.04-56.701,4.103-67.813,13.324c-9.705,8.055-14.433,18.061-14.433,18.061
		L149.266,113.77z"/>
	<linearGradient id="pg_x5F_l_1_" gradientUnits="userSpaceOnUse" x1="52.7778" y1="104.6064" x2="112.4448" y2="63.2734">
		<stop  offset="0" style="stop-color:#FFF4B0"/>
		<stop  offset="0.468" style="stop-color:#FEF2AE"/>
		<stop  offset="0.7568" style="stop-color:#F1E09D"/>
		<stop  offset="1" style="stop-color:#C6A263"/>
		<a:midPointStop  offset="0" style="stop-color:#FFF4B0"/>
		<a:midPointStop  offset="0.5" style="stop-color:#FFF4B0"/>
		<a:midPointStop  offset="0.468" style="stop-color:#FEF2AE"/>
		<a:midPointStop  offset="0.5" style="stop-color:#FEF2AE"/>
		<a:midPointStop  offset="0.7568" style="stop-color:#F1E09D"/>
		<a:midPointStop  offset="0.5" style="stop-color:#F1E09D"/>
		<a:midPointStop  offset="1" style="stop-color:#C6A263"/>
	</linearGradient>
	<path id="pg_x5F_l" fill="url(#pg_x5F_l_1_)" d="M59.948,154.912L18.656,55.75c0,0,33.367-33.165,53.677-35.5l2.082-0.062
		c9.782,0,18.963,13.397,18.963,13.397l55.598,79.588c-0.001,0.001-1.505,2.336-1.505,2.336s-6.188-1.131-13.47-1.131
		c-7.632,0-13.83,1.24-17.923,3.59c-12.865,7.385-53.855,37.572-53.855,37.572L59.948,154.912z"/>
	<path id="bk_x5F_outline" fill="#845507" d="M242.041,109.122l-3.321-28.873c-0.122-0.932-0.563-1.734-1.189-2.342
		C237.435,77.79,167.915,5.22,167.915,5.22c-0.858-0.897-2.037-1.387-3.248-1.387c-0.342,0-0.685,0.04-1.022,0.119
		c-2.813,0.669-9.227,0.996-15.938,1.306c-7.653,0.362-15.854,0.748-23.146,1.758c-7.299,1.029-13.697,2.61-17.907,5.704
		c-4.833,3.619-10.783,11.697-13.547,15.602c-3.645-4.313-10.398-11.034-18.691-11.134c-0.535,0-1.069,0.031-1.596,0.092
		c-21.621,2.556-41.946,22.788-52.902,33.501c-3.292,2.657-4.067,5.701-4.067,5.701l-3.78,17.931c0,0-0.124,0.766-0.039,1.743
		c0.085,0.977,0.323,1.793,0.323,1.793l44.057,103.208c0,0,1.156,3.048,2.526,3.153c1.37,0.106,4.099-1.885,4.099-1.885
		l76.821-45.996c0,0,5.603,3.108,14.311-0.1s10.066-9.915,10.066-9.915l75.782-14.314c0,0,1.481-0.229,1.897-0.771
		S242.041,109.122,242.041,109.122z M19.625,61.875c0,0,37.644,94.342,37.681,94.418l-0.241,15.573L16.083,76.417L19.625,61.875z
		 M101.434,27.131c2.756-3.602,6.264-7.732,8.793-9.593c4.487-3.429,15.794-5.01,26.997-5.708
		c10.708-0.72,21.302-0.798,26.938-1.859l66.563,69.448c-5.071,0.422-15.606,1.391-26.909,2.981
		c-7.893,1.11-16.148,2.523-23.216,4.275c-7.071,1.777-12.901,3.789-16.224,6.503c-7.228,6.001-11.74,12.844-13.84,16.487
		l-0.214,0.2l-8.918-12.764L97.153,32.997C97.957,31.836,99.532,29.605,101.434,27.131z M73.505,23.24
		c0.302-0.036,0.606-0.052,0.91-0.052c3.825-0.043,8.064,2.854,11.228,5.947c1.583,1.533,2.908,3.079,3.827,4.235
		c0.921,1.156,1.419,1.897,1.423,1.897l45.579,65.248l7.947,11.518c-2.568-0.315-6.292-0.654-10.416-0.654
		c-6.419,0.013-13.804,0.79-19.417,3.989c-11.7,6.727-44.765,30.88-52.501,36.555c-0.049-0.01-0.099-0.016-0.148-0.021L22.11,57.027
		C31.532,47.79,53.189,25.485,73.505,23.24z M161.25,121.5c0,0-1.083,5.5-8.083,9.167s-12.417-0.917-12.417-0.917L64.667,175
		l0.613-17.985c7.013-5.146,40.968-29.953,52.293-36.442c3.485-2.021,9.218-3.202,16.429-3.193
		c6.985,0.002,13.313,1.108,13.512,1.14c0.396,0.063,0.804,0.1,1.212,0.1c2.061,0.054,4.369-1.071,5.8-3.688
		c0.085-0.162,0.048-0.098,0.102-0.2c0.527-1.066,5.011-9.821,13.583-16.931c1.846-1.564,6.08-3.266,11.465-4.702
		c14.943-4.039,40.319-6.94,53.078-7.969L235,107L161.25,121.5z"/>
	<path id="qmark" fill="#CC3602" d="M154.813,20.125c-5.542-0.223-9.076,0.171-15.035,2.503
		c-11.737,4.593-20.801,13.52-21.317,20.946c-0.481,6.918,4.432,12.306,11.67,12.81c7.868,0.547,13.535-5.48,9.066-9.645
		c-1.896-1.762-3.17-2.062-8.395-1.868c-6.926,0.258-7.662-0.39-5.917-5.455c1.482-4.303,8.823-8.996,16.608-12.181
		c12.671-5.186,21.664-1.615,21.049,7.228c-0.138,1.982-0.139,5.691-2.17,10.428c-4.197,9.789-4.304,13.415-0.568,18.537
		c1.283,1.76,2.653,3.223,3.063,3.251c0.408,0.028,0.893-1.854,1.074-4.186c0.206-2.65,1.92-7.186,4.54-12.121
		c4.789-9.023,5.58-14.212,3.076-19.959c-0.918-2.109-3.281-5.084-5.239-6.598C163.257,21.447,160.977,20.373,154.813,20.125z
		 M173.463,68.419c-3.8-0.265-9.104,1.994-7.569,8.84c0.413,1.844,4.894,3.649,8.104,0.854
		C178.046,74.59,176.885,68.657,173.463,68.419z"/>
</g>
<g id="wrds" i:knockout="Off" i:layer="yes" i:dimmedPercent="50" i:rgbTrio="#FFFF4F004F00" opacity="0.25">
	<g id="words" i:knockout="Off">
		<path fill="none" stroke="#845507" stroke-width="3" stroke-linecap="round" d="M42,80.667c0,0,3.333-8.333,8.667-10.333
			s10.667-0.334,15-2.667s7-10.333,9.667-12S89.667,52,92.667,52"/>
		<path fill="none" stroke="#845507" stroke-width="3" stroke-linecap="round" d="M47.688,93.5c0,0,3.688-9.125,9.021-11.125
			s10.5-0.5,14.833-2.833s6.917-10.25,9.583-11.917c2.667-1.667,16.563-3.5,19.563-3.5"/>
		<path fill="none" stroke="#845507" stroke-width="3" stroke-linecap="round" d="M53.375,106.333c0,0,4.042-9.916,9.375-11.916
			s10.333-0.667,14.667-3.001c4.333-2.332,6.833-10.167,9.5-11.833c2.666-1.666,18.792-3.333,21.792-3.333"/>
		<path fill="none" stroke="#845507" stroke-width="3" stroke-linecap="round" d="M59.063,119.167c0,0,4.396-10.709,9.729-12.709
			s10.167-0.833,14.5-3.167c4.333-2.332,6.75-10.083,9.417-11.75c2.667-1.666,21.021-3.167,24.021-3.167"/>
		<path fill="none" stroke="#845507" stroke-width="3" stroke-linecap="round" d="M64.75,132c0,0,4.75-11.5,10.083-13.5
			s10-1,14.333-3.334c4.333-2.332,6.667-10,9.333-11.666s23.25-3,26.25-3"/>
	</g>
	<path id="title" fill="none" stroke="#845507" stroke-width="5" stroke-linecap="round" d="M33.75,61.75
		c0,0,0.416-7.917,5.75-9.917s10-1,14.333-3.333s6.856-9.73,9.333-11.667C67.75,33.25,75.25,34.5,78.25,34.5"/>
</g>
</svg>
