<?xml version="1.0" encoding="utf-8"?>
<!-- Generator: Adobe Illustrator 19.1.0, SVG Export Plug-In . SVG Version: 6.00 Build 0)  -->
<svg version="1.1" id="Layer_1" xmlns="http://www.w3.org/2000/svg" xmlns:xlink="http://www.w3.org/1999/xlink" x="0px" y="0px"
	 viewBox="0 0 672 250" style="enable-background:new 0 0 672 250;" xml:space="preserve">
<style type="text/css">
	.st0{fill:url(#symbol_1_);}
	.st1{fill:url(#SVGID_1_);}
	.st2{fill:url(#SVGID_2_);}
	.st3{fill:url(#SVGID_3_);}
	.st4{fill:url(#SVGID_4_);}
	.st5{fill:url(#SVGID_5_);}
	.st6{fill:url(#SVGID_6_);}
	.st7{fill:url(#SVGID_7_);}
</style>
<g id="influxdb_logo">
	<linearGradient id="symbol_1_" gradientUnits="userSpaceOnUse" x1="205.3238" y1="125" x2="483.0884" y2="125">
		<stop  offset="0" style="stop-color:#4591ED"/>
		<stop  offset="1" style="stop-color:#00C9FF"/>
	</linearGradient>
	<path id="symbol_2_" class="st0" d="M242.5,133.3l-7.6-33.2c-0.4-1.8-2.1-3.6-3.9-4.1l-34.9-10.7c-0.5-0.1-1-0.2-1.5-0.2
		c-1.5,0-3.1,0.6-4,1.5l-25,23.2c-1.3,1.2-2.1,3.6-1.7,5.4l8.1,35.5c0.4,1.8,2.1,3.6,3.9,4.1l32.6,10c0.5,0.1,1,0.2,1.5,0.2
		c1.5,0,3.1-0.6,4-1.5l26.7-24.8C242.2,137.5,242.9,135.1,242.5,133.3z M199.7,93.1l23.9,7.3c0.9,0.3,0.9,0.7,0,0.9l-12.6,2.9
		c-1,0.2-2.3-0.2-2.9-0.9l-8.8-9.5C198.6,93.2,198.8,92.9,199.7,93.1z M214.6,136c0.2,1-0.4,1.5-1.3,1.2l-25.8-7.9
		c-0.9-0.3-1.1-1.1-0.4-1.7l19.8-18.4c0.7-0.7,1.5-0.4,1.7,0.5L214.6,136z M172.1,112.6l21-19.5c0.7-0.7,1.8-0.6,2.5,0.1l10.5,11.3
		c0.7,0.7,0.6,1.8-0.1,2.5l-21,19.5c-0.7,0.7-1.8,0.6-2.5-0.1L172,115.1C171.4,114.4,171.4,113.3,172.1,112.6z M177.2,143.6
		l-5.6-24.3c-0.2-1,0.1-1.1,0.8-0.4l8.8,9.5c0.7,0.7,1,2.1,0.7,3l-3.8,12.3C177.9,144.5,177.4,144.5,177.2,143.6z M207.9,157.7
		l-27.3-8.4c-0.9-0.3-1.5-1.3-1.2-2.2l4.5-14.8c0.3-0.9,1.3-1.5,2.2-1.2l27.3,8.4c0.9,0.3,1.5,1.3,1.2,2.2l-4.5,14.8
		C209.8,157.5,208.8,158,207.9,157.7z M232.2,137.8l-18.3,17c-0.7,0.7-1.1,0.4-0.8-0.5l3.8-12.3c0.3-0.9,1.3-1.9,2.3-2.1l12.6-2.9
		C232.7,136.8,232.9,137.2,232.2,137.8z M234.2,134.2l-15.1,3.4c-1,0.2-1.9-0.4-2.1-1.3l-6.4-27.9c-0.2-1,0.4-1.9,1.3-2.1l15.1-3.4
		c1-0.2,1.9,0.4,2.1,1.3l6.4,27.9C235.7,133,235.1,134,234.2,134.2z"/>
	<g id="type_2_">
		<g>
			<linearGradient id="SVGID_1_" gradientUnits="userSpaceOnUse" x1="205.3238" y1="120.5383" x2="483.0884" y2="120.5383">
				<stop  offset="0" style="stop-color:#4591ED"/>
				<stop  offset="1" style="stop-color:#00C9FF"/>
			</linearGradient>
			<path class="st1" d="M273.5,111.4l8.9-1.2l-6.3,35.8h-8.7L273.5,111.4z M276.1,96.3l8.9-1.2l-1.7,9.8l-8.9,1.3L276.1,96.3z"/>
			<linearGradient id="SVGID_2_" gradientUnits="userSpaceOnUse" x1="205.3238" y1="127.9909" x2="483.0884" y2="127.9909">
				<stop  offset="0" style="stop-color:#4591ED"/>
				<stop  offset="1" style="stop-color:#00C9FF"/>
			</linearGradient>
			<path class="st2" d="M310.2,120.9c0.1-0.4,0.1-0.8,0.1-0.9c0-0.9-0.4-1.5-1.8-1.5c-2.3,0-7.2,2.2-10.5,4.1l-4.1,23.4h-8.7
				l6.1-34.5l7.5-1.3l-0.1,4.3c4.6-2.5,10.1-4.4,14.3-4.4c4.8,0,6.4,3.2,6.4,7c0,1.4-0.1,2.3-0.4,3.5l-4.5,25.5h-8.7L310.2,120.9z"
				/>
			<linearGradient id="SVGID_3_" gradientUnits="userSpaceOnUse" x1="205.3238" y1="127.9185" x2="483.0884" y2="127.9185">
				<stop  offset="0" style="stop-color:#4591ED"/>
				<stop  offset="1" style="stop-color:#00C9FF"/>
			</linearGradient>
			<path class="st3" d="M347.4,117.8h-8.1l-5.3,29.8c-1,5.7-3.1,9.3-7.7,13.3l-5.6-5.2c2.8-2.7,4.1-5.1,4.7-8.9l5.1-29h-5.4l1.2-7.1
				h5.4l0.9-5.1c1.3-7.5,4.3-10.8,13.2-10.8c2.9,0,6.7,0.4,11.1,1.4l8.9-1.2l-9,50.9h-8.7l7.6-43.1c-3.5-0.7-7-1.1-9.8-1.1
				c-3,0-4.2,1-4.6,3.5l-0.9,5.4h8.8L347.4,117.8z"/>
			<linearGradient id="SVGID_4_" gradientUnits="userSpaceOnUse" x1="205.3238" y1="128.4249" x2="483.0884" y2="128.4249">
				<stop  offset="0" style="stop-color:#4591ED"/>
				<stop  offset="1" style="stop-color:#00C9FF"/>
			</linearGradient>
			<path class="st4" d="M376.1,135.8c-0.1,0.5-0.1,0.8-0.1,0.9c0,0.9,0.4,1.5,1.8,1.5c2.3,0,7.2-2.2,10.5-4.1l4-22.8l8.9-1.2
				L395,146h-7.4l0.1-3.7c-4.6,2.5-10.1,4.4-14.3,4.4c-4.8,0-6.4-3.2-6.4-7c0-1.4,0.1-2.3,0.4-3.5l4.3-24.8l8.9-1.2L376.1,135.8z"/>
			<linearGradient id="SVGID_5_" gradientUnits="userSpaceOnUse" x1="205.3238" y1="128.0632" x2="483.0884" y2="128.0632">
				<stop  offset="0" style="stop-color:#4591ED"/>
				<stop  offset="1" style="stop-color:#00C9FF"/>
			</linearGradient>
			<path class="st5" d="M414.9,128.2l-7.6-16.6l8.1-1.5l5.3,12.5l8.7-11.9h9.3l-14.4,18.6L432,146h-8.8l-4.8-10.2l-8.5,10.2h-9.3
				L414.9,128.2z"/>
			<linearGradient id="SVGID_6_" gradientUnits="userSpaceOnUse" x1="205.3238" y1="120.9" x2="483.0884" y2="120.9">
				<stop  offset="0" style="stop-color:#4591ED"/>
				<stop  offset="1" style="stop-color:#00C9FF"/>
			</linearGradient>
			<path class="st6" d="M465.3,146h-7.4v-3.9c-3,2.7-6.8,4.6-12,4.6c-6.1,0-8.2-3.3-8.2-8c0-1.2,0.1-2.4,0.4-3.7l1.8-10.3
				c1.6-9,3.3-14.7,17.1-14.7c1.3,0,3.8,0.2,5.8,0.7l2.5-14.3l8.9-1.2L465.3,146z M461.6,117.8c-1.6-0.4-3.9-0.4-5.1-0.4
				c-5.6,0-7,2.2-7.8,6.9l-2.2,12.4c-0.1,0.4-0.1,0.7-0.1,0.9c0,1.3,0.9,1.9,2.5,1.9c3.7,0,8-3,9.8-5.3L461.6,117.8z"/>
			<linearGradient id="SVGID_7_" gradientUnits="userSpaceOnUse" x1="205.3238" y1="120.9" x2="483.0884" y2="120.9">
				<stop  offset="0" style="stop-color:#4591ED"/>
				<stop  offset="1" style="stop-color:#00C9FF"/>
			</linearGradient>
			<path class="st7" d="M483.1,96.3l8.9-1.2l-3.2,18c3.9-2.2,7.6-3.1,11.1-3.1c6.1,0,8.2,3.3,8.2,8c0,1.2-0.1,2.4-0.4,3.7L506,132
				c-1.9,10.6-5.5,14.7-18.2,14.7c-3.3,0-9.7-1.1-13.2-2.3L483.1,96.3z M484.2,138.9c1.6,0.3,3.3,0.5,5.1,0.5c5.6,0,7-2.3,7.8-6.9
				l2.2-12.4c0.1-0.4,0.1-0.7,0.1-0.9c0-1.3-0.9-1.9-2.5-1.9c-2.7,0-6.4,1.2-9.5,3.3L484.2,138.9z"/>
		</g>
	</g>
</g>
</svg>
