<svg viewBox="0 0 284 56" xmlns="http://www.w3.org/2000/svg" class="hclogo"><path d="M237.281 26.219l-25.426-.008V20.73l20.387-.003a1.957 1.957 0 0 0 1.949-1.942l.012-3.711a1.944 1.944 0 0 0-1.937-1.945l-20.411-.008V7.637l25.426-.004a1.947 1.947 0 0 0 1.942-1.942V1.953a1.946 1.946 0 0 0-1.942-1.941H206.07c-1.07 0-1.941.875-1.941 1.941v29.934c0 1.07.871 1.941 1.941 1.941h31.207a1.95 1.95 0 0 0 1.946-1.941V28.16a1.946 1.946 0 0 0-1.942-1.941M35.004.035h-3.871a1.95 1.95 0 0 0-1.942 1.942l-.003 11.097H7.824L7.816 1.941A1.949 1.949 0 0 0 5.875 0H1.953A1.95 1.95 0 0 0 .008 1.941v30a1.95 1.95 0 0 0 1.945 1.946h3.922a1.95 1.95 0 0 0 1.941-1.946L7.82 20.68h21.368l.007 11.261c0 1.071.871 1.942 1.942 1.938l3.867-.004a1.954 1.954 0 0 0 1.945-1.949V1.977A1.947 1.947 0 0 0 35.004.035M75.227 26.219h-25.43v-5.481l20.387-.011a1.958 1.958 0 0 0 1.949-1.942l.012-3.711a1.945 1.945 0 0 0-1.938-1.945l-20.41-.004V7.637l25.426-.004c1.07 0 1.941-.875 1.941-1.942V1.953A1.946 1.946 0 0 0 75.223.012H44.012a1.95 1.95 0 0 0-1.946 1.941v29.934c0 1.07.875 1.941 1.946 1.941h31.207a1.95 1.95 0 0 0 1.945-1.941V28.16a1.943 1.943 0 0 0-1.937-1.941M115.578.051H83.25c-1.07 0-1.941.875-1.941 1.941v3.735c0 1.066.871 1.941 1.941 1.941h12.305v24.25c0 1.07.871 1.945 1.937 1.945h4.164a1.947 1.947 0 0 0 1.942-1.945l.007-24.25h11.973c1.07 0 1.942-.875 1.942-1.941V1.992a1.947 1.947 0 0 0-1.942-1.941M269.746 14.563l-18.336.007V7.676l18.336-.012a2.856 2.856 0 0 1 2.848 2.852v.453c.004.062.019.117.019.183 0 .055-.015.11-.019.164v.395a2.86 2.86 0 0 1-2.848 2.852zm2.473 6.968c2.121-.504 4.179-1.312 5.574-2.996.02-.019.035-.031.055-.051 1.695-2.054 2.558-4.507 2.558-7.296 0-2.333-.582-4.411-1.734-6.176-1.942-3.024-4.664-4.649-8.086-4.828l-1.672-.043a179.054 179.054 0 0 0-3.883-.063L245.777.043a1.938 1.938 0 0 0-1.941 1.937v29.954c0 1.07.867 1.945 1.941 1.945h3.672a1.95 1.95 0 0 0 1.946-1.945l-.012-9.762 9.043-.016c1.07 0 2.551.625 3.293 1.395l8.875 8.914c.742.765 1.972 1.394 3.039 1.394h6.812c1.067 0 1.328-.621.578-1.379l-10.804-10.945v-.004zM156.047 26.105l-21.652-.003 21.332-18.743c.8-.703 1.449-2.152 1.445-3.222l-.004-2.16a1.958 1.958 0 0 0-1.945-1.942h-31.606a1.949 1.949 0 0 0-1.941 1.942v3.757c0 1.067.875 1.938 1.941 1.938l20.371-.004-21.207 18.598c-.804.707-1.457 2.156-1.461 3.222v2.446c0 1.07.875 1.941 1.942 1.941h32.785a1.946 1.946 0 0 0 1.941-1.941v-3.887c0-1.07-.875-1.942-1.941-1.942" fill="#D50C2D"></path><path d="M237.281 26.219l-25.426-.008V20.73l20.387-.003a1.957 1.957 0 0 0 1.949-1.942l.012-3.711a1.944 1.944 0 0 0-1.937-1.945l-20.411-.008V7.637l25.426-.004a1.947 1.947 0 0 0 1.942-1.942V1.953a1.946 1.946 0 0 0-1.942-1.941H206.07c-1.07 0-1.941.875-1.941 1.941v29.934c0 1.07.871 1.941 1.941 1.941h31.207a1.95 1.95 0 0 0 1.946-1.941V28.16a1.946 1.946 0 0 0-1.942-1.941M35.004.035h-3.871a1.95 1.95 0 0 0-1.942 1.942l-.003 11.097H7.824L7.816 1.941A1.949 1.949 0 0 0 5.875 0H1.953A1.95 1.95 0 0 0 .008 1.941v30a1.95 1.95 0 0 0 1.945 1.946h3.922a1.95 1.95 0 0 0 1.941-1.946L7.82 20.68h21.368l.007 11.261c0 1.071.871 1.942 1.942 1.938l3.867-.004a1.954 1.954 0 0 0 1.945-1.949V1.977A1.947 1.947 0 0 0 35.004.035M75.227 26.219h-25.43v-5.481l20.387-.011a1.958 1.958 0 0 0 1.949-1.942l.012-3.711a1.945 1.945 0 0 0-1.938-1.945l-20.41-.004V7.637l25.426-.004c1.07 0 1.941-.875 1.941-1.942V1.953A1.946 1.946 0 0 0 75.223.012H44.012a1.95 1.95 0 0 0-1.946 1.941v29.934c0 1.07.875 1.941 1.946 1.941h31.207a1.95 1.95 0 0 0 1.945-1.941V28.16a1.943 1.943 0 0 0-1.937-1.941M115.578.051H83.25c-1.07 0-1.941.875-1.941 1.941v3.735c0 1.066.871 1.941 1.941 1.941h12.305v24.25c0 1.07.871 1.945 1.937 1.945h4.164a1.947 1.947 0 0 0 1.942-1.945l.007-24.25h11.973c1.07 0 1.942-.875 1.942-1.941V1.992a1.947 1.947 0 0 0-1.942-1.941M269.746 14.563l-18.336.007V7.676l18.336-.012a2.856 2.856 0 0 1 2.848 2.852v.453c.004.062.019.117.019.183 0 .055-.015.11-.019.164v.395a2.86 2.86 0 0 1-2.848 2.852zm2.473 6.968c2.121-.504 4.179-1.312 5.574-2.996.02-.019.035-.031.055-.051 1.695-2.054 2.558-4.507 2.558-7.296 0-2.333-.582-4.411-1.734-6.176-1.942-3.024-4.664-4.649-8.086-4.828l-1.672-.043a179.054 179.054 0 0 0-3.883-.063L245.777.043a1.938 1.938 0 0 0-1.941 1.937v29.954c0 1.07.867 1.945 1.941 1.945h3.672a1.95 1.95 0 0 0 1.946-1.945l-.012-9.762 9.043-.016c1.07 0 2.551.625 3.293 1.395l8.875 8.914c.742.765 1.972 1.394 3.039 1.394h6.812c1.067 0 1.328-.621.578-1.379l-10.804-10.945v-.004zM156.047 26.105l-21.652-.003 21.332-18.743c.8-.703 1.449-2.152 1.445-3.222l-.004-2.16a1.958 1.958 0 0 0-1.945-1.942h-31.606a1.949 1.949 0 0 0-1.941 1.942v3.757c0 1.067.875 1.938 1.941 1.938l20.371-.004-21.207 18.598c-.804.707-1.457 2.156-1.461 3.222v2.446c0 1.07.875 1.941 1.942 1.941h32.785a1.946 1.946 0 0 0 1.941-1.941v-3.887c0-1.07-.875-1.942-1.941-1.942" fill="#D50C2D"></path><path fill="#4F4C4C" d="M0 55.004h166.535v-1.852H0zM255.488 54.997h27.977v-1.852h-27.977z"></path><path d="M199.637 11.844c-.004-.211 0-.457.004-.731-.004-2.324-.586-4.394-1.735-6.148-1.941-3.024-4.73-4.754-8.152-4.934-.02-.004-25.781.004-25.781.004a1.953 1.953 0 0 0-1.946 1.942v29.949a1.95 1.95 0 0 0 1.946 1.941l4.109.004a1.948 1.948 0 0 0 1.941-1.906V7.668h16.485c2.847 0 5.18 2.332 5.18 5.18v.894c0 .02.003.039.003.051 0 .523 0 .953-.003.961v17.168c0 1.066.875 1.937 1.945 1.937h4.066a1.945 1.945 0 0 0 1.942-1.937V18.938l-.004-3.446v-3.648" fill="#D61541"></path><path d="M179.57 55.133c-6.168 0-7.222-.75-7.222-5.746v-.34c0-4.965.984-5.746 7.222-5.746h.528c5.625 0 6.492.679 6.492 3.656v.441h-2.445v-.222c0-1.563-.325-1.903-4.133-1.903h-.356c-4.371 0-4.758.274-4.758 3.84v.207c0 3.516.387 3.805 4.758 3.805h.356c3.859 0 4.269-.305 4.269-2.02v-.187h2.446v.543c0 2.855-1.004 3.672-6.629 3.672h-.528M199.902 54.996h-10.894V43.438h2.531v9.554h8.363v2.004M208.453 53.145c4.488 0 4.863-.325 4.863-3.844v-.188c0-3.55-.375-3.855-4.863-3.855h-.34c-4.468 0-4.859.305-4.859 3.855v.188c0 3.519.391 3.844 4.859 3.844h.34zm-.426 1.988c-6.371 0-7.324-.715-7.324-5.746v-.34c0-5.047.953-5.746 7.324-5.746h.512c6.375 0 7.328.699 7.328 5.746v.34c0 5.051-.953 5.746-7.328 5.746h-.512zM224.891 55.133c-5.711 0-6.782-.903-6.782-4.387v-7.308h2.536v6.765c0 2.617.558 2.922 4.23 2.922h.375c3.672 0 4.266-.32 4.266-2.922v-6.765h2.535v7.308c0 3.469-1.055 4.387-6.817 4.387h-.343M241.996 52.992c4.539 0 4.875-.426 4.875-3.691v-.203c0-3.383-.387-3.688-4.875-3.688h-4.879v7.582h4.879zm7.41-3.605c0 4.879-.832 5.609-7.207 5.609h-7.617V43.438h7.617c6.356 0 7.207.664 7.207 5.609v.34z" fill="#4F4C4C"></path></svg>
