<?xml version="1.0" encoding="utf-8"?>
<!-- Generator: Adobe Illustrator 19.1.0, SVG Export Plug-In . SVG Version: 6.00 Build 0)  -->
<svg version="1.1" id="Layer_1" xmlns="http://www.w3.org/2000/svg" xmlns:xlink="http://www.w3.org/1999/xlink" x="0px" y="0px"
	 viewBox="-338 293 87 20" style="enable-background:new -338 293 87 20;" xml:space="preserve">
<style type="text/css">
	.st0{fill:#00435A;}
	.st1{fill:#00AEDE;}
	.st2{fill:#394D54;}
	.st3{fill:none;}
	.st4{font-family:'Exo2-Bold';}
	.st5{font-size:19px;}
	.st6{fill:#231F20;}
	.st7{fill:#497288;}
	.st8{fill:#A2B7C1;}
	.st9{fill:#466C81;}
</style>
<g>
	<path class="st9" d="M-315.5,296.6h-2.9c-0.1,0-0.3,0.1-0.3,0.3v4.8h-4.1v-4.8c0-0.1-0.1-0.3-0.3-0.3h-2.9c-0.1,0-0.3,0.1-0.3,0.3
		v12.4c0,0.1,0.1,0.3,0.3,0.3h2.9c0.1,0,0.3-0.1,0.3-0.3v-4.7h4.1v4.7c0,0.1,0.1,0.3,0.3,0.3h2.9c0.1,0,0.3-0.1,0.3-0.3v-12.4
		C-315.3,296.7-315.4,296.6-315.5,296.6z"/>
	<path class="st9" d="M-277.3,297.1h-2.9c-0.1,0-0.3,0.1-0.3,0.3v6.7l-4.1-6.9h-0.3h-2.9h-0.3l0.1,0.1c0,0-0.1,0.1-0.1,0.2v12.4
		c0,0.1,0.1,0.3,0.3,0.3h2.9c0.1,0,0.3-0.1,0.3-0.3v-6.8l4.1,6.9h0c0,0.1,0.1,0.2,0.2,0.2h2.9c0.1,0,0.2-0.1,0.2-0.2h0l0,0
		c0,0,0,0,0-0.1v-12.4C-277,297.2-277.2,297.1-277.3,297.1z"/>
	<path class="st9" d="M-292.6,296.6h-5.6c-1.7,0-3.1,1.4-3.1,3.1v7.1c0,1.7,1.4,3.1,3.1,3.1h5.6c1.7,0,3.1-1.4,3.1-3.1v-7.1
		C-289.6,298-290.9,296.6-292.6,296.6z M-293,305.9c0,0.6-0.5,1-1,1h-2.8c-0.6,0-1-0.5-1-1v-5.3c0-0.6,0.5-1,1-1h2.8
		c0.6,0,1,0.5,1,1V305.9z"/>
	<path class="st9" d="M-337.6,299.9v7.1c0,1.7,1.4,3.1,3.1,3.1l7.1-0.3v-2.7h-5.8c-0.6,0-1-0.5-1-1v-5.3c0-0.6,0.5-1,1-1h5.8v-2.7
		l-7.1-0.3C-336.2,296.8-337.6,298.2-337.6,299.9z"/>
	<path class="st9" d="M-267,296.6h-5.6c-1.7,0-3.1,1.4-3.1,3.1v7.1c0,1.7,1.4,3.1,3.1,3.1h5.6c1.7,0,3.1-1.4,3.1-3.1v-7.1
		C-263.9,298-265.3,296.6-267,296.6z M-267.3,305.9c0,0.6-0.5,1-1,1h-2.8c-0.6,0-1-0.5-1-1v-5.3c0-0.6,0.5-1,1-1h2.8
		c0.6,0,1,0.5,1,1V305.9z"/>
	<path class="st9" d="M-302.5,302.8v-3c0-1.7-1.4-3.1-3.1-3.1h-4.8h-0.8h-2.1c-0.1,0-0.3,0.1-0.3,0.3v12.4c0,0.1,0.1,0.3,0.3,0.3
		h2.9c0.1,0,0.3-0.1,0.3-0.3v-3.4h2.6l-0.4,0.1l2,3.8l3.8-0.1l-2.3-4.1C-303.3,305.2-302.5,304.1-302.5,302.8z M-310.1,302.9v-3.2
		c0.1,0,0.2,0,0.3,0h2.8c0.6,0,1,0.5,1,1v1.2c0,0.6-0.5,1-1,1h-2.8C-309.9,302.9-310,302.9-310.1,302.9z"/>
	<path class="st9" d="M-254,301.6h-5.5c-0.1-0.1-0.1-0.2-0.1-0.3v-1c0-0.2,0.1-0.3,0.3-0.3l6.5-0.3c0.1,0,0.2-0.1,0.2-0.2l0-2.2
		c0-0.1-0.1-0.2-0.2-0.2l-7.8-0.3c-1.5,0-2.7,1.2-2.7,2.7v2.6c0,1.5,1.2,2.7,2.7,2.7h5.3c0,0,0,0,0,0.1v1.2c0,0.2-0.1,0.3-0.3,0.3
		l-7.1,0.3c-0.1,0-0.3,0.1-0.3,0.3v2.1c0,0.1,0.1,0.3,0.3,0.3l8.6,0.3c1.4,0,2.5-1.1,2.5-2.5v-3.1
		C-251.5,302.8-252.6,301.6-254,301.6z"/>
</g>
</svg>
