<?xml version="1.0" encoding="utf-8"?>
<!-- Generator: Adobe Illustrator 21.0.2, SVG Export Plug-In . SVG Version: 6.00 Build 0)  -->
<svg version="1.1" id="Layer_1" xmlns="http://www.w3.org/2000/svg" xmlns:xlink="http://www.w3.org/1999/xlink" x="0px" y="0px"
	 viewBox="0 0 67.2 69" style="enable-background:new 0 0 67.2 69;" xml:space="preserve">
<style type="text/css">
	.st0{fill:#FFFFFF;}
	.st1{fill:#242020;}
	.st2{fill:#DE654D;}
	.st3{fill:#FFCC4E;}
	.st4{fill:#F79434;}
	.st5{fill:#272424;}
	.st6{fill:#272323;}
	.st7{fill:#282424;}
	.st8{fill:#2B2727;}
	.st9{fill:#2B2627;}
	.st10{fill:#2A2627;}
	.st11{fill:#2D2A2A;}
	.st12{fill:#2F2A2B;}
	.st13{fill:#2F2B2B;}
	.st14{fill:#2A2626;}
	.st15{fill:#322E2E;}
	.st16{fill:#262223;}
</style>
<rect class="st0" width="67.2" height="69"/>
<g>
	<path class="st1" d="M59.8,37.4c-0.4,1.7-1,3.3-1.8,4.9c-1.7-1-3.4-1.3-5.3-0.9c-1.4,0.4-2.6,1.1-3.5,2.3c-1.7,2.1-2.2,5.7,0.3,8.6
		c-1.4,1-2.9,1.9-4.5,2.6c-0.6-1.8-1.8-3.2-3.5-4c-1.3-0.6-2.6-0.8-4-0.6c-1.6,0.3-3,1.1-4.1,2.4C32.4,54,32,55.5,32,57.2
		c-1,0-4.1-0.5-5.1-0.9c0.7-1.7,0.7-3.5-0.1-5.2c-0.6-1.4-1.6-2.4-2.9-3.1c-2.6-1.4-6.2-1-8.5,1.8c-1.2-1.2-2.3-2.5-3.4-4
		c1.9-1,3.1-2.6,3.5-4.7c0.3-1.3,0.2-2.5-0.4-3.7c-1.5-3.2-4.1-4.4-7.6-4c-0.2-1.7-0.2-3.4,0-5.1c0.2,0,0.3,0,0.4,0
		c3.3,0.5,6.6-1.5,7.5-4.9c0.7-2.8-0.5-5.7-3-7.2c-0.1-0.1-0.2-0.1-0.4-0.2c0.3-0.7,2.5-3.3,3.3-4c1.2,1.5,2.7,2.4,4.6,2.5
		c1.5,0.2,2.9-0.2,4.2-1c2.4-1.5,3.9-4.7,2.5-8.1c0.7-0.4,4.3-1,5.1-0.9c0,4,2.8,6.3,5.4,6.7c3.2,0.6,6.5-1.1,7.7-4.5
		c1.6,0.7,3.1,1.6,4.5,2.6c-1.3,1.4-1.9,3.1-1.7,5c0.1,1.5,0.7,2.8,1.8,4c2,2.1,5.4,2.9,8.4,1.1c0.4,0.4,1.6,3.6,1.8,4.9
		c-2,0.3-3.7,1.3-4.8,3c-0.8,1.2-1.1,2.6-1,4C54.2,34.1,56.1,36.9,59.8,37.4z M34,39.3c1.5,3.7,5,4.7,7.6,4.2
		c2.7-0.5,4.7-2.6,5.2-5.2c0.3-1.6,0.1-3.1-0.7-4.5c-0.8-1.4-2-2.4-3.5-2.9c0.1-0.1,0.2-0.1,0.3-0.1c3-1.2,4.6-4.2,4-7.3
		c-0.7-3.6-4.2-5.9-7.7-5.2c-2.3,0.5-4,1.8-4.9,4c0,0.1-0.1,0.1-0.1,0.2c-1.1-3-4-4.6-6.8-4.3c-2.9,0.2-5.3,2.3-6,5.1
		c-0.3,1.4-0.2,2.7,0.3,4c0.7,1.8,2.1,3,3.9,3.7c-3.5,1.4-4.8,4.6-4.3,7.3c0.5,2.8,2.7,5.1,5.7,5.5C30.2,44,32.9,42.2,34,39.3z"/>
	<path class="st2" d="M38.7,8.2c-1.8,0-3.3-1.5-3.3-3.3c0-2,1.6-3.3,3.3-3.3c1.8,0,3.3,1.5,3.3,3.3C42.1,6.7,40.6,8.2,38.7,8.2z"/>
	<path class="st3" d="M12.4,21.8c0,1.7-1.3,3.3-3.3,3.3c-2.1,0-3.3-1.7-3.3-3.3c0-1.8,1.5-3.3,3.3-3.3
		C11.2,18.5,12.5,20.3,12.4,21.8z"/>
	<path class="st4" d="M24,7.9c0,1.8-1.5,3.3-3.3,3.3c-1.8,0-3.3-1.5-3.3-3.3c0-1.8,1.5-3.3,3.3-3.3C22.6,4.6,24,6.1,24,7.9z"/>
	<path class="st5" d="M50.5,60.5c0.1,0,0.1,0,0.2,0c1,0,1.9,0,2.9,0c0.4,0,0.7,0.1,1.1,0.2c0.8,0.3,1.4,0.8,1.6,1.7
		c0.2,0.8,0.2,1.6,0,2.4c-0.3,1.1-1,1.9-2.4,2c-1.1,0.1-2.2,0.1-3.3,0.1c0,0,0,0-0.1,0C50.5,64.7,50.5,62.6,50.5,60.5z M52.3,65.4
		c0.4,0,0.8,0,1.2-0.1c0.5-0.1,0.9-0.4,1-0.9c0.1-0.5,0.1-0.9,0-1.4c-0.1-0.5-0.4-0.8-0.9-0.9c-0.4-0.1-0.9-0.1-1.3-0.1
		C52.3,63.1,52.3,64.2,52.3,65.4z"/>
	<path class="st6" d="M47.8,66.8c-0.7,0-1.3,0-2,0c-0.8-2.1-1.6-4.2-2.4-6.4c0.7,0,1.4,0,2.1,0c0.4,1.4,0.8,2.7,1.2,4.1
		c0,0,0.1,0,0.1,0c0.4-1.4,0.8-2.7,1.2-4.1c0.7,0,1.3,0,2.1,0C49.4,62.6,48.6,64.7,47.8,66.8z"/>
	<path class="st7" d="M62.4,61.3c-0.3,0.4-0.5,0.8-0.8,1.3c-0.2-0.1-0.4-0.2-0.7-0.3c-0.4-0.2-0.7-0.3-1.1-0.3
		c-0.5,0-0.9,0.2-1.1,0.7c-0.3,0.7-0.3,1.4,0,2c0.2,0.5,0.7,0.8,1.2,0.7c0.5-0.1,1.1-0.4,1.6-0.6c0.2,0.4,0.5,0.8,0.8,1.2
		c-0.6,0.3-1.2,0.6-1.8,0.8c-0.6,0.1-1.1,0.2-1.7,0.1c-0.9-0.2-1.5-0.7-1.8-1.5c-0.4-1.1-0.4-2.3,0-3.4c0.4-1.1,1.4-1.6,2.6-1.6
		C60.5,60.4,61.5,60.7,62.4,61.3z"/>
	<path class="st8" d="M20.4,64.6c-1.1,0-2.2,0-3.3,0c-0.1,1,0.6,1.7,1.6,1.5c0.4-0.1,0.7-0.2,1-0.4c0.1,0,0.2-0.1,0.4-0.2
		c0.1,0.2,0.3,0.4,0.4,0.6c-0.7,0.4-1.4,0.7-2.1,0.8c-1,0.1-2.1-0.4-2.3-2c-0.1-0.5-0.1-1,0.1-1.4c0.3-1.1,1.2-1.6,2.3-1.6
		c0.2,0,0.4,0,0.6,0.1c0.7,0.2,1.1,0.6,1.3,1.3C20.5,63.7,20.5,64.1,20.4,64.6z M19.5,64c0-0.9-0.4-1.4-1.1-1.4
		c-0.8,0-1.3,0.6-1.3,1.4C17.9,64,18.7,64,19.5,64z"/>
	<path class="st9" d="M29.2,64.3c0,0.2,0,0.4-0.1,0.7c-0.2,1.1-1,1.8-2.1,1.8c-0.3,0-0.7,0-1-0.1c-0.7-0.2-1.2-0.6-1.4-1.3
		c-0.2-0.7-0.2-1.5,0-2.2c0.3-0.8,0.8-1.2,1.7-1.3c0.4-0.1,0.8-0.1,1.2,0c0.9,0.2,1.5,0.9,1.6,1.9C29.2,64,29.2,64.1,29.2,64.3z
		 M28.3,64.3c-0.1-0.3-0.1-0.6-0.2-1c-0.2-0.5-0.6-0.8-1.2-0.8c-0.6,0-1,0.3-1.2,0.8c-0.2,0.6-0.2,1.3,0,1.9
		c0.2,0.5,0.6,0.8,1.2,0.8c0.6,0,1-0.3,1.2-0.8C28.2,65,28.2,64.7,28.3,64.3z"/>
	<path class="st10" d="M43.2,66.1c-0.9,0.5-1.7,0.9-2.7,0.7c-0.8-0.1-1.3-0.6-1.6-1.4c-0.2-0.6-0.2-1.3-0.1-2
		c0.3-1.2,1.2-1.6,2.4-1.6c0.2,0,0.3,0,0.5,0.1c0.8,0.2,1.2,0.7,1.4,1.5c0.1,0.3,0.1,0.8,0,1.2c-1.1,0-2.2,0-3.3,0
		c0,0.4,0.1,0.7,0.3,1c0.3,0.5,0.8,0.6,1.4,0.5c0.3-0.1,0.6-0.2,1-0.4c0.1-0.1,0.3-0.1,0.4-0.2C42.9,65.7,43,65.8,43.2,66.1z
		 M39.7,63.9c0.8,0,1.6,0,2.4,0c0-0.9-0.3-1.4-1-1.4C40.3,62.5,39.7,63.1,39.7,63.9z"/>
	<path class="st11" d="M33.4,66.7c0-0.2,0-0.4,0-0.5c-0.3,0.2-0.5,0.3-0.8,0.4c-0.5,0.2-1,0.3-1.5,0.2c-0.5-0.1-0.8-0.4-0.9-0.8
		c0-0.2-0.1-0.3-0.1-0.5c0-1.1,0-2.2,0-3.3c0,0,0-0.1,0-0.1c0.3,0,0.6,0,0.9,0c0,0.1,0,0.2,0,0.4c0,0.9,0,1.8,0,2.7
		c0,0.1,0,0.3,0,0.4c0.1,0.5,0.3,0.7,0.8,0.6c0.5-0.1,1-0.3,1.4-0.6c0.1-0.1,0.1-0.2,0.1-0.3c0-0.9,0-1.9,0-2.8c0-0.1,0-0.2,0-0.3
		c0.3,0,0.6,0,1,0c0,1.6,0,3.1,0,4.7C34.1,66.7,33.8,66.7,33.4,66.7z"/>
	<path class="st12" d="M10.8,66.7c0-0.1,0-0.3,0-0.4c0-0.9,0-1.8,0-2.7c0-0.8-0.4-1.1-1.2-0.9c-0.2,0-0.3,0.1-0.5,0.2
		c-0.7,0.3-0.7,0.3-0.7,1.2c0,0.8,0,1.5,0,2.3c0,0.1,0,0.3,0,0.4c-0.3,0-0.6,0-1,0c0-1.6,0-3.2,0-4.8c0.3,0,0.6,0,1,0
		c0,0.2,0,0.3,0,0.6c0.1-0.1,0.3-0.2,0.4-0.2c0.6-0.3,1.1-0.5,1.8-0.4c0.7,0.1,1.1,0.5,1.1,1.2c0,0.2,0,0.4,0,0.7c0,1,0,2,0,3
		C11.5,66.7,11.1,66.7,10.8,66.7z"/>
	<path class="st13" d="M35.8,60.7c0.3-0.1,0.6-0.1,1-0.2c0,0.5,0,0.9,0,1.4c0.5,0,0.9,0,1.3,0c0,0.2,0,0.5,0,0.7c-0.4,0-0.8,0-1.3,0
		c0,0.1,0,0.2,0,0.2c0,0.8,0,1.7,0,2.5c0,0.1,0,0.1,0,0.2c0,0.3,0.1,0.4,0.4,0.4c0.3,0,0.6-0.1,0.9-0.2c0.1,0.2,0.2,0.4,0.3,0.7
		c-0.7,0.3-1.3,0.5-2,0.3c-0.3-0.1-0.5-0.4-0.6-0.7c0-0.2-0.1-0.5-0.1-0.7c0-0.7,0-1.5,0-2.2c0-0.1,0-0.3,0-0.4c-0.2,0-0.4,0-0.6,0
		c0-0.2,0-0.5,0-0.7c0.2,0,0.4,0,0.6,0C35.8,61.5,35.8,61.1,35.8,60.7z"/>
	<path class="st14" d="M15.4,65.8c0.1,0.2,0.2,0.4,0.3,0.7c-0.6,0.2-1.1,0.5-1.8,0.3c-0.4-0.1-0.7-0.4-0.8-0.8
		c0-0.2-0.1-0.4-0.1-0.6c0-0.8,0-1.5,0-2.3c0-0.1,0-0.3,0-0.4c-0.2,0-0.4,0-0.6,0c0-0.2,0-0.5,0-0.7c0.2,0,0.4,0,0.6,0
		c0-0.4,0-0.8,0-1.2c0.3-0.1,0.6-0.1,1-0.2c0,0.5,0,0.9,0,1.4c0.5,0,0.9,0,1.3,0c0,0.3,0,0.5,0,0.7c-0.4,0-0.8,0-1.3,0
		c0,0.1,0,0.2,0,0.3c0,0.8,0,1.6,0,2.3c0,0.1,0,0.1,0,0.2c0,0.4,0.2,0.6,0.6,0.5C14.9,65.9,15.2,65.8,15.4,65.8z"/>
	<path class="st15" d="M21.4,61.9c0.3,0,0.6,0,0.9,0c0,0.3,0,0.5,0,0.8c0.5-0.6,1-0.9,1.8-0.8c0,0.3,0,0.6,0,0.9
		c-0.1,0-0.2,0-0.3,0.1c-0.9,0.1-1.5,0.8-1.5,1.7c0,0.6,0,1.2,0,1.8c0,0.1,0,0.3,0,0.4c-0.3,0-0.6,0-1,0
		C21.4,65.1,21.4,63.5,21.4,61.9z"/>
	<path class="st16" d="M5.2,60.3c0.3,0,0.6,0,0.9,0c0,2.1,0,4.2,0,6.4c-0.3,0-0.6,0-0.9,0C5.2,64.6,5.2,62.5,5.2,60.3z"/>
</g>
</svg>
