<?xml version="1.0" encoding="utf-8"?>
<!-- Generator: Adobe Illustrator 19.1.0, SVG Export Plug-In . SVG Version: 6.00 Build 0)  -->
<svg version="1.1" id="Layer_1" xmlns="http://www.w3.org/2000/svg" xmlns:xlink="http://www.w3.org/1999/xlink" x="0px" y="0px"
	 viewBox="0 0 54.6 69.6" style="enable-background:new 0 0 54.6 69.6;" xml:space="preserve">
<style type="text/css">
	.st0{fill:#50BE9C;}
	.st1{fill:#8FC640;}
	.st2{fill:#6CC28A;}
	.st3{fill:#4276B9;}
	.st4{fill:#42BAEB;}
	.st5{fill:#222425;}
	.st6{fill:#5A833B;}
	.st7{fill:url(#SVGID_1_);}
	.st8{fill:url(#SVGID_2_);}
	.st9{fill:url(#SVGID_3_);}
	.st10{fill:url(#SVGID_4_);}
	.st11{fill:url(#SVGID_5_);}
	.st12{fill:url(#SVGID_6_);}
	.st13{fill:url(#SVGID_7_);}
	.st14{fill:url(#SVGID_8_);}
	.st15{fill:url(#SVGID_9_);}
	.st16{fill:#5F8C3D;}
	.st17{fill:#37573A;}
	.st18{fill:#D5D6D7;}
	.st19{fill:#848588;}
	.st20{fill:url(#SVGID_10_);}
	.st21{fill:url(#SVGID_11_);}
	.st22{fill:url(#SVGID_12_);}
	.st23{fill:url(#SVGID_13_);}
	.st24{fill:url(#SVGID_14_);}
	.st25{fill:url(#SVGID_15_);}
	.st26{fill:url(#SVGID_16_);}
	.st27{fill:url(#SVGID_17_);}
	.st28{fill:url(#SVGID_18_);}
	.st29{fill:url(#SVGID_19_);}
	.st30{fill:url(#SVGID_20_);}
	.st31{fill:url(#SVGID_21_);}
	.st32{fill:url(#SVGID_22_);}
	.st33{fill:url(#SVGID_23_);}
	.st34{fill:#E6F1FA;}
	.st35{fill:none;stroke:url(#SVGID_24_);stroke-width:3;stroke-miterlimit:10;}
	.st36{fill:#CEDCE9;}
	.st37{fill:#1A4866;}
	.st38{fill:#5DC3AF;}
	.st39{fill:#65C5B2;}
</style>
<g>
	<linearGradient id="SVGID_1_" gradientUnits="userSpaceOnUse" x1="16.8123" y1="42.9904" x2="24.1478" y2="47.2815">
		<stop  offset="0" style="stop-color:#5F8C3D"/>
		<stop  offset="1" style="stop-color:#37573A"/>
	</linearGradient>
	<path class="st7" d="M16.8,59.8l15-26l-7.2-4.2l-15,26c-0.3,0.5,1.1,1.8,3.1,3C14.7,59.7,16.5,60.3,16.8,59.8
		C16.8,59.8,16.8,59.8,16.8,59.8L16.8,59.8z"/>
	<linearGradient id="SVGID_2_" gradientUnits="userSpaceOnUse" x1="20.5288" y1="36.6795" x2="27.919" y2="41.0026">
		<stop  offset="0" style="stop-color:#D5D6D7"/>
		<stop  offset="1" style="stop-color:#848588"/>
	</linearGradient>
	<path class="st8" d="M21.5,35L20,37.7c-0.3,0.5,1.1,1.8,3.1,3c2,1.2,3.8,1.7,4.1,1.2c0,0,0,0,0,0l0,0l0.4-0.7l1.5-2.2
		C26.2,38.3,23.7,36.8,21.5,35z"/>
	<linearGradient id="SVGID_3_" gradientUnits="userSpaceOnUse" x1="10.47" y1="53.9054" x2="17.8602" y2="58.2285">
		<stop  offset="0" style="stop-color:#D5D6D7"/>
		<stop  offset="1" style="stop-color:#848588"/>
	</linearGradient>
	<path class="st9" d="M11.5,52.2L9.9,55c-0.3,0.5,1.1,1.8,3.1,3c2,1.2,3.8,1.7,4.1,1.2c0,0,0,0,0,0l0,0l0.4-0.7l1.5-2.2
		C16.2,55.5,13.6,54.1,11.5,52.2z"/>
	<path d="M11.6,17.2v-4.7H7.4c0,0-4-0.4-4,4s0,11.3,0,11.3s0.5,3.2-3.3,3.2v4.5c0,0,3.3-0.4,3.3,3.3s0,25.8,0,25.8s-0.2,4.9,4.1,4.9
		s6.6,0,6.6,0V65H9.8c0,0-2.3-0.1-2.3-2.3s0-25.8,0-25.8s0-3.7-3-3.7c0,0,3.2-0.7,3.2-3.2s0-10.7,0-10.7s0.3-2.1,2.1-2.1H11.6z"/>
	<path d="M16.4,64.9v4.7h28.4c0,0,4,0.4,4-4s0-5.3,0-5.3s-0.5-3.2,3.3-3.2v-4.5c0,0-3.3,0.4-3.3-3.3s0-3.8,0-3.8s0.2-4.9-4.1-4.9
		s-4.6,0-4.6,0v4.6h2.2c0,0,2.3,0.1,2.3,2.3s0,3.8,0,3.8s0,3.7,3,3.7c0,0-3.2,0.7-3.2,3.2s0,4.7,0,4.7s-0.3,2.1-2.1,2.1H16.4z"/>
	<g>
		
			<linearGradient id="SVGID_4_" gradientUnits="userSpaceOnUse" x1="39.7736" y1="102.6877" x2="39.7866" y2="102.6877" gradientTransform="matrix(0.8632 0.5049 -0.5049 0.8632 34.6754 -49.5161)">
			<stop  offset="0" style="stop-color:#5F8C3D"/>
			<stop  offset="1" style="stop-color:#37573A"/>
		</linearGradient>
		<path class="st10" d="M17.2,59.2L17.2,59.2C17.2,59.2,17.2,59.2,17.2,59.2L17.2,59.2z"/>
		
			<linearGradient id="SVGID_5_" gradientUnits="userSpaceOnUse" x1="31.4299" y1="103.5532" x2="39.7895" y2="103.5532" gradientTransform="matrix(0.8632 0.5049 -0.5049 0.8632 34.6754 -49.5161)">
			<stop  offset="0" style="stop-color:#58595B"/>
			<stop  offset="1" style="stop-color:#414042"/>
		</linearGradient>
		<path class="st11" d="M9.6,55.6c-0.3,0.5,1.1,1.8,3.1,3c2,1.2,3.8,1.7,4.1,1.2c0,0,0,0,0,0l0,0l0.3-0.5C16.9,59.7,15,59.2,13,58
			c-2-1.2-3.4-2.5-3.1-3"/>
	</g>
	<linearGradient id="SVGID_6_" gradientUnits="userSpaceOnUse" x1="14.6748" y1="19.9438" x2="54.5625" y2="19.9438">
		<stop  offset="0" style="stop-color:#5F8C3D"/>
		<stop  offset="1" style="stop-color:#37573A"/>
	</linearGradient>
	<circle class="st12" cx="34.6" cy="19.9" r="19.9"/>
	<radialGradient id="SVGID_7_" cx="34.6187" cy="19.9438" r="14.9438" gradientUnits="userSpaceOnUse">
		<stop  offset="0" style="stop-color:#FFFFFF"/>
		<stop  offset="1" style="stop-color:#CEDCE9"/>
	</radialGradient>
	<path class="st13" d="M34.6,34.9c-8.2,0-14.9-6.7-14.9-14.9S26.4,5,34.6,5s14.9,6.7,14.9,14.9S42.9,34.9,34.6,34.9z"/>
	<linearGradient id="SVGID_8_" gradientUnits="userSpaceOnUse" x1="26.5305" y1="28.032" x2="42.7068" y2="11.8557">
		<stop  offset="0.676" style="stop-color:#FFFFFF;stop-opacity:0"/>
		<stop  offset="1" style="stop-color:#FFFFFF"/>
	</linearGradient>
	<path class="st14" d="M34.6,31.4c-6.3,0-11.4-5.1-11.4-11.4S28.3,8.5,34.6,8.5s11.4,5.1,11.4,11.4S40.9,31.4,34.6,31.4z M34.6,11.5
		c-4.7,0-8.4,3.8-8.4,8.4s3.8,8.4,8.4,8.4s8.4-3.8,8.4-8.4S39.3,11.5,34.6,11.5z"/>
</g>
</svg>
