<?xml version="1.0" encoding="utf-8"?>
<!-- Generator: Adobe Illustrator 19.2.1, SVG Export Plug-In . SVG Version: 6.00 Build 0)  -->
<svg version="1.1" id="Layer_1" xmlns="http://www.w3.org/2000/svg" xmlns:xlink="http://www.w3.org/1999/xlink" x="0px" y="0px"
	 viewBox="0 0 595 310" style="enable-background:new 0 0 595 310;" xml:space="preserve">
<style type="text/css">
	.st0{fill:#3D3D3D;}
	.st1{fill:#0D5E8C;}
	.st2{fill:#0071BC;}
	.st3{fill:#29373C;}
	.st4{fill:#F7F9F9;}
	.st5{fill:#CCD1D3;}
	.st6{opacity:0.1;fill:#0071BC;enable-background:new    ;}
	.st7{fill:#F1C40F;}
	.st8{fill:#0075A8;}
	.st9{fill:#100F0D;}
	.st10{fill:#F68D11;}
</style>
<g>
	<path class="st9" d="M246.9,147.6c-2.3-3.1-4.7-5.7-4.7-11.5v-19.3c0-8.2,0.6-15.7-5.5-21.3c-4.8-4.6-12.6-6.2-18.7-6.2
		c-11.8,0-25,4.4-27.7,19c-0.3,1.5,0.8,2.4,1.9,2.6l12,1.3c1.1-0.1,1.9-1.2,2.2-2.3c1-5,5.2-7.4,10-7.4c2.5,0,5.5,0.9,7,3.2
		c1.7,2.5,1.5,6,1.5,9v1.6c-7.2,0.8-16.6,1.3-23.3,4.3c-7.8,3.4-13.2,10.2-13.2,20.3c0,12.9,8.1,19.3,18.6,19.3
		c8.8,0,13.6-2.1,20.5-9c2.3,3.3,3,4.8,7.1,8.3c0.9,0.5,2.1,0.4,2.9-0.3l0,0c2.5-2.2,7-6.1,9.5-8.2
		C247.9,150.1,247.7,148.8,246.9,147.6z M222.5,142.1c-2,3.5-5.1,5.6-8.6,5.6c-4.8,0-7.5-3.6-7.5-9c0-10.6,9.5-12.5,18.4-12.5v2.7
		C224.8,133.7,224.9,137.8,222.5,142.1z"/>
	<path id="path14" class="st10" d="M170.2,81l-33.7-11.2V21l33.8,10L170.2,81"/>
	<path id="path16" class="st10" d="M179,31l33.8-10l-0.1,48.7L179,81V31"/>
	<path id="path18" class="st10" d="M205.9,15.7L174.4,6l-31,9.7l31.1,8.3L205.9,15.7"/>
	<path id="path20" class="st10" d="M255.2,81l-33.7-11.2V21l33.8,10L255.2,81"/>
	<path id="path22" class="st10" d="M264,31l33.8-10l-0.1,48.7L264,81V31"/>
	<path id="path24" class="st10" d="M290.9,15.7L259.4,6l-31,9.7l31.1,8.3L290.9,15.7"/>
	<path id="path26" class="st10" d="M42.8,102.2L9,92.2V141l33.7,11.2L42.8,102.2"/>
	<path id="path28" class="st10" d="M51.5,102.2l33.8-10L85.1,141l-33.6,11.3V102.2"/>
	<path id="path30" class="st10" d="M78.4,87l-31.5-9.7l-31,9.7L47,95.3L78.4,87"/>
	<path id="path32" class="st10" d="M127.7,152.2L94,141V92.2l33.8,10L127.7,152.2"/>
	<path id="path34" class="st10" d="M136.5,102.2l33.8-10l-0.1,48.7l-33.6,11.3V102.2"/>
	<path id="path36" class="st10" d="M163.4,87l-31.5-9.7l-31,9.7l31.1,8.3L163.4,87"/>
	<path id="path38" class="st10" d="M85.2,223.5l-33.7-11.2v-48.8l33.8,10L85.2,223.5"/>
	<path id="path40" class="st10" d="M94,173.5l33.8-10l-0.1,48.7L94,223.5V173.5"/>
	<path id="path42" class="st10" d="M120.9,158.2l-31.5-9.7l-31,9.7l31.1,8.3L120.9,158.2"/>
	<path id="path44" class="st9" d="M234.5,180.4l-2.5,0c-0.9,0-2.1,0.6-2.4,1.6l-7.5,26.5l-7.4-26.4c-0.2-0.8-1-1.7-2.1-1.7h-2.9
		c-1.1,0-1.8,0.9-2,1.7l-6.9,26.2l-7.2-26.3c-0.3-1-1.5-1.6-2.4-1.6l-3.6,0c-0.8,0-1.5,0.3-1.9,0.9c-0.3,0.4-0.3,0.8-0.2,1.1
		l11.1,39.1c0.2,0.8,1,1.7,2,1.7h3.5c1,0,1.8-0.7,2-1.7l6.8-26.1l7.4,26.1c0.2,0.8,0.9,1.7,2,1.7h3.5c1,0,1.8-0.7,2-1.7l10.6-39.1
		c0.1-0.4,0.1-0.8-0.2-1.1C235.9,180.7,235.2,180.4,234.5,180.4"/>
	<path id="path46" class="st9" d="M265.2,197h-18.7c0.4-5.3,3.8-10.7,9.6-10.9C262.2,186.3,265,191.6,265.2,197z M256,180.1
		c-12.7,0-18.4,11.2-18.4,21.6c0,13,7.2,21.4,18.3,21.4c7.9,0,14-4,16.6-11c0.1-0.4,0.1-0.8-0.1-1.2c-0.3-0.5-0.8-0.8-1.4-1
		l-3.5-0.7c-0.9-0.1-2,0.4-2.4,1.2c-1.7,3.9-4.8,6.1-8.7,6.2c-3.8-0.1-7.2-2.3-8.8-5.7c-1.3-2.7-1.5-5.4-1.5-8.1l25.5,0
		c0.5,0,1.1-0.2,1.5-0.6c0.3-0.3,0.5-0.7,0.5-1.1C273.5,190.9,268.8,180.1,256,180.1"/>
	<path id="path48" class="st9" d="M304.8,201.8c0,2.4-0.4,14.4-8.9,14.7c-2.8-0.1-5.7-1.8-7.3-4.3c-1.2-1.9-1.9-4.5-2.1-7.7v-7
		c0.1-5.4,3.9-11.3,9.4-11.5C304.4,186.3,304.8,199.2,304.8,201.8L304.8,201.8z M297.2,179.8h-0.7c-4.2,0-7.5,1.7-10,5.3l0-16.5
		c0-0.9-1-1.8-2-1.8h-3.7c-1,0-2,0.8-2,1.8v51.5c0,0.9,1,1.8,2,1.8l1.1,0c1,0,1.7-0.8,2-1.6l1.1-3.6c2.7,3.8,6.7,6,11,6h0.7
		c11.3,0,16.3-11,16.3-21.9c0-5.4-1.3-10.6-3.7-14.2C306.6,182.4,302,179.8,297.2,179.8"/>
	<path id="path50" class="st9" d="M353.1,200.6c-2.4-1.7-5.2-2.3-8.1-2.9l-5.5-1c-3.9-0.6-6.2-1.7-6.2-5.2c0-3.7,3.8-5.1,7-5.2
		c3.9,0.1,6.9,1.9,8.4,5c0.3,0.7,1.1,1.2,1.9,1.2c0.1,0,0.3,0,0.4,0l3.4-0.8c0.6-0.1,1.1-0.5,1.4-1c0.2-0.4,0.3-0.8,0.1-1.2
		c-2.1-6.1-7.4-9.3-15.5-9.3c-7.3,0-15.1,3.3-15.1,12.3c0,6.2,3.9,10.1,11.6,11.7l6.2,1.2c3.4,0.6,6.8,1.8,6.8,5.4
		c0,5.4-6.2,5.9-8.1,6c-4.2-0.1-9-2-10.2-6c-0.2-0.9-1.3-1.5-2.3-1.3l-3.6,0.7c-0.5,0.1-1,0.5-1.3,0.9c-0.2,0.4-0.3,0.8-0.2,1.2
		c1.9,6.6,8.3,10.6,17.1,10.7l0.2,0c7.9,0,16.4-3.4,16.4-12.9C357.8,206.3,356.1,202.8,353.1,200.6"/>
	<path id="path52" class="st9" d="M389.3,197.1h-18.8c0.4-5.3,3.8-10.7,9.6-10.9C386.4,186.3,389.2,191.7,389.3,197.1z M380.2,180.2
		c-12.7,0-18.4,11.2-18.4,21.6c0,13,7.2,21.4,18.3,21.4c7.9,0,14-4,16.6-11c0.1-0.4,0.1-0.8-0.1-1.2c-0.3-0.5-0.8-0.8-1.4-1
		l-3.5-0.7c-0.8-0.1-2,0.3-2.4,1.2c-1.7,3.9-4.8,6.1-8.7,6.2c-3.8-0.1-7.2-2.4-8.8-5.7c-1.3-2.7-1.5-5.4-1.5-8.1l25.4,0
		c0.5,0,1.1-0.2,1.5-0.6c0.3-0.3,0.5-0.7,0.5-1.1C397.6,191,393,180.2,380.2,180.2"/>
	<path id="path54" class="st9" d="M421.7,180.6c-0.5-0.1-1-0.1-1.4-0.1c-4.3,0-7.7,2.3-10.1,6.8l0-3.9c0-0.9-0.9-1.8-2-1.8h-3.2
		c-1,0-2,0.8-2,1.8l0,37.7c0,0.9,0.9,1.8,2,1.8l3.7,0c1,0,2.1-0.8,2.1-1.8l0-19c0-3.1,0.3-5.5,1.8-8.3c2.1-4,5.1-5.9,9.1-6
		c1,0,1.9-0.9,1.9-1.9v-3.5C423.5,181.6,422.7,180.8,421.7,180.6"/>
	<path id="path56" class="st9" d="M460.6,179.9l-2.9,0c-0.9,0-2.1,0.7-2.4,1.6l-9.5,29.8l-9.7-29.8c-0.3-1-1.5-1.7-2.4-1.7l-4.2,0
		c-0.8,0-1.5,0.3-1.9,0.9c-0.3,0.4-0.3,0.8-0.2,1.1l13.3,39.4c0.3,0.8,0.9,1.7,2,1.7h5.1c0.9,0,1.7-0.6,2-1.7l12.9-39.3
		c0.1-0.4,0.1-0.8-0.2-1.1C462.2,180.2,461.4,179.9,460.6,179.9"/>
	<path id="path58" class="st9" d="M470.3,164.8c-2.7,0-4.9,2.2-4.9,4.9c0,2.7,2.2,4.9,4.9,4.9c2.7,0,4.9-2.2,4.9-4.9
		C475.2,167,473,164.8,470.3,164.8"/>
	<path id="path60" class="st9" d="M472.3,179.7l-4,0c-1.1,0-2.1,0.9-2.1,1.9l0,40.1c0,0.5,0.2,1,0.7,1.3c0.4,0.3,0.9,0.5,1.4,0.5
		l4,0h0c1.1,0,2.1-0.9,2.1-1.8v-40.1C474.4,180.5,473.4,179.7,472.3,179.7"/>
	<path id="path62" class="st9" d="M509.8,206.8l-3.4,0c-0.9,0-1.7,0.6-2.1,1.5c-1.2,5.3-4,8-8.2,8.1c-8.2-0.2-8.8-11.7-8.8-15.2
		c0-7,2.4-14.5,9.2-14.7c4.1,0.1,7,3,7.9,7.8c0.2,1,0.9,1.7,1.9,1.8l3.6,0c1.1-0.1,1.9-0.9,1.9-1.9c-1.3-8.6-7.2-14.1-15.2-14.1
		l-0.3,0l-0.3,0c-11.6,0-16.7,10.8-16.7,21.5c0,9.8,4.4,21.3,16.7,21.3h0.6c7.8,0,13.6-5.4,15.3-14.2c0-0.4-0.1-0.8-0.4-1.2
		C511.1,207.1,510.5,206.9,509.8,206.8"/>
	<path id="path64" class="st9" d="M542.9,197.1h-18.8c0.4-5.3,3.8-10.7,9.6-10.9C540,186.3,542.8,191.7,542.9,197.1z M533.8,180.2
		c-12.7,0-18.4,11.2-18.4,21.6c0,13,7.2,21.4,18.3,21.4c7.9,0,14-4,16.6-11c0.1-0.4,0.1-0.8-0.1-1.2c-0.3-0.5-0.8-0.8-1.4-1
		l-3.5-0.7c-0.8-0.1-2,0.3-2.4,1.2c-1.7,3.9-4.8,6.1-8.7,6.2c-3.8-0.1-7.2-2.4-8.8-5.7c-1.3-2.7-1.5-5.4-1.5-8.1l25.5,0
		c0.5,0,1.1-0.2,1.5-0.6c0.3-0.3,0.5-0.7,0.5-1.1C551.2,191,546.6,180.2,533.8,180.2"/>
	<path id="path66" class="st9" d="M583.2,200.6c-2.4-1.7-5.2-2.3-8.1-2.9l-5.5-1c-3.9-0.6-6.2-1.7-6.2-5.2c0-4.7,5.9-5.1,7-5.2
		c4,0.1,6.9,1.9,8.4,5c0.3,0.7,1.1,1.2,1.9,1.2c0.1,0,0.3,0,0.4,0l3.4-0.8c0.6-0.1,1.1-0.5,1.4-1c0.2-0.4,0.3-0.8,0.1-1.2
		c-2.1-6.1-7.4-9.3-15.5-9.3c-7.3,0-15.1,3.3-15.1,12.3c0,6.2,3.9,10.1,11.6,11.7l6.2,1.2c3.4,0.6,6.8,1.8,6.8,5.4
		c0,5.4-6.2,5.9-8.1,6c-3.9-0.1-9-1.7-10.2-6c-0.2-0.9-1.3-1.5-2.3-1.3l-3.6,0.7c-0.5,0.1-1,0.5-1.3,0.9c-0.2,0.4-0.3,0.8-0.2,1.2
		c1.8,6.6,8.3,10.6,17.1,10.7l0.2,0c7.9,0,16.4-3.4,16.4-12.9C588,206.3,586.2,202.8,583.2,200.6"/>
	<path id="path68" class="st9" d="M419.9,102.5v-9.1c0-1.4,1.1-2.3,2.3-2.3l40.8,0c1.3,0,2.4,0.9,2.4,2.3v7.8c0,1.3-1.1,3-3.1,5.7
		l-21.1,30.2c7.8-0.2,16.1,1,23.2,5c1.6,0.9,2,2.2,2.2,3.5v9.7c0,1.3-1.5,2.9-3,2.1c-12.5-6.6-29.2-7.3-43.1,0.1
		c-1.4,0.8-2.9-0.8-2.9-2.1v-9.2c0-1.5,0-4,1.5-6.3l24.5-35.1l-21.3,0C420.9,104.8,419.9,103.9,419.9,102.5"/>
	<path id="path70" class="st9" d="M271.2,159.3h-12.4c-1.2-0.1-2.1-1-2.2-2.1l0-63.7c0-1.3,1.1-2.3,2.4-2.3l11.6,0
		c1.2,0.1,2.2,1,2.3,2.1v8.3h0.2c3-8,8.7-11.8,16.3-11.8c7.8,0,12.6,3.7,16.1,11.8c3-8,9.8-11.8,17.1-11.8c5.2,0,10.9,2.1,14.4,7
		c3.9,5.4,3.1,13.1,3.1,20l0,40.2c0,1.3-1.1,2.3-2.4,2.3h-12.4c-1.2-0.1-2.2-1.1-2.2-2.3v-33.8c0-2.7,0.2-9.4-0.3-11.9
		c-0.9-4.3-3.7-5.5-7.3-5.5c-3,0-6.1,2-7.4,5.2c-1.3,3.2-1.2,8.6-1.2,12.2V157c0,1.3-1.1,2.3-2.4,2.3H292c-1.2-0.1-2.2-1.1-2.2-2.3
		l0-33.8c0-7.1,1.2-17.5-7.6-17.5c-8.9,0-8.6,10.2-8.6,17.5l0,33.7C273.6,158.3,272.5,159.3,271.2,159.3"/>
	<path id="path72" class="st9" d="M500.5,102.9c-9.2,0-9.7,12.5-9.7,20.2c0,7.8-0.1,24.4,9.6,24.4c9.6,0,10.1-13.4,10.1-21.6
		c0-5.4-0.2-11.8-1.9-16.9C507.3,104.7,504.5,102.9,500.5,102.9z M500.4,89.9c18.4,0,28.4,15.8,28.4,35.9c0,19.4-11,34.8-28.4,34.8
		c-18.1,0-27.9-15.8-27.9-35.5C472.5,105.3,482.5,89.9,500.4,89.9"/>
	<path id="path74" class="st9" d="M552.7,159.3h-12.4c-1.2-0.1-2.2-1.1-2.2-2.3l0-63.7c0.1-1.2,1.1-2.1,2.4-2.1l11.5,0
		c1.1,0.1,2,0.8,2.2,1.8v9.7h0.2c3.5-8.7,8.3-12.9,16.9-12.9c5.6,0,11,2,14.5,7.5c3.2,5.1,3.2,13.7,3.2,19.8v40.1
		c-0.1,1.1-1.1,2-2.4,2h-12.4c-1.1-0.1-2.1-0.9-2.2-2v-34.6c0-7,0.8-17.1-7.8-17.1c-3,0-5.8,2-7.2,5.1c-1.7,3.9-2,7.8-2,12.1V157
		C555.1,158.3,554,159.3,552.7,159.3"/>
	<path class="st9" d="M409.5,147.6c-2.3-3.1-4.7-5.7-4.7-11.5v-19.3c0-8.2,0.6-15.7-5.5-21.3c-4.8-4.6-12.7-6.2-18.7-6.2
		c-11.8,0-25,4.4-27.7,19c-0.3,1.5,0.8,2.4,1.9,2.6l12,1.3c1.1-0.1,1.9-1.2,2.2-2.3c1-5,5.2-7.4,10-7.4c2.6,0,5.5,0.9,7,3.2
		c1.7,2.5,1.5,6,1.5,9v1.6c-7.2,0.8-16.6,1.3-23.3,4.3c-7.8,3.4-13.2,10.2-13.2,20.3c0,12.9,8.1,19.3,18.6,19.3
		c8.8,0,13.6-2.1,20.4-9c2.3,3.3,3,4.8,7.1,8.3c0.9,0.5,2.1,0.4,2.9-0.3l0,0c2.5-2.2,7-6.1,9.5-8.2
		C410.5,150.1,410.3,148.8,409.5,147.6z M385.1,142.1c-2,3.5-5.1,5.6-8.6,5.6c-4.8,0-7.5-3.6-7.5-9c0-10.6,9.5-12.5,18.4-12.5v2.7
		C387.4,133.7,387.5,137.8,385.1,142.1z"/>
</g>
<g>
	<path class="st10" d="M208.1,260.9c2-2,4.1-3.5,6.2-4.5c2.2-1,4.6-1.5,7.4-1.5c2,0,3.8,0.3,5.3,1c1.5,0.6,2.8,1.6,3.8,2.8
		c1,1.2,1.8,2.7,2.3,4.4s0.8,3.6,0.8,5.7v24.6h-1.4c-0.8,0-1.2-0.4-1.4-1.1l-0.5-4.9c-1,1-2.1,1.9-3.1,2.7c-1,0.8-2.1,1.5-3.2,2.1
		c-1.1,0.6-2.3,1-3.6,1.3c-1.3,0.3-2.7,0.5-4.3,0.5c-1.3,0-2.5-0.2-3.8-0.6c-1.2-0.4-2.3-1-3.2-1.7c-1-0.8-1.7-1.8-2.3-3
		c-0.6-1.2-0.9-2.7-0.9-4.4c0-1.6,0.5-3.1,1.4-4.4c0.9-1.4,2.3-2.6,4.3-3.6c2-1,4.5-1.8,7.5-2.4c3.1-0.6,6.7-1,11-1.1v-4
		c0-3.5-0.8-6.2-2.3-8.1c-1.5-1.9-3.7-2.8-6.7-2.8c-1.8,0-3.4,0.3-4.7,0.8c-1.3,0.5-2.4,1.1-3.2,1.7c-0.9,0.6-1.6,1.2-2.2,1.7
		c-0.6,0.5-1,0.8-1.4,0.8c-0.3,0-0.5-0.1-0.7-0.2c-0.2-0.1-0.3-0.3-0.5-0.5L208.1,260.9z M230.3,275.1c-3.6,0.1-6.7,0.4-9.3,0.9
		c-2.6,0.4-4.7,1-6.4,1.8c-1.7,0.8-2.9,1.7-3.7,2.7c-0.8,1.1-1.2,2.2-1.2,3.6c0,1.3,0.2,2.4,0.6,3.3c0.4,0.9,1,1.7,1.7,2.3
		c0.7,0.6,1.5,1,2.4,1.3c0.9,0.3,1.9,0.4,2.9,0.4c1.5,0,2.8-0.2,4-0.5c1.2-0.3,2.4-0.8,3.4-1.3c1.1-0.6,2-1.2,2.9-2
		c0.9-0.8,1.8-1.6,2.7-2.5V275.1z"/>
	<path class="st10" d="M245.9,293.4v-37.8h2c0.6,0,1,0.3,1.1,0.9l0.3,5.5c1.5-2.1,3.2-3.8,5.1-5.1s4-1.9,6.4-1.9
		c2.8,0,5,0.8,6.6,2.4c1.7,1.6,2.8,3.8,3.4,6.7c0.5-1.5,1.1-2.9,1.9-4c0.8-1.1,1.8-2.1,2.8-2.8c1.1-0.7,2.2-1.3,3.5-1.7
		c1.3-0.4,2.5-0.5,3.9-0.5c1.9,0,3.6,0.3,5.1,0.9c1.5,0.6,2.8,1.5,3.8,2.8c1,1.2,1.8,2.7,2.4,4.5c0.6,1.8,0.8,3.8,0.8,6.1v24.2h-3.6
		v-24.2c0-3.7-0.8-6.5-2.4-8.5c-1.6-1.9-3.9-2.9-6.8-2.9c-1.3,0-2.6,0.2-3.8,0.7c-1.2,0.5-2.3,1.2-3.2,2.1c-0.9,1-1.7,2.1-2.2,3.6
		c-0.5,1.4-0.8,3.1-0.8,4.9v24.2h-3.6v-24.2c0-3.7-0.7-6.5-2.2-8.4c-1.5-2-3.6-2.9-6.4-2.9c-2.1,0-4,0.6-5.7,1.8
		c-1.7,1.2-3.3,2.9-4.7,5.1v28.7H245.9z"/>
	<path class="st10" d="M306.1,260.9c2-2,4.1-3.5,6.2-4.5c2.2-1,4.6-1.5,7.4-1.5c2,0,3.8,0.3,5.3,1c1.5,0.6,2.8,1.6,3.8,2.8
		c1,1.2,1.8,2.7,2.3,4.4s0.8,3.6,0.8,5.7v24.6h-1.4c-0.8,0-1.2-0.4-1.4-1.1l-0.5-4.9c-1,1-2.1,1.9-3.1,2.7c-1,0.8-2.1,1.5-3.2,2.1
		c-1.1,0.6-2.3,1-3.6,1.3c-1.3,0.3-2.7,0.5-4.3,0.5c-1.3,0-2.5-0.2-3.8-0.6c-1.2-0.4-2.3-1-3.2-1.7c-1-0.8-1.7-1.8-2.3-3
		c-0.6-1.2-0.9-2.7-0.9-4.4c0-1.6,0.5-3.1,1.4-4.4c0.9-1.4,2.3-2.6,4.3-3.6c2-1,4.5-1.8,7.5-2.4c3.1-0.6,6.7-1,11-1.1v-4
		c0-3.5-0.8-6.2-2.3-8.1c-1.5-1.9-3.7-2.8-6.7-2.8c-1.8,0-3.4,0.3-4.7,0.8c-1.3,0.5-2.4,1.1-3.2,1.7c-0.9,0.6-1.6,1.2-2.2,1.7
		c-0.6,0.5-1,0.8-1.4,0.8c-0.3,0-0.5-0.1-0.7-0.2c-0.2-0.1-0.3-0.3-0.5-0.5L306.1,260.9z M328.3,275.1c-3.6,0.1-6.7,0.4-9.3,0.9
		c-2.6,0.4-4.7,1-6.4,1.8c-1.7,0.8-2.9,1.7-3.7,2.7c-0.8,1.1-1.2,2.2-1.2,3.6c0,1.3,0.2,2.4,0.6,3.3c0.4,0.9,1,1.7,1.7,2.3
		c0.7,0.6,1.5,1,2.4,1.3c0.9,0.3,1.9,0.4,2.9,0.4c1.5,0,2.8-0.2,4-0.5c1.2-0.3,2.4-0.8,3.4-1.3c1.1-0.6,2-1.2,2.9-2
		c0.9-0.8,1.8-1.6,2.7-2.5V275.1z"/>
	<path class="st10" d="M368.7,255.6v1.5c0,0.5-0.2,1-0.5,1.4l-23.7,32h23.3v2.8h-27.6v-1.4c0-0.4,0.2-0.9,0.6-1.4l23.8-32.1h-23.1
		v-2.8H368.7z"/>
	<path class="st10" d="M391.8,254.9c2.7,0,5.1,0.5,7.3,1.4c2.1,0.9,3.9,2.2,5.4,3.9c1.5,1.7,2.6,3.7,3.4,6.1c0.8,2.4,1.2,5.1,1.2,8
		s-0.4,5.6-1.2,8c-0.8,2.4-1.9,4.4-3.4,6.1c-1.5,1.7-3.3,3-5.4,3.9c-2.1,0.9-4.6,1.4-7.3,1.4c-2.7,0-5.1-0.5-7.3-1.4s-4-2.2-5.4-3.9
		c-1.5-1.7-2.6-3.7-3.4-6.1c-0.8-2.4-1.2-5.1-1.2-8s0.4-5.6,1.2-8c0.8-2.4,1.9-4.4,3.4-6.1c1.5-1.7,3.3-3,5.4-3.9
		C386.7,255.4,389.1,254.9,391.8,254.9z M391.8,291c2.3,0,4.2-0.4,5.9-1.2c1.7-0.8,3.1-1.9,4.2-3.3c1.1-1.4,2-3.2,2.5-5.2
		c0.6-2,0.8-4.3,0.8-6.9c0-2.5-0.3-4.8-0.8-6.8c-0.6-2.1-1.4-3.8-2.5-5.3c-1.1-1.5-2.5-2.6-4.2-3.4c-1.7-0.8-3.7-1.2-5.9-1.2
		c-2.3,0-4.2,0.4-5.9,1.2s-3.1,1.9-4.2,3.4c-1.1,1.5-2,3.2-2.5,5.3c-0.6,2.1-0.9,4.3-0.9,6.8c0,2.5,0.3,4.8,0.9,6.9
		c0.6,2,1.4,3.8,2.5,5.2c1.1,1.4,2.5,2.6,4.2,3.3S389.6,291,391.8,291z"/>
	<path class="st10" d="M422.7,262.2c1.7-2.2,3.8-3.9,6.1-5.2c2.3-1.3,4.8-2,7.7-2c2.1,0,3.9,0.3,5.5,1c1.6,0.7,2.9,1.6,3.9,2.8
		c1,1.2,1.8,2.7,2.4,4.5c0.5,1.7,0.8,3.7,0.8,5.9v24.2h-3.6v-24.2c0-3.5-0.8-6.3-2.4-8.3c-1.6-2-4.1-3-7.4-3c-2.5,0-4.8,0.6-6.9,1.9
		c-2.1,1.3-4,3-5.7,5.2v28.4h-3.6v-37.8h2c0.6,0,1,0.3,1.1,0.9L422.7,262.2z"/>
	<path class="st10" d="M483,273v0.7c0,2.8,0.3,5.3,1,7.5c0.7,2.2,1.6,4,2.8,5.4c1.2,1.5,2.7,2.6,4.4,3.3c1.7,0.7,3.6,1.1,5.8,1.1
		c1.9,0,3.5-0.2,4.9-0.6c1.4-0.4,2.6-0.9,3.5-1.4s1.7-1,2.3-1.4s1-0.6,1.2-0.6c0.3,0,0.6,0.1,0.8,0.4l1,1.2
		c-0.6,0.8-1.4,1.5-2.4,2.1c-1,0.7-2.1,1.2-3.3,1.7s-2.5,0.8-4,1.1c-1.4,0.3-2.8,0.4-4.2,0.4c-2.6,0-4.9-0.5-7.1-1.3
		c-2.1-0.9-4-2.2-5.5-3.9c-1.5-1.7-2.7-3.8-3.5-6.3c-0.8-2.5-1.2-5.4-1.2-8.6c0-2.7,0.4-5.2,1.2-7.5c0.8-2.3,1.9-4.3,3.3-5.9
		c1.5-1.7,3.2-3,5.4-3.9c2.1-0.9,4.5-1.4,7.2-1.4c2.1,0,4.1,0.4,5.9,1.1c1.8,0.7,3.4,1.8,4.8,3.2c1.3,1.4,2.4,3.1,3.2,5.2
		c0.8,2.1,1.2,4.4,1.2,7.1c0,0.6-0.1,0.9-0.2,1.1c-0.2,0.2-0.4,0.3-0.8,0.3H483z M508.2,270.6c0-2-0.3-3.8-0.9-5.5
		c-0.6-1.6-1.4-3-2.4-4.1c-1-1.1-2.3-2-3.7-2.6c-1.4-0.6-3-0.9-4.7-0.9c-2,0-3.7,0.3-5.2,0.9c-1.5,0.6-2.9,1.5-4,2.6
		c-1.1,1.1-2,2.5-2.7,4.1s-1.1,3.4-1.4,5.4H508.2z"/>
	<path class="st10" d="M523.4,293.4v-33.9l-5.3-0.3c-0.7-0.1-1.1-0.4-1.1-1v-1.5h6.4v-4.8c0-2.2,0.3-4,0.8-5.7
		c0.6-1.6,1.3-3,2.4-4.1c1-1.1,2.2-1.9,3.6-2.5c1.4-0.5,3-0.8,4.7-0.8c0.8,0,1.6,0.1,2.4,0.2c0.8,0.1,1.5,0.3,2.1,0.6l-0.1,1.7
		c-0.1,0.2-0.2,0.4-0.3,0.4c-0.2,0.1-0.4,0.1-0.7,0.1c-0.3,0-0.7-0.1-1.2-0.1c-0.5-0.1-1-0.1-1.7-0.1c-1.2,0-2.4,0.2-3.4,0.6
		c-1.1,0.4-2,1-2.7,1.8c-0.8,0.8-1.3,1.9-1.8,3.2c-0.4,1.3-0.6,2.9-0.6,4.8v4.7h12.3v2.7H527v33.9H523.4z"/>
	<path class="st10" d="M567.8,260.2c-0.2,0.4-0.5,0.5-0.9,0.5c-0.3,0-0.6-0.2-1.1-0.5c-0.4-0.3-1-0.7-1.7-1.1
		c-0.7-0.4-1.6-0.7-2.7-1.1c-1.1-0.3-2.4-0.5-3.9-0.5c-1.4,0-2.6,0.2-3.7,0.6s-2.1,0.9-2.9,1.6c-0.8,0.7-1.4,1.4-1.8,2.3
		c-0.4,0.9-0.6,1.8-0.6,2.8c0,1.2,0.3,2.2,0.9,3c0.6,0.8,1.4,1.5,2.4,2c1,0.6,2.1,1,3.4,1.4c1.3,0.4,2.6,0.8,3.9,1.2
		c1.3,0.4,2.6,0.9,3.9,1.3c1.3,0.5,2.4,1.1,3.4,1.8c1,0.7,1.8,1.6,2.4,2.7c0.6,1.1,0.9,2.4,0.9,3.9c0,1.6-0.3,3.2-0.9,4.6
		c-0.6,1.4-1.4,2.6-2.6,3.7c-1.1,1-2.5,1.9-4.2,2.5c-1.6,0.6-3.5,0.9-5.7,0.9c-2.7,0-5-0.4-6.9-1.3c-1.9-0.8-3.6-2-5.2-3.3l0.8-1.3
		c0.1-0.2,0.3-0.4,0.4-0.5c0.2-0.1,0.4-0.2,0.7-0.2c0.3,0,0.7,0.2,1.2,0.6c0.5,0.4,1.1,0.8,1.9,1.3c0.8,0.5,1.8,0.9,2.9,1.3
		c1.2,0.4,2.6,0.6,4.3,0.6c1.6,0,3-0.2,4.2-0.7s2.2-1,3-1.8c0.8-0.8,1.4-1.7,1.8-2.7c0.4-1,0.6-2.1,0.6-3.2c0-1.3-0.3-2.3-0.9-3.2
		c-0.6-0.8-1.4-1.5-2.4-2.1c-1-0.6-2.1-1.1-3.4-1.5s-2.5-0.8-3.9-1.2c-1.3-0.4-2.6-0.8-3.9-1.3s-2.4-1.1-3.4-1.8
		c-1-0.7-1.8-1.6-2.4-2.7s-0.9-2.4-0.9-3.9c0-1.3,0.3-2.6,0.9-3.9c0.6-1.2,1.4-2.3,2.5-3.3c1.1-0.9,2.4-1.7,3.9-2.2
		c1.5-0.6,3.3-0.8,5.2-0.8c2.3,0,4.4,0.3,6.1,1c1.8,0.7,3.4,1.7,4.9,3L567.8,260.2z"/>
</g>
</svg>
