<?xml version="1.0" encoding="utf-8"?>
<!-- Generator: Adobe Illustrator 21.1.0, SVG Export Plug-In . SVG Version: 6.00 Build 0)  -->
<svg version="1.1" id="Layer_1" xmlns="http://www.w3.org/2000/svg" xmlns:xlink="http://www.w3.org/1999/xlink" x="0px" y="0px"
	 viewBox="0 0 550 250" style="enable-background:new 0 0 550 250;" xml:space="preserve">
<style type="text/css">
	.st0{fill:none;}
	.st1{enable-background:new    ;}
	.st2{fill:#FED10A;}
	.st3{fill:#353535;}
	.st4{fill:#00BFB3;}
	.st5{fill:#019B8F;}
</style>
<g>
	<rect x="207" y="102.5" class="st0" width="221" height="41"/>
	<g class="st1">
		<path d="M216.4,139h-5.5v-36.5h5.5V139z"/>
		<path d="M247.3,126c0,4.2-1.1,7.5-3.3,9.9s-5.2,3.6-9.1,3.6c-2.4,0-4.6-0.5-6.4-1.6s-3.3-2.7-4.3-4.7s-1.5-4.4-1.5-7.1
			c0-4.2,1.1-7.5,3.2-9.8s5.2-3.5,9.1-3.5c3.8,0,6.7,1.2,8.9,3.6S247.3,121.9,247.3,126z M228.4,126c0,6,2.2,9,6.6,9
			c4.4,0,6.6-3,6.6-9c0-5.9-2.2-8.9-6.6-8.9c-2.3,0-4,0.8-5,2.3S228.4,123.1,228.4,126z"/>
		<path d="M275.5,113.1v3l-4.4,0.8c0.4,0.5,0.7,1.2,1,2s0.4,1.6,0.4,2.5c0,2.7-0.9,4.8-2.8,6.3c-1.8,1.5-4.4,2.3-7.6,2.3
			c-0.8,0-1.6-0.1-2.2-0.2c-1.2,0.7-1.8,1.6-1.8,2.6c0,0.6,0.3,1,0.8,1.3s1.6,0.4,3.1,0.4h4.5c2.9,0,5,0.6,6.5,1.8s2.2,3,2.2,5.3
			c0,2.9-1.2,5.2-3.6,6.8s-5.9,2.4-10.5,2.4c-3.5,0-6.2-0.6-8.1-1.9s-2.8-3-2.8-5.3c0-1.6,0.5-2.9,1.5-4s2.4-1.8,4.2-2.3
			c-0.7-0.3-1.3-0.8-1.8-1.5s-0.7-1.4-0.7-2.2c0-1,0.3-1.8,0.8-2.5s1.4-1.3,2.4-2c-1.3-0.6-2.4-1.5-3.3-2.8s-1.3-2.8-1.3-4.6
			c0-2.8,0.9-5,2.7-6.5s4.3-2.3,7.6-2.3c0.7,0,1.5,0.1,2.3,0.2s1.4,0.2,1.8,0.3H275.5z M255.2,143c0,1.2,0.5,2.1,1.6,2.7
			s2.6,1,4.5,1c3,0,5.2-0.4,6.7-1.3s2.2-2,2.2-3.4c0-1.1-0.4-1.9-1.2-2.4s-2.3-0.7-4.5-0.7h-4.2c-1.6,0-2.8,0.4-3.8,1.1
			S255.2,141.7,255.2,143z M257.5,121.4c0,1.6,0.4,2.9,1.3,3.8s2,1.3,3.6,1.3c3.2,0,4.8-1.7,4.8-5.1c0-1.7-0.4-3-1.2-3.9
			s-2-1.4-3.6-1.4c-1.6,0-2.8,0.5-3.6,1.4S257.5,119.7,257.5,121.4z"/>
		<path d="M297.8,131.6c0,2.5-0.9,4.5-2.8,5.8s-4.5,2-7.9,2c-3.5,0-6.2-0.5-8.3-1.6v-4.8c3,1.4,5.9,2.1,8.5,2.1c3.4,0,5.1-1,5.1-3.1
			c0-0.7-0.2-1.2-0.6-1.6s-1-0.9-1.9-1.4s-2.1-1-3.6-1.6c-3-1.2-5-2.3-6.1-3.5s-1.6-2.7-1.6-4.5c0-2.2,0.9-3.9,2.7-5.2
			s4.2-1.8,7.3-1.8c3,0,5.9,0.6,8.6,1.9l-1.8,4.1c-2.8-1.2-5.1-1.7-7.1-1.7c-2.9,0-4.4,0.8-4.4,2.5c0,0.8,0.4,1.5,1.1,2.1
			s2.4,1.3,5,2.3c2.1,0.8,3.7,1.6,4.7,2.3s1.7,1.5,2.2,2.4C297.5,129.3,297.8,130.3,297.8,131.6z"/>
		<path d="M313.4,135c1.3,0,2.7-0.2,4-0.6v4.1c-0.6,0.3-1.4,0.5-2.4,0.7s-2,0.3-3,0.3c-5.2,0-7.8-2.8-7.8-8.2v-14h-3.5v-2.4l3.8-2
			l1.9-5.5h3.4v5.8h7.4v4.2h-7.4v13.9c0,1.3,0.3,2.3,1,2.9S312.3,135,313.4,135z"/>
		<path d="M338.8,139l-1.1-3.6h-0.2c-1.2,1.6-2.5,2.7-3.8,3.2s-2.9,0.9-4.9,0.9c-2.5,0-4.5-0.7-6-2.1s-2.1-3.3-2.1-5.8
			c0-2.7,1-4.7,3-6s5-2.1,9.1-2.2l4.5-0.1v-1.4c0-1.7-0.4-2.9-1.2-3.7s-2-1.2-3.6-1.2c-1.3,0-2.6,0.2-3.8,0.6s-2.4,0.9-3.5,1.4
			l-1.8-3.9c1.4-0.7,2.9-1.3,4.6-1.7s3.2-0.6,4.7-0.6c3.3,0,5.8,0.7,7.5,2.2s2.5,3.7,2.5,6.8V139H338.8z M330.6,135.2
			c2,0,3.6-0.6,4.8-1.7s1.8-2.7,1.8-4.7v-2.2l-3.3,0.1c-2.6,0.1-4.5,0.5-5.7,1.3c-1.2,0.8-1.8,2-1.8,3.6c0,1.2,0.3,2.1,1,2.7
			S329.2,135.2,330.6,135.2z"/>
		<path d="M367.8,131.6c0,2.5-0.9,4.5-2.8,5.8s-4.5,2-7.9,2c-3.5,0-6.2-0.5-8.3-1.6v-4.8c3,1.4,5.9,2.1,8.5,2.1c3.4,0,5.1-1,5.1-3.1
			c0-0.7-0.2-1.2-0.6-1.6s-1-0.9-1.9-1.4s-2.1-1-3.6-1.6c-3-1.2-5-2.3-6.1-3.5s-1.6-2.7-1.6-4.5c0-2.2,0.9-3.9,2.7-5.2
			s4.2-1.8,7.3-1.8c3,0,5.9,0.6,8.6,1.9l-1.8,4.1c-2.8-1.2-5.1-1.7-7.1-1.7c-2.9,0-4.4,0.8-4.4,2.5c0,0.8,0.4,1.5,1.1,2.1
			s2.4,1.3,5,2.3c2.1,0.8,3.7,1.6,4.7,2.3s1.7,1.5,2.2,2.4C367.6,129.3,367.8,130.3,367.8,131.6z"/>
		<path d="M396.6,139h-5.5V123c0-2-0.4-3.5-1.2-4.5s-2.1-1.5-3.8-1.5c-2.3,0-4,0.7-5.1,2.1s-1.6,3.7-1.6,6.9V139h-5.5v-36.5h5.5v9.3
			c0,1.5-0.1,3.1-0.3,4.8h0.4c0.8-1.2,1.8-2.2,3.1-2.9s2.9-1,4.7-1c6.3,0,9.4,3.2,9.4,9.5V139z"/>
	</g>
	<g id="Logstash_3_">
		<g>
			<path class="st2" d="M133,87.5h-12v44h36v-20C157,98.7,145.8,87.5,133,87.5z"/>
			<path class="st3" d="M121,136.5c0,17.4,18.6,31,36,31v-36h-36V136.5z"/>
		</g>
		<g>
			<rect x="165" y="131.5" class="st4" width="24" height="36"/>
			<rect x="157" y="131.5" class="st5" width="8" height="36"/>
		</g>
	</g>
</g>
</svg>
