<svg xmlns="http://www.w3.org/2000/svg" width="500" height="500" viewBox="0 0 500 500"><linearGradient id="a" gradientUnits="userSpaceOnUse" x1="214.769" y1="340.925" x2="168.55" y2="315.659"><stop offset="0" stop-color="#355539"/><stop offset=".283" stop-color="#4B762E"/><stop offset="1" stop-color="#618D2E"/></linearGradient><path fill="url(#a)" d="M254.448 276.783l-24.977-11.643-22.659-15.68s-68.837 119.854-70.758 123.367c-1.922 3.514-.777 5.404.016 6.65.793 1.242 8.606 9.953 18.817 15.812 10.211 5.857 21.58 8.145 23.054 8.201 1.474.057 3.684.09 5.747-3.342 2.062-3.431 70.76-123.365 70.76-123.365z"/><linearGradient id="b" gradientUnits="userSpaceOnUse" x1="144.813" y1="369.657" x2="170.708" y2="407.761"><stop offset="0" stop-color="#5B5C5E"/><stop offset=".849" stop-color="#1C1C1C"/><stop offset="1" stop-color="#333434"/></linearGradient><path fill="url(#b)" d="M179.834 400.611c-1.516-.057-13.208-2.41-23.71-8.434-10.502-6.027-18.538-14.986-19.354-16.266-.536-.842-1.223-1.975-1.073-3.676-.702 1.232-1.148 2.021-1.279 2.26-1.928 3.525-.779 5.422.016 6.67s8.633 9.986 18.877 15.863c10.244 5.877 21.649 8.172 23.127 8.229 1.479.057 3.696.09 5.766-3.354.137-.227.573-.979 1.255-2.16-1.359.929-2.649.907-3.625.868z"/><linearGradient id="c" gradientUnits="userSpaceOnUse" x1="139.653" y1="365.568" x2="189.592" y2="395.015"><stop offset="0" stop-color="#C9CACC"/><stop offset=".189" stop-color="#D8D9DA"/><stop offset=".866" stop-color="#828487"/><stop offset=".896" stop-color="#86888B"/><stop offset=".929" stop-color="#949598"/><stop offset=".964" stop-color="#A9ABAD"/><stop offset=".999" stop-color="#C8C9CB"/><stop offset="1" stop-color="#C9CACC"/></linearGradient><path fill="url(#c)" d="M191.211 381.506c-1.529-.059-13.324-2.434-23.917-8.51-10.594-6.078-18.7-15.115-19.522-16.406-.558-.875-1.279-2.059-1.068-3.865-6.488 11.32-9.411 16.242-9.883 17.105-1.945 3.557-.786 5.471.016 6.729.803 1.26 8.709 10.074 19.042 16.002s21.837 8.244 23.329 8.301 3.729.09 5.816-3.383c.503-.836 3.379-5.637 9.793-16.811-1.354.898-2.634.873-3.606.838z"/><linearGradient id="d" gradientUnits="userSpaceOnUse" x1="199.984" y1="261.425" x2="249.626" y2="290.697"><stop offset="0" stop-color="#C9CACC"/><stop offset=".189" stop-color="#D8D9DA"/><stop offset=".866" stop-color="#828487"/><stop offset=".896" stop-color="#86888B"/><stop offset=".929" stop-color="#949598"/><stop offset=".964" stop-color="#A9ABAD"/><stop offset=".999" stop-color="#C8C9CB"/><stop offset="1" stop-color="#C9CACC"/></linearGradient><path fill="url(#d)" d="M250.937 277.166c-1.511-.059-13.167-2.404-23.635-8.41-10.469-6.004-18.479-14.936-19.292-16.211-.551-.865-1.264-2.035-1.056-3.82-6.412 11.186-10.71 18.566-11.177 19.42-1.922 3.514-.777 5.404.016 6.65.793 1.242 10.017 7.438 20.228 13.297 10.211 5.857 21.347 9.205 22.821 9.262 1.474.055 3.684.09 5.748-3.342.496-.828 3.573-6.631 9.912-17.674-1.339.887-2.605.863-3.565.828z"/><linearGradient id="e" gradientUnits="userSpaceOnUse" x1="202.972" y1="258.799" x2="262.748" y2="258.799"><stop offset="0" stop-color="#9E9E9E"/><stop offset=".866" stop-color="#828487"/></linearGradient><path opacity=".5" fill="url(#e)" d="M259.184 262.92c-1.511-.059-13.167-2.404-23.635-8.41-10.469-6.006-18.479-14.936-19.292-16.211-.551-.865-1.264-2.035-1.056-3.82-6.412 11.186-10.71 18.566-11.177 19.42-1.922 3.514-.777 5.404.016 6.648.793 1.244 10.016 7.439 20.228 13.297 10.211 5.857 21.347 9.207 22.822 9.262 1.473.057 3.683.092 5.746-3.342.497-.826 3.573-6.629 9.912-17.672-1.338.887-2.603.863-3.564.828z"/><path fill="#1F1F20" d="M144.594 113.464v29.266h-13.472c-6.271 0-10.917 7.664-10.917 11.845v-2.323 68.75c0 18.35-22.297 21.369-22.297 21.369s21.601 3.717 21.601 19.51v161.424c0 8.314 3.948 17.418 14.168 17.418h38.091v29.266h-54.35c-19.045 0-26.014-18.115-26.014-28.801v-172.107s-9.755-13.936-13.704-13.936h-5.11v-26.512s.845.033 3.4.033c5.561 0 15.646-3.252 15.646-23.924 0 0-.186-46.022-.186-60.35s6.548-30.928 25.189-30.928h27.955zM324.265 290.943v29.266h13.471c6.271 0 10.917 7.662 10.917 11.844v-2.322 29.926c0 18.35 22.297 21.369 22.297 21.369s-21.6 3.717-21.6 19.51v22.77c0 8.314-3.948 17.418-14.169 17.418h-176.097v29.266h192.354c19.047 0 26.014-18.115 26.014-28.801v-27.113c0-13.006 9.756-20.275 13.705-20.275h5.109v-26.512s-.846.033-3.4.033c-5.561 0-15.646-3.252-15.646-23.924 0 0 .187-7.197.187-21.525s-6.549-30.928-25.189-30.928c-18.643-.002-27.953-.002-27.953-.002z"/><linearGradient id="f" gradientUnits="userSpaceOnUse" x1="286.458" y1="285.783" x2="286.458" y2="30.012"><stop offset="0" stop-color="#48701F"/><stop offset="1" stop-color="#618D2E"/></linearGradient><circle fill="url(#f)" cx="286.458" cy="157.897" r="127.885"/><linearGradient id="g" gradientUnits="userSpaceOnUse" x1="286.458" y1="261.44" x2="286.458" y2="30.519"><stop offset="0" stop-color="#59812D"/><stop offset="1" stop-color="#618D2E"/></linearGradient><circle fill="url(#g)" cx="286.458" cy="157.897" r="125.928"/><linearGradient id="h" gradientUnits="userSpaceOnUse" x1="286.459" y1="62.71" x2="286.459" y2="253.084"><stop offset="0" stop-color="#4A752E"/><stop offset="1" stop-color="#618D2E"/></linearGradient><circle fill="url(#h)" cx="286.458" cy="157.897" r="95.188"/><radialGradient id="i" cx="327.281" cy="152.523" r="146.571" fx="282.25" fy="152.502" gradientUnits="userSpaceOnUse"><stop offset=".272" stop-color="#E5F1FA"/><stop offset=".405" stop-color="#E1EDF8"/><stop offset=".545" stop-color="#D4E3F4"/><stop offset=".645" stop-color="#D1DFEF"/><stop offset=".769" stop-color="#C9D5DF"/><stop offset=".842" stop-color="#C3CCD3"/><stop offset=".905" stop-color="#BCC5CD"/><stop offset=".998" stop-color="#A8B3BD"/><stop offset="1" stop-color="#A7B2BD"/></radialGradient><circle fill="url(#i)" cx="286.458" cy="157.897" r="92.724"/><linearGradient id="j" gradientUnits="userSpaceOnUse" x1="293.563" y1="73.376" x2="371.413" y2="187.757"><stop offset="0" stop-color="#D9E7F6"/><stop offset=".189" stop-color="#E7F2FB"/><stop offset=".545" stop-color="#F0F7FD"/><stop offset=".866" stop-color="#E5F1FA"/><stop offset=".931" stop-color="#E1EDF8"/><stop offset="1" stop-color="#D4E3F4"/></linearGradient><path fill="url(#j)" d="M287.303 112.929c1.654-.201 3.335-.316 5.041-.316 22.872 0 41.412 18.541 41.412 41.411 0 7.772-2.145 15.041-5.871 21.255l33.75 8.357c3.891-9.091 6.05-19.099 6.05-29.613 0-41.609-33.73-75.341-75.341-75.341-2.499 0-4.971.128-7.407.367l2.366 33.88z"/><linearGradient id="k" gradientUnits="userSpaceOnUse" x1="777.25" y1="87.255" x2="807.913" y2="132.375" gradientTransform="matrix(-1 0 0 -1 1023.199 313.333)"><stop offset="0" stop-color="#D9E7F6"/><stop offset=".189" stop-color="#E7F2FB"/><stop offset=".866" stop-color="#E5F1FA"/><stop offset=".931" stop-color="#E1EDF8"/><stop offset="1" stop-color="#D4E3F4"/></linearGradient><path opacity=".5" fill="url(#k)" d="M250.866 210.319c-.776.095-1.567.149-2.37.149-10.763 0-19.487-8.724-19.487-19.485 0-3.657 1.01-7.077 2.762-10.001l-15.88-3.932c-1.832 4.277-2.848 8.986-2.848 13.934 0 19.58 15.873 35.451 35.453 35.451 1.177 0 2.338-.061 3.484-.172l-1.114-15.944z"/></svg>