<?xml version="1.0" encoding="utf-8"?>
<!-- Generator: Adobe Illustrator 19.2.1, SVG Export Plug-In . SVG Version: 6.00 Build 0)  -->
<svg version="1.1" id="Layer_1" xmlns="http://www.w3.org/2000/svg" xmlns:xlink="http://www.w3.org/1999/xlink" x="0px" y="0px"
	 viewBox="0 0 100 100" style="enable-background:new 0 0 100 100;" xml:space="preserve">
<style type="text/css">
	.st0{fill:#00435A;}
	.st1{fill:#00AEDE;}
</style>
<g>
	<path class="st0" d="M63.6,56.9V43.1L51.7,50L63.6,56.9"/>
	<path class="st1" d="M62.8,41.7l-11.9-6.9v13.8L62.8,41.7"/>
	<path class="st1" d="M49.3,48.6V34.8l-12,6.9L49.3,48.6"/>
	<path class="st1" d="M48.6,33.5l-11.9-6.9v13.9L48.6,33.5"/>
	<path class="st0" d="M62.8,58.2l-11.9-6.9v13.8L62.8,58.2"/>
	<path class="st0" d="M49.3,65.2V51.4l-12,6.9L49.3,65.2"/>
	<path class="st1" d="M77.2,50l-12-6.9v13.8L77.2,50"/>
	<path class="st1" d="M35.1,40.4V26.5l-12,6.9L35.1,40.4"/>
	<path class="st0" d="M48.6,66.5l-11.9-6.9v13.8L48.6,66.5"/>
	<path class="st1" d="M35.1,73.4V59.6l-12,6.9L35.1,73.4"/>
	<path class="st0" d="M48.6,50l-11.9-6.9v13.8L48.6,50"/>
	<path class="st1" d="M63.6,40.4V26.5l-11.9,6.9L63.6,40.4"/>
	<path class="st0" d="M50.8,18.3v13.8l11.9-6.9L50.8,18.3"/>
	<path class="st0" d="M37.3,25.2l12,6.9V18.3L37.3,25.2"/>
	<path class="st0" d="M62.8,74.7l-11.9-6.9v13.8L62.8,74.7"/>
	<path class="st0" d="M49.3,81.7V67.9l-12,6.9L49.3,81.7"/>
	<path class="st1" d="M77.8,65.2V51.4l-11.9,6.9L77.8,65.2"/>
	<path class="st1" d="M35.1,56.9V43l-12,6.9L35.1,56.9"/>
	<path class="st1" d="M34.3,58.2l-12.1-6.9v13.8L34.3,58.2"/>
	<path class="st1" d="M77.8,48.6V34.8l-11.9,6.9L77.8,48.6"/>
	<path class="st1" d="M77.2,33.5l-12-6.9v13.9L77.2,33.5"/>
	<path class="st1" d="M77.2,66.5l-12-6.9v13.8L77.2,66.5"/>
	<path class="st0" d="M63.6,73.4V59.6l-11.9,6.9L63.6,73.4"/>
	<path class="st1" d="M34.3,41.7l-12.1-6.9v13.8L34.3,41.7"/>
</g>
</svg>
