<?xml version="1.0" encoding="UTF-8" standalone="no"?>
<svg
   xmlns:dc="http://purl.org/dc/elements/1.1/"
   xmlns:cc="http://creativecommons.org/ns#"
   xmlns:rdf="http://www.w3.org/1999/02/22-rdf-syntax-ns#"
   xmlns:svg="http://www.w3.org/2000/svg"
   xmlns="http://www.w3.org/2000/svg"
   xmlns:sodipodi="http://sodipodi.sourceforge.net/DTD/sodipodi-0.dtd"
   xmlns:inkscape="http://www.inkscape.org/namespaces/inkscape"
   width="354"
   height="354"
   version="1.1"
   id="svg13"
   sodipodi:docname="Logo-OVH.svg"
   inkscape:version="0.92.2 (5c3e80d, 2017-08-06)">
  <metadata
     id="metadata17">
    <rdf:RDF>
      <cc:Work
         rdf:about="">
        <dc:format>image/svg+xml</dc:format>
        <dc:type
           rdf:resource="http://purl.org/dc/dcmitype/StillImage" />
        <dc:title></dc:title>
      </cc:Work>
    </rdf:RDF>
  </metadata>
  <sodipodi:namedview
     pagecolor="#ffffff"
     bordercolor="#666666"
     borderopacity="1"
     objecttolerance="10"
     gridtolerance="10"
     guidetolerance="10"
     inkscape:pageopacity="0"
     inkscape:pageshadow="2"
     inkscape:window-width="1920"
     inkscape:window-height="1009"
     id="namedview15"
     showgrid="false"
     inkscape:zoom="1.0622592"
     inkscape:cx="-55.59374"
     inkscape:cy="118.73959"
     inkscape:window-x="0"
     inkscape:window-y="34"
     inkscape:window-maximized="1"
     inkscape:current-layer="g11" />
  <defs
     id="defs5">
    <clipPath
       id="a">
      <path
         d="M 0,283.46 H 444.793 V 0 H 0 Z"
         id="path2"
         inkscape:connector-curvature="0" />
    </clipPath>
  </defs>
  <g
     clip-path="url(#a)"
     transform="matrix(1.25,0,0,-1.25,-118.83,409.24)"
     id="g11">
    <path
       d="m 298.47189,270.01024 -14.83054,-25.7701 H 268.0674 l -18.3813,-31.89637 h 15.60167 l -11.80016,-20.48806 h 38.32124 c 9.79547,11.97279 15.67854,27.27332 15.67854,43.94854 a 69.117606,69.117606 0 0 1 -9.0155,34.20725 m -75.8953,-78.15579 h 0.0378 l -0.0189,0.034 47.61648,82.69945 h -40.28312 l -27.46106,-47.72736 -24.85658,43.18874 a 69.112566,69.112566 0 0 1 -9.03819,-34.24757 c 0,-16.67522 5.88182,-31.97449 15.67854,-43.94728 z M 111.19132,135.76302 c 0,-13.73054 6.26612,-20.27891 17.03811,-20.27891 10.77324,0 17.03936,6.54837 17.03936,20.27765 0,13.79983 -6.26612,20.34694 -17.03936,20.34694 -10.77325,0 -17.03811,-6.54711 -17.03811,-20.34694 m -4.92922,0 c 0,16.68656 8.30862,24.71294 21.96733,24.71294 13.65871,0 21.96734,-8.02638 21.96734,-24.71294 0,-16.54419 -8.30737,-24.64239 -21.96734,-24.64239 -13.65871,0 -21.96733,8.09694 -21.96733,24.64239 m 81.60196,22.74225 c 0.21042,0.56324 0.91604,1.54858 2.25293,1.54858 1.33815,0 2.39405,-1.05591 2.39405,-2.39406 0,-0.4221 -0.14112,-0.84421 -0.21168,-1.0559 l -16.47487,-43.44075 c -0.35281,-0.98661 -1.33815,-1.6204 -2.25293,-1.6204 -0.91605,0 -1.90265,0.63379 -2.25294,1.6204 l -16.47613,43.44075 c -0.0706,0.21169 -0.21168,0.6338 -0.21168,1.0559 0,1.33815 1.05716,2.39406 2.39405,2.39406 1.33815,0 2.04125,-0.98534 2.25293,-1.54984 l 14.29377,-37.87772 z m 16.40305,-24.29083 v -20.27765 c 0,-1.26632 -1.0559,-2.39405 -2.39405,-2.39405 -1.33563,0 -2.39406,1.12773 -2.39406,2.39405 v 43.723 c 0,1.26759 1.05843,2.39406 2.39406,2.39406 1.33815,0 2.39405,-1.12647 2.39405,-2.39406 v -19.07935 h 24.50126 v 19.07935 c 0,1.26759 1.05842,2.39406 2.39405,2.39406 1.33815,0 2.39405,-1.12647 2.39405,-2.39406 v -43.723 c 0,-1.26632 -1.0559,-2.39405 -2.39405,-2.39405 -1.33563,0 -2.39405,1.12773 -2.39405,2.39405 v 20.27765 z"
       id="path7"
       inkscape:connector-curvature="0"
       style="fill:#264670;stroke-width:1.2600286" />
    <path
       d="m 241.5123,114.85031 c 0,2.32476 1.26758,3.38066 3.30883,3.38066 2.04251,0 3.3101,-1.0559 3.3101,-3.38066 0,-2.32349 -1.26759,-3.30883 -3.3101,-3.30883 -2.04125,0 -3.30883,0.98534 -3.30883,3.30883 m 25.9087,30.20542 c 6.26612,0 9.71608,-3.30884 10.84129,-4.85741 0.35281,-0.49267 0.49393,-0.84548 0.49393,-1.33815 0,-1.19703 -0.91478,-2.04125 -2.04125,-2.04125 -0.70561,0 -1.19702,0.28099 -1.69096,0.84422 -1.0559,1.19703 -2.95602,3.30884 -7.60301,3.30884 -6.47654,0 -9.92776,-4.15306 -9.92776,-12.81324 0,-8.80256 3.44996,-12.88506 9.92902,-12.88506 4.08249,0 6.54585,1.82957 8.16499,3.02785 0.49393,0.35155 0.84548,0.49267 1.33815,0.49267 1.12772,0 2.0425,-0.91478 2.0425,-2.0425 0,-0.6338 -0.21168,-1.12521 -0.91478,-1.759 -1.54983,-1.26759 -4.93049,-3.80277 -10.63212,-3.80277 -9.08228,0 -14.50293,5.4219 -14.50293,16.96881 0,11.54691 5.42191,16.89699 14.50293,16.89699 m 41.53936,-16.89699 c 0,8.87061 -3.72968,12.81324 -10.20875,12.81324 -6.47654,0 -10.20875,-3.94389 -10.20875,-12.8145 0,-9.01047 3.73095,-12.8838 10.20875,-12.8838 6.47781,0 10.20875,3.87333 10.20875,12.88506 m 4.57769,0 c 0,-11.54691 -5.63233,-16.96881 -14.78644,-16.96881 -9.08354,0 -14.78517,5.4219 -14.78517,16.96881 0,11.54691 5.70163,16.89699 14.78517,16.89699 9.15285,0 14.78644,-5.35008 14.78644,-16.89699 m 55.47905,4.43405 v -18.79838 a 2.2239504,2.2239504 0 0 0 -2.25293,-2.25293 2.2239504,2.2239504 0 0 0 -2.25293,2.25293 v 17.8836 c 0,5.56176 -1.97194,9.36453 -8.80256,9.36453 -6.05317,0 -8.80004,-3.23828 -8.80004,-8.44975 v -18.79838 a 2.2239504,2.2239504 0 0 0 -2.25293,-2.25293 2.2239504,2.2239504 0 0 0 -2.25293,2.25293 v 17.8836 c 0,5.56176 -1.76026,9.36453 -8.66017,9.36453 -6.54711,0 -8.66018,-3.94389 -8.66018,-9.85722 v -17.39091 a 2.2239504,2.2239504 0 0 0 -2.25293,-2.25293 2.2239504,2.2239504 0 0 0 -2.25293,2.25293 v 28.58628 c 0,1.26633 0.98534,2.25293 2.25293,2.25293 a 2.2239504,2.2239504 0 0 0 2.25293,-2.25293 v -2.25419 c 1.19703,2.60574 4.57642,4.92923 9.15285,4.92923 5.77471,0 9.50439,-2.11181 11.19409,-4.92923 1.76152,2.74686 4.85993,4.92923 10.27931,4.92923 10.84381,0 13.30842,-6.47655 13.30842,-12.46168"
       id="path9"
       inkscape:connector-curvature="0"
       style="fill:#8a8a89;stroke-width:1.2600286" />
  </g>
</svg>
