<?xml version="1.0" encoding="UTF-8" standalone="no"?>
<svg width="535px" height="304px" viewBox="0 0 535 304" version="1.1" xmlns="http://www.w3.org/2000/svg" xmlns:xlink="http://www.w3.org/1999/xlink" xmlns:sketch="http://www.bohemiancoding.com/sketch/ns">
    <!-- Generator: Sketch 3.3.1 (12002) - http://www.bohemiancoding.com/sketch -->
    <title>ELBv1</title>
    <desc>Created with Sketch.</desc>
    <defs></defs>
    <g id="Page-1" stroke="none" stroke-width="1" fill="none" fill-rule="evenodd" sketch:type="MSPage">
        <g id="AWS-logo" sketch:type="MSLayerGroup" transform="translate(11.000000, 100.000000)">
            <g id="g10" transform="translate(257.000000, 96.278670) scale(1, -1) translate(-257.000000, -96.278670) " sketch:type="MSShapeGroup">
                <g id="g12">
                    <path d="M142.864306,126.158257 L112.991379,136.118119 L112.991379,179.277523 L142.900862,170.424312 L142.864306,126.158257" id="path14" fill="#F68D11"></path>
                    <path d="M150.655172,170.424312 L180.564655,179.277523 L180.460526,136.147999 L150.655172,126.158257 L150.655172,170.424312" id="path16" fill="#F68D11"></path>
                    <path d="M174.471983,183.950912 L146.596345,192.557339 L119.084052,183.950912 L146.636224,176.572867 L174.471983,183.950912" id="path18" fill="#F68D11"></path>
                    <path d="M218.191892,126.158257 L188.318966,136.118119 L188.318966,179.277523 L218.228448,170.424312 L218.191892,126.158257" id="path20" fill="#F68D11"></path>
                    <path d="M225.982759,170.424312 L255.892241,179.277523 L255.788112,136.147999 L225.982759,126.158257 L225.982759,170.424312" id="path22" fill="#F68D11"></path>
                    <path d="M249.799569,183.950912 L221.923931,192.557339 L194.411638,183.950912 L221.96381,176.572867 L249.799569,183.950912" id="path24" fill="#F68D11"></path>
                    <path d="M29.9094828,107.345183 L0,116.198394 L0,73.0389908 L29.8731483,63.0791284 L29.9094828,107.345183" id="path26" fill="#F68D11"></path>
                    <path d="M37.6637931,107.345183 L67.5732759,116.198394 L67.4694789,73.0679851 L37.6637931,63.0791284 L37.6637931,107.345183" id="path28" fill="#F68D11"></path>
                    <path d="M61.4806034,120.871783 L33.6048547,129.478211 L6.09267241,120.871783 L33.6451772,113.493739 L61.4806034,120.871783" id="path30" fill="#F68D11"></path>
                    <path d="M105.200734,63.0791284 L75.3275862,73.0389908 L75.3275862,116.198394 L105.237069,107.345183 L105.200734,63.0791284" id="path32" fill="#F68D11"></path>
                    <path d="M112.991379,107.345183 L142.900862,116.198394 L142.796733,73.0679851 L112.991379,63.0791284 L112.991379,107.345183" id="path34" fill="#F68D11"></path>
                    <path d="M136.80819,120.871783 L108.932441,129.478211 L81.4202586,120.871783 L108.972763,113.493739 L136.80819,120.871783" id="path36" fill="#F68D11"></path>
                    <path d="M67.5369414,0 L37.6637931,9.95986239 L37.6637931,53.1192661 L67.5732759,44.266055 L67.5369414,0" id="path38" fill="#F68D11"></path>
                    <path d="M75.3275862,44.266055 L105.237069,53.1192661 L105.133272,9.98882345 L75.3275862,0 L75.3275862,44.266055" id="path40" fill="#F68D11"></path>
                    <path d="M99.1443966,57.7926548 L71.2686478,66.3990826 L43.7564655,57.7926548 L71.3089703,50.4144994 L99.1443966,57.7926548" id="path42" fill="#F68D11"></path>
                    <path d="M199.828578,38.1518062 L197.630784,38.1440596 C196.824336,38.1440596 195.796336,37.5998085 195.543767,36.7174753 L188.876168,13.2508222 L182.281681,36.6664587 C182.083392,37.4005006 181.391043,38.1440596 180.449448,38.1440596 L177.847323,38.1440596 C176.910159,38.1440596 176.226672,37.3905407 176.037246,36.6512976 L169.902478,13.4791244 L163.563884,36.7231193 C163.31353,37.5730275 162.260052,38.1440596 161.433664,38.1440596 L158.271013,38.1495929 C157.59528,38.1495929 156.967181,37.8595396 156.630422,37.392754 C156.402224,37.0762517 156.339082,36.7174753 156.444319,36.4053997 L166.236905,1.77193698 C166.452918,1.04353794 167.084341,0.309948704 168.008211,0.309948704 L171.153138,0.309948704 C172.002789,0.309948704 172.747203,0.928550224 172.962108,1.80608825 L178.989422,24.8763056 L185.548461,1.77971674 C185.745642,1.07250122 186.380388,0.309948704 187.30869,0.309948704 L190.402659,0.309948704 C191.263388,0.309948704 191.987862,0.90736781 192.200552,1.78274897 L201.62647,36.3911239 C201.737246,36.7244472 201.672996,37.0948435 201.448121,37.4070298 C201.116901,37.8665115 200.496556,38.1518062 199.828578,38.1518062" id="path44" fill="#100F0D"></path>
                    <path d="M227.021836,23.4476187 L210.407672,23.4476187 C210.789849,28.1055143 213.817353,32.9349409 218.946276,33.1208584 C224.404203,32.9427982 226.901091,28.223926 227.021836,23.4476187 L227.021836,23.4476187 Z M218.934091,38.3994748 C207.711388,38.3994748 202.60019,28.4876411 202.60019,19.2790843 C202.60019,7.78633268 208.954293,0.360958693 218.787866,0.360958693 C225.825457,0.360958693 231.190332,3.91305287 233.507763,10.1193751 C233.631832,10.4742782 233.59306,10.8594482 233.399203,11.2048452 C233.16325,11.6241554 232.715716,11.940547 232.186207,12.0568561 L229.07119,12.6521239 C228.234832,12.7831514 227.276621,12.2881462 226.959802,11.5701508 C225.446603,8.12178085 222.688284,6.16525442 219.226539,6.06324329 C215.895509,6.16612867 212.836987,8.14296216 211.435672,11.0963933 C210.296897,13.5088933 210.128517,15.8869765 210.109685,18.3051204 L232.664759,18.312867 C233.137772,18.312867 233.627401,18.5208068 233.973022,18.8706193 C234.262147,19.1606726 234.419448,19.5211089 234.416125,19.8820986 C234.360737,28.8347976 230.265353,38.3994748 218.934091,38.3994748 L218.934091,38.3994748 Z" id="path46" fill="#100F0D"></path>
                    <path d="M262.164371,19.2237517 C262.164371,17.1034077 261.779978,6.51584157 254.250543,6.24480052 C251.727069,6.34120092 249.177009,7.82307351 247.752431,10.0139002 C246.703384,11.6708561 246.090793,13.9615138 245.933491,16.7956479 L245.933491,23.0248779 C246.056453,27.7968693 249.4185,33.0335436 254.226172,33.2362821 C261.781086,32.9384822 262.164371,21.5123068 262.164371,19.2237517 L262.164371,19.2237517 Z M255.431414,38.7207357 L254.834332,38.7207357 C251.10894,38.7207357 248.181134,37.1748544 245.933491,34.0061795 L245.930168,48.6062311 C245.930168,49.4262597 245.082733,50.1732494 244.146677,50.1732494 L240.903159,50.1732494 C240.055724,50.1732494 239.107483,49.5027294 239.105267,48.6062311 L239.105267,3.02988974 C239.108591,2.20205917 239.956026,1.44989037 240.890974,1.44989037 L241.843647,1.4550695 C242.743147,1.4550695 243.383431,2.17915149 243.599444,2.85178526 L244.614151,6.06885401 C246.971461,2.72469742 250.521828,0.76039012 254.32144,0.76039012 L254.903013,0.76039012 C264.911612,0.76039012 269.391388,10.4855218 269.391388,20.1233486 C269.391388,24.920793 268.207194,29.507863 266.14344,32.7080774 C263.758435,36.4165768 259.653082,38.7207357 255.431414,38.7207357 L255.431414,38.7207357 Z" id="path48" fill="#100F0D"></path>
                    <path d="M304.907237,20.2495069 C302.798065,21.763406 300.262405,22.2691456 297.722315,22.7758813 L292.8515,23.6780235 C289.356522,24.2520436 287.333754,25.1883813 287.333754,28.2692987 C287.333754,31.5261737 290.712418,32.7711565 293.577082,32.8485115 C297.075384,32.7603114 299.70631,31.2010396 300.983556,28.4586468 C301.287082,27.8123624 301.959491,27.3775591 302.658487,27.3775591 C302.778125,27.3775591 302.899978,27.3909495 303.015185,27.4159599 L306.054875,28.0869226 C306.551151,28.1962597 307.014194,28.5360017 307.262332,28.9778876 C307.460621,29.3284748 307.503823,29.7113761 307.385293,30.0533314 C305.525366,35.4659633 300.802991,38.3264358 293.659056,38.3264358 C287.204147,38.31216 280.306134,35.4448263 280.306134,27.4363222 C280.306134,21.9627139 283.749047,18.4867219 290.546254,17.1034077 L295.998642,16.0654794 C298.991806,15.4931193 302.052543,14.4751107 302.052543,11.2644937 C302.052543,6.51151456 296.515966,6.02692299 294.842142,5.99234014 C291.086841,6.07318102 286.835263,7.74655963 285.802832,11.2900573 C285.595681,12.0690292 284.614207,12.6201416 283.753478,12.4411961 L280.574211,11.7858372 C280.095659,11.6851319 279.658095,11.3742735 279.40331,10.9545538 C279.189513,10.6048299 279.128586,10.213186 279.227177,9.85568222 C280.867767,3.97616519 286.549461,0.430557104 294.425625,0.370900849 L294.600651,0.369603853 C301.634918,0.369603853 309.15106,3.37875052 309.15106,11.8200327 C309.15106,15.2561852 307.603522,18.3284708 304.907237,20.2495069" id="path50" fill="#100F0D"></path>
                    <path d="M337.063254,23.4134232 L320.444659,23.4134232 C320.824621,28.0756347 323.852125,32.9072747 328.981047,33.0845602 C334.436759,32.9115906 336.93697,28.1932718 337.063254,23.4134232 L337.063254,23.4134232 Z M328.972185,38.3674925 C317.747267,38.3674925 312.634961,28.4552162 312.634961,19.2471021 C312.634961,7.75520258 318.990172,0.330698417 328.824853,0.330698417 C335.863552,0.330698417 341.228427,3.88321755 343.548073,10.0882561 C343.671034,10.4435908 343.632263,10.829624 343.437297,11.1758509 C343.201345,11.5956038 342.752703,11.9121061 342.224302,12.0262018 L339.104853,12.6214696 C338.374841,12.7398813 337.35681,12.3625132 336.997897,11.5381686 C335.483591,8.09195659 332.724164,6.13543016 329.265741,6.02909203 C325.931388,6.13543016 322.873974,8.11184312 321.478198,11.0643558 C320.337207,13.4712672 320.16772,15.851453 320.151103,18.2753515 L342.703961,18.2808847 C343.173651,18.2808847 343.659957,18.4876072 344.005578,18.8350958 C344.29581,19.1264771 344.453112,19.4870241 344.449789,19.8501164 C344.397724,28.80193 340.305664,38.3674925 328.972185,38.3674925 L328.972185,38.3674925 Z" id="path52" fill="#100F0D"></path>
                    <path d="M365.747556,37.9460797 C365.307776,37.9944404 364.884612,38.0177907 364.473634,38.0177907 C360.688422,38.0177907 357.614392,35.9618538 355.480849,32.0341267 L355.488603,35.4738205 C355.48528,36.306797 354.653353,37.0386256 353.708435,37.0386256 L350.891405,37.0386256 C349.967534,37.0386256 349.152224,36.3038091 349.145578,35.46043 L349.141147,2.04730505 C349.141147,1.20867357 349.956457,0.472488125 350.886974,0.472488125 L354.173694,0.47378512 C355.028884,0.47378512 355.991526,1.14425539 355.99928,2.04730505 L356.001496,18.8926416 C356.001496,21.6704472 356.260711,23.763125 357.588914,26.2389255 C359.486504,29.7654914 362.136263,31.4955195 365.689953,31.5231858 C366.580591,31.5296044 367.362668,32.3064736 367.362668,33.1861508 L367.362668,36.3115556 C367.362668,37.1294817 366.652595,37.8474771 365.747556,37.9460797" id="path54" fill="#100F0D"></path>
                    <path d="M400.255345,38.6022133 L397.659866,38.600996 C396.846772,38.600996 395.804371,38.0177907 395.551802,37.1623492 L387.138375,10.7457619 L378.546599,37.1359002 C378.292922,38.0121468 377.248306,38.600996 376.43078,38.600996 L372.72422,38.6044266 C372.044056,38.6044266 371.386047,38.3014255 371.049289,37.8332013 C370.823306,37.5197976 370.761272,37.1644518 370.873155,36.8328991 L382.632013,1.9854875 C382.857996,1.29598836 383.457293,0.490212253 384.405534,0.490212253 L388.890849,0.490212253 C389.713914,0.490212253 390.388539,1.05002181 390.697603,1.98851972 L402.103086,36.8216112 C402.217185,37.1523893 402.156259,37.5089524 401.931384,37.8232414 C401.592409,38.2957815 400.935509,38.6022133 400.255345,38.6022133" id="path56" fill="#100F0D"></path>
                    <path d="M408.782871,51.9970109 C406.392328,51.9970109 404.448211,50.0496365 404.448211,47.6534042 C404.448211,45.2577253 406.392328,43.3111256 408.782871,43.3111256 C411.174522,43.3111256 413.120853,45.2577253 413.120853,47.6534042 C413.120853,50.0496365 411.174522,51.9970109 408.782871,51.9970109" id="path58" fill="#100F0D"></path>
                    <path d="M410.56747,38.814469 L407.008241,38.8180103 C406.04006,38.8180103 405.158284,38.0354971 405.158284,37.1778423 L405.14056,1.69975011 C405.14056,1.27049111 405.362112,0.844254375 405.745397,0.527820694 C406.096556,0.240351399 406.545198,0.0743531393 406.996056,0.0743531393 L410.580763,0.068733453 L410.582978,0.068733453 C411.56556,0.0773791669 412.428504,0.838634799 412.428504,1.69758108 L412.428504,37.1778423 C412.428504,38.0497729 411.557806,38.814469 410.56747,38.814469" id="path60" fill="#100F0D"></path>
                    <path d="M443.830138,14.7560894 L440.858022,14.7448016 C440.02831,14.7448016 439.332638,14.2468085 439.023573,13.3818498 C437.93797,8.70277282 435.478746,6.27808859 431.75003,6.1708762 C424.487565,6.38658469 423.923716,16.4990654 423.923716,19.5933733 C423.923716,25.76384 426.062797,32.422672 432.034724,32.5986296 C435.639371,32.4879644 438.261435,29.9059255 439.047944,25.6985476 C439.196384,24.8400075 439.856608,24.1902924 440.758323,24.077414 L443.938698,24.0463171 C444.889155,24.1492357 445.634677,24.8676737 445.62803,25.7586388 C444.502547,33.3621084 439.228509,38.2767471 432.179841,38.2767471 L431.936134,38.2702179 L431.660302,38.2767471 C421.409103,38.2767471 416.819659,28.7189312 416.819659,19.2471021 C416.819659,10.5628989 420.68906,0.422775132 431.602698,0.422775132 L432.12556,0.422775132 C438.998095,0.422775132 444.185728,5.23541273 445.671233,13.0385665 C445.704466,13.4104014 445.575966,13.7821256 445.312319,14.0843521 C444.971129,14.475996 444.42722,14.7270952 443.830138,14.7560894" id="path62" fill="#100F0D"></path>
                    <path d="M473.183526,23.4134232 L456.562716,23.4134232 C456.942677,28.0769627 459.971289,32.9072747 465.103534,33.0845602 C470.560353,32.9115906 473.059457,28.1932718 473.183526,23.4134232 L473.183526,23.4134232 Z M465.092457,38.3674925 C453.868647,38.3674925 448.757448,28.4552162 448.757448,19.2471021 C448.757448,7.75520258 455.112659,0.330698417 464.947341,0.330698417 C471.982716,0.330698417 477.345375,3.88105958 479.667237,10.0869502 C479.787983,10.444454 479.748103,10.8317819 479.554246,11.1758509 C479.31497,11.5987024 478.879621,11.9077901 478.342358,12.0262018 L475.227341,12.6214696 C474.494004,12.7398813 473.479297,12.3625132 473.120384,11.5381686 C471.601647,8.09195659 468.841112,6.13543016 465.383797,6.02779725 C462.050552,6.13543016 458.994246,8.11184312 457.59847,11.0643558 C456.456371,13.4748085 456.286884,15.8549943 456.269159,18.2753515 L478.824233,18.2787821 C479.298353,18.2787821 479.787983,18.4876072 480.134711,18.8385264 C480.422728,19.1316783 480.577815,19.492668 480.572276,19.8501164 C480.520211,28.80193 476.427043,38.3674925 465.092457,38.3674925 L465.092457,38.3674925 Z" id="path64" fill="#100F0D"></path>
                    <path d="M508.827875,20.2495069 C506.715379,21.7647339 504.176397,22.270031 501.640737,22.7758813 L496.769922,23.6780235 C493.278267,24.2520436 491.256608,25.1883813 491.256608,28.2692987 C491.256608,32.470258 496.475259,32.8212878 497.493289,32.8485115 C500.994914,32.7603114 503.625841,31.2010396 504.900871,28.4573188 C505.206612,27.8111451 505.881237,27.3775591 506.581341,27.3775591 C506.702086,27.3775591 506.822832,27.3909495 506.940254,27.4159599 L509.977728,28.0869226 C510.474004,28.1962597 510.93594,28.5373297 511.184078,28.9786623 C511.381259,29.3296921 511.424461,29.7113761 511.305931,30.0533314 C509.44822,35.4659633 504.724737,38.3264358 497.577478,38.3264358 C491.124784,38.31216 484.228987,35.4448263 484.228987,27.4363222 C484.228987,21.9613859 487.670793,18.4853939 494.466892,17.1034077 L499.921496,16.0654794 C502.914659,15.4931193 505.975397,14.4751107 505.975397,11.2644937 C505.975397,6.51151456 500.438819,6.02692299 498.764996,5.99234014 C495.28331,6.06669604 490.826797,7.50318486 489.726793,11.2856307 C489.525181,12.0690292 488.544815,12.6192563 487.668578,12.4411961 L484.494849,11.7858372 C484.014082,11.6838039 483.575409,11.3708429 483.320625,10.9502268 C483.109043,10.5996507 483.048116,10.2110169 483.147815,9.85568222 C484.783974,3.97616519 490.46456,0.430557104 498.341832,0.370900849 L498.516858,0.369603853 C505.552233,0.369603853 513.069483,3.37875052 513.069483,11.8200327 C513.069483,15.2583985 511.523052,18.3314587 508.827875,20.2495069" id="path66" fill="#100F0D"></path>
                    <path d="M364.136875,107.12164 L364.136875,115.178062 C364.141306,116.399805 365.069608,117.219834 366.184013,117.218727 L402.31356,117.219834 C403.466737,117.219834 404.397254,116.379885 404.397254,115.186915 L404.397254,108.278091 C404.386177,107.12164 403.408026,105.609511 401.675491,103.208189 L382.962125,76.5149828 C389.905556,76.6796525 397.256642,75.6409495 403.566435,72.0970092 C404.992121,71.2982282 405.370974,70.1128939 405.487289,68.9556686 L405.487289,60.3592007 C405.487289,59.1738664 404.188996,57.8039427 402.826453,58.5176221 C391.705664,64.338387 376.946996,64.9738263 364.647552,58.4502271 C363.392461,57.7805923 362.076444,59.129379 362.076444,60.3147133 L362.076444,68.4831284 C362.076444,69.7864318 362.10303,72.0252982 363.420155,74.0193733 L385.10453,105.092152 L366.227216,105.096468 C365.071823,105.096468 364.147953,105.917825 364.136875,107.12164" id="path68" fill="#100F0D"></path>
                    <path d="M232.346832,56.8222322 L221.352328,56.8222322 C220.307711,56.8905126 219.471353,57.6776737 219.388272,58.6815172 L219.396026,115.040837 C219.396026,116.168515 220.346483,117.069329 221.516276,117.069329 L231.753073,117.074862 C232.825384,117.015103 233.682789,116.207248 233.755901,115.182489 L233.755901,107.818498 L233.959728,107.818498 C236.624996,114.937919 241.653112,118.253446 248.423733,118.253446 C255.297375,118.253446 259.607664,114.937919 262.686125,107.818498 C265.355823,114.937919 271.407509,118.253446 277.876819,118.253446 C282.493957,118.253446 287.515427,116.358859 290.593888,112.091611 C294.08222,107.345183 293.363284,100.470997 293.363284,94.4198274 L293.356638,58.8527162 C293.356638,57.7282477 292.407289,56.8222322 291.238603,56.8222322 L280.260716,56.8222322 C279.155172,56.8905126 278.285582,57.7715178 278.285582,58.8475149 L278.285582,88.7279874 C278.285582,91.0985453 278.488302,97.0308607 277.976517,99.2822322 C277.153453,103.080702 274.689797,104.141981 271.513853,104.141981 C268.843047,104.141981 266.071435,102.363039 264.942629,99.5229289 C263.814931,96.6720843 263.91906,91.9285338 263.91906,88.7279874 L263.91906,58.8527162 C263.91906,57.7282477 262.969711,56.8222322 261.79881,56.8222322 L250.818707,56.8222322 C249.718703,56.8905126 248.846897,57.7715178 248.846897,58.8475149 L248.832496,88.7279874 C248.832496,95.0142099 249.861603,104.260835 242.065198,104.260835 C234.164664,104.260835 234.472621,95.2498159 234.472621,88.7279874 L234.465974,58.8527162 C234.470405,57.7282477 233.519948,56.8222322 232.346832,56.8222322" id="path70" fill="#100F0D"></path>
                    <path d="M435.602815,106.753789 C427.492914,106.753789 426.982237,95.725344 426.982237,88.8441858 C426.982237,81.9670115 426.880323,67.2623813 435.503116,67.2623813 C444.020672,67.2623813 444.429435,79.1221428 444.429435,86.3555482 C444.429435,91.0985453 444.226716,96.7896107 442.789953,101.29667 C441.554802,105.211892 439.09447,106.753789 435.602815,106.753789 L435.602815,106.753789 Z M435.503116,118.253446 C451.81597,118.253446 460.641483,104.260835 460.641483,86.4779438 C460.641483,69.2777041 450.889884,55.6382259 435.503116,55.6382259 C419.494897,55.6382259 410.771297,69.6347099 410.771297,87.0680103 C410.771297,104.619612 419.593487,118.253446 435.503116,118.253446 L435.503116,118.253446 Z" id="path72" fill="#100F0D"></path>
                    <path d="M481.799672,56.8222322 L470.847263,56.8222322 C469.743935,56.8905126 468.874345,57.7715178 468.874345,58.8475149 L468.858836,115.232288 C468.949672,116.25926 469.862466,117.069329 470.965793,117.069329 L481.164927,117.074862 C482.126461,117.021743 482.915185,116.368819 483.116797,115.495671 L483.116797,106.871869 L483.325056,106.871869 C486.399086,114.581577 490.711591,118.253446 498.300845,118.253446 C503.227047,118.253446 508.052444,116.479484 511.12869,111.615751 C514,107.110905 514,99.5229289 514,94.066695 L514,58.5994037 C513.877039,57.5998761 512.985293,56.8222322 511.89969,56.8222322 L500.875276,56.8222322 C499.858353,56.88841 499.040828,57.6388303 498.917866,58.5994037 L498.917866,89.2021875 C498.917866,95.3686703 499.637909,104.384006 492.042009,104.384006 C489.375634,104.384006 486.916409,102.600858 485.683474,99.8766147 C484.142582,96.4385808 483.938754,92.9997724 483.938754,89.2021875 L483.938754,58.8527162 C483.919922,57.7282477 482.969466,56.8222322 481.799672,56.8222322" id="path74" fill="#100F0D"></path>
                    <path d="M346.417168,56.9648796 C345.688263,56.3151646 344.644754,56.2718945 343.822797,56.7093538 C340.172733,59.7405826 339.51694,61.1459192 337.521866,64.0288567 C331.487905,57.8891548 327.21528,56.0475763 319.402259,56.0475763 C310.14472,56.0475763 302.94872,61.7533601 302.94872,73.1630464 C302.94872,82.074578 307.779655,88.1365929 314.668806,91.1098331 C320.632978,93.7251823 328.963323,94.2014851 335.337366,94.9169352 L335.337366,96.3413062 C335.337366,98.9545528 335.542302,102.046205 333.998086,104.30322 C332.665453,106.323744 330.094345,107.153733 327.828978,107.153733 C323.636112,107.153733 319.91072,105.006497 318.993496,100.558312 C318.807392,99.5705149 318.080703,98.5892471 317.084828,98.5416611 L306.433728,99.6945705 C305.532013,99.8968664 304.533922,100.615415 304.794246,101.986999 C307.242392,114.901399 318.913737,118.803452 329.374302,118.803452 C334.718129,118.803452 341.713625,117.378085 345.929754,113.337701 C351.27469,108.343715 350.759582,101.688756 350.759582,94.4379765 L350.759582,77.3306955 C350.759582,72.1847666 352.900879,69.9260912 354.913677,67.1526015 C355.610457,66.1522993 355.767759,64.966965 354.87269,64.2333658 C352.628371,62.3541611 348.639332,58.8958756 346.447078,56.9406439 L346.417168,56.9648796 L346.417168,56.9648796 Z M335.337366,83.7415269 C335.337366,79.4618847 335.43928,75.8929341 333.279151,72.0926932 C331.531108,68.9997133 328.752849,67.0998142 325.667741,67.0998142 C321.456043,67.0998142 318.989065,70.3077752 318.989065,75.0642735 C318.989065,84.4145923 327.388091,86.1169541 335.337366,86.1169541 L335.337366,83.7415269 L335.337366,83.7415269 Z" id="path76" fill="#100F0D"></path>
                    <path d="M202.326573,56.9648796 C201.599884,56.3151646 200.548621,56.2718945 199.726664,56.7093538 C196.076599,59.7405826 195.423022,61.1459192 193.425733,64.0288567 C187.395095,57.8891548 183.120254,56.0475763 175.302802,56.0475763 C166.048586,56.0475763 158.850371,61.7533601 158.850371,73.1630464 C158.850371,82.074578 163.685737,88.1365929 170.574888,91.1098331 C176.540168,93.7251823 184.869405,94.2014851 191.243448,94.9169352 L191.243448,96.3413062 C191.243448,98.9545528 191.450599,102.046205 189.906384,104.30322 C188.570427,106.323744 185.997103,107.153733 183.738384,107.153733 C179.545517,107.153733 175.815694,105.006497 174.901793,100.558312 C174.711259,99.5705149 173.987892,98.5892471 172.993125,98.5416611 L162.337595,99.6945705 C161.438095,99.8968664 160.438897,100.615415 160.697004,101.986999 C163.145151,114.901399 174.817603,118.803452 185.27706,118.803452 C190.627534,118.803452 197.617491,117.378085 201.834728,113.337701 C207.181879,108.343715 206.665664,101.688756 206.665664,94.4379765 L206.665664,77.3306955 C206.665664,72.1847666 208.808069,69.9260912 210.815328,67.1526015 C211.515431,66.1522993 211.673841,64.966965 210.780987,64.2333658 C208.534453,62.3541611 204.543198,58.8958756 202.352052,56.9406439 L202.326573,56.9648796 L202.326573,56.9648796 Z M191.243448,83.7415269 C191.243448,79.4618847 191.344254,75.8929341 189.188556,72.0926932 C187.441621,68.9997133 184.661147,67.0998142 181.58047,67.0998142 C177.359909,67.0998142 174.894039,70.3077752 174.894039,75.0642735 C174.894039,84.4145923 183.290849,86.1169541 191.243448,86.1169541 L191.243448,83.7415269 L191.243448,83.7415269 Z" id="path78" fill="#100F0D"></path>
                </g>
            </g>
        </g>
        <g id="Title-Vector" sketch:type="MSLayerGroup" transform="translate(11.000000, 17.000000)" fill="#F68D11">
            <path d="M26.1074219,61.8408203 C22.2369598,61.8408203 18.7335769,61.1334706 15.597168,59.71875 C12.4607591,58.3040294 9.79151492,56.2954232 7.58935547,53.6928711 C5.38719602,51.090319 3.68555288,47.9339378 2.484375,44.2236328 C1.28319712,40.5133278 0.682617188,36.3626532 0.682617188,31.7714844 C0.682617188,27.287087 1.27652401,23.2298359 2.46435547,19.5996094 C3.65218693,15.9693829 5.35383007,12.8797328 7.56933594,10.3305664 C9.78484181,7.78140001 12.4540859,5.81950557 15.5771484,4.44482422 C18.7002109,3.07014287 22.210267,2.3828125 26.1074219,2.3828125 C29.0436345,2.3828125 31.8196484,2.87662267 34.4355469,3.86425781 C37.0514454,4.85189296 39.3736878,6.20653436 41.4023437,7.92822266 C43.4309997,9.64991095 45.0992773,11.6918827 46.4072266,14.0541992 C47.7151758,16.4165157 48.5159491,18.972317 48.8095703,21.7216797 L45.6464844,21.7216797 C45.3261703,19.3994025 44.5988012,17.2373147 43.4643555,15.2353516 C42.3299097,13.2333884 40.8885179,11.5050528 39.1401367,10.050293 C37.3917556,8.59553309 35.4031687,7.44775811 33.1743164,6.60693359 C30.9454641,5.76610908 28.5898562,5.34570312 26.1074219,5.34570312 C22.717431,5.34570312 19.6544733,5.95962928 16.918457,7.1875 C14.1824407,8.41537072 11.8535252,10.1770719 9.93164062,12.4726562 C8.00975602,14.7682406 6.52832552,17.5442546 5.48730469,20.8007812 C4.44628386,24.0573079 3.92578125,27.7141724 3.92578125,31.7714844 C3.92578125,35.9355677 4.45295697,39.6858557 5.50732422,43.0224609 C6.56169147,46.3590662 8.04979508,49.2018112 9.97167969,51.5507812 C11.8935643,53.8997513 14.2224798,55.7081642 16.9584961,56.9760742 C19.6945124,58.2439842 22.7441238,58.8779297 26.1074219,58.8779297 C28.6432418,58.8779297 31.0322154,58.5175817 33.2744141,57.796875 C35.5166128,57.0761683 37.4985265,56.0418362 39.2202148,54.6938477 C40.9419031,53.3458591 42.3632756,51.7309664 43.484375,49.8491211 C44.6054744,47.9672757 45.3261703,45.865246 45.6464844,43.5429688 L48.8095703,43.5429688 C48.4892562,46.2923315 47.6951561,48.7880747 46.4272461,51.0302734 C45.1593361,53.2724721 43.5310972,55.1943279 41.5424805,56.7958984 C39.5538638,58.3974689 37.2449676,59.6386675 34.6157227,60.5195312 C31.9864777,61.400395 29.1504058,61.8408203 26.1074219,61.8408203 L26.1074219,61.8408203 Z M56.2568359,0.701171875 L59.3798828,0.701171875 L59.3798828,61 L56.2568359,61 L56.2568359,0.701171875 Z M82.6826172,58.7978516 C84.8447374,58.7978516 86.8666898,58.4375036 88.7485352,57.7167969 C90.6303805,56.9960901 92.2719656,56.0151429 93.6733398,54.7739258 C95.074714,53.5327086 96.1757772,52.0779706 96.9765625,50.409668 C97.7773478,48.7413654 98.1777344,46.9462987 98.1777344,45.0244141 L98.1777344,38.578125 L83.8037109,39.6591797 C79.6663205,39.9528009 76.5166124,40.9204019 74.3544922,42.5620117 C72.192372,44.2036215 71.1113281,46.4791521 71.1113281,49.3886719 C71.1113281,50.7500068 71.3982719,52.0112247 71.972168,53.1723633 C72.5460641,54.3335019 73.3468373,55.3277953 74.3745117,56.1552734 C75.4021861,56.9827515 76.6233653,57.6300432 78.0380859,58.097168 C79.4528066,58.5642927 81.0009682,58.7978516 82.6826172,58.7978516 L82.6826172,58.7978516 Z M82.2822266,61.5605469 C80.1734921,61.5605469 78.2449632,61.26693 76.496582,60.6796875 C74.7482009,60.092445 73.240078,59.2583062 71.972168,58.1772461 C70.704258,57.096186 69.7233108,55.8149488 69.0292969,54.3334961 C68.335283,52.8520434 67.9882812,51.2037851 67.9882812,49.3886719 C67.9882812,45.6783669 69.2828647,42.7889101 71.8720703,40.7202148 C74.461276,38.6515196 78.3049875,37.4303404 83.4033203,37.0566406 L98.1777344,35.9755859 L98.1777344,32.1318359 C98.1777344,30.263337 97.8974637,28.5817132 97.3369141,27.0869141 C96.7763644,25.5921149 95.968918,24.3375702 94.9145508,23.3232422 C93.8601835,22.3089142 92.5722732,21.5281603 91.0507812,20.980957 C89.5292893,20.4337538 87.7942806,20.1601562 85.8457031,20.1601562 C82.162091,20.1601562 79.1725375,21.0476799 76.8769531,22.8227539 C74.5813687,24.5978279 73.1666693,27.1269367 72.6328125,30.4101562 L69.6298828,30.4101562 C69.8167327,28.4081931 70.3439084,26.6064533 71.2114258,25.0048828 C72.0789431,23.4033123 73.220045,22.0286516 74.6347656,20.8808594 C76.0494862,19.7330672 77.7110907,18.8522166 79.6196289,18.2382812 C81.5281671,17.6243459 83.6168506,17.3173828 85.8857422,17.3173828 C88.2347123,17.3173828 90.3634345,17.6577114 92.2719727,18.3383789 C94.1805108,19.0190464 95.7954035,19.9866474 97.1166992,21.2412109 C98.4379949,22.4957745 99.4589808,24.0305899 100.179688,25.8457031 C100.900394,27.6608164 101.260742,29.6894419 101.260742,31.9316406 L101.260742,61 L98.2578125,61 L98.2578125,51.7109375 L98.1777344,51.7109375 C97.6438775,53.1790438 96.8631236,54.5136659 95.8354492,55.7148438 C94.8077748,56.9160216 93.5932687,57.9503537 92.1918945,58.8178711 C90.7905203,59.6853885 89.2490318,60.3593726 87.5673828,60.8398438 C85.8857338,61.3203149 84.1240326,61.5605469 82.2822266,61.5605469 L82.2822266,61.5605469 Z M109.548828,28.9287109 C109.548828,27.2203691 109.929195,25.6521881 110.689941,24.2241211 C111.450687,22.7960541 112.498366,21.5748749 113.833008,20.5605469 C115.16765,19.5462189 116.735831,18.7521188 118.537598,18.1782227 C120.339364,17.6043266 122.28124,17.3173828 124.363281,17.3173828 C126.525401,17.3173828 128.507315,17.6243459 130.309082,18.2382812 C132.110849,18.8522166 133.67903,19.7263941 135.013672,20.8608398 C136.348314,21.9952856 137.416012,23.3632732 138.216797,24.9648438 C139.017582,26.5664143 139.498046,28.3414616 139.658203,30.2900391 L136.615234,30.2900391 C136.455077,28.7952399 136.061364,27.4205792 135.434082,26.1660156 C134.8068,24.9114521 133.965988,23.8304082 132.911621,22.9228516 C131.857254,22.0152949 130.609382,21.3079452 129.167969,20.8007812 C127.726555,20.2936173 126.111663,20.0400391 124.323242,20.0400391 C122.721672,20.0400391 121.206876,20.2535786 119.778809,20.6806641 C118.350742,21.1077495 117.109543,21.7083295 116.055176,22.4824219 C115.000809,23.2565143 114.159997,24.1774035 113.532715,25.2451172 C112.905433,26.3128309 112.591797,27.5006445 112.591797,28.8085938 C112.591797,30.9440211 113.332512,32.6189718 114.813965,33.8334961 C116.295418,35.0480204 118.570948,36.0156214 121.640625,36.7363281 L128.327148,38.3779297 C130.462576,38.9117865 132.291008,39.5123665 133.8125,40.1796875 C135.333992,40.8470085 136.575191,41.6344356 137.536133,42.5419922 C138.497075,43.4495488 139.204425,44.4838809 139.658203,45.6450195 C140.111981,46.8061581 140.338867,48.1207609 140.338867,49.5888672 C140.338867,51.3772876 139.945154,53.0055265 139.157715,54.4736328 C138.370276,55.9417391 137.269213,57.202957 135.854492,58.2573242 C134.439772,59.3116915 132.758148,60.1258109 130.80957,60.699707 C128.860993,61.2736031 126.725598,61.5605469 124.40332,61.5605469 C122.081043,61.5605469 119.952321,61.2335645 118.01709,60.5795898 C116.081859,59.9256152 114.400235,59.0247453 112.972168,57.8769531 C111.544101,56.7291609 110.409672,55.3811926 109.568848,53.8330078 C108.728023,52.284823 108.254232,50.6165454 108.147461,48.828125 L111.270508,48.828125 C111.403972,50.2428456 111.824378,51.5641215 112.531738,52.7919922 C113.239099,54.0198629 114.173334,55.0875606 115.334473,55.9951172 C116.495611,56.9026738 117.850253,57.6100235 119.398438,58.1171875 C120.946622,58.6243515 122.641592,58.8779297 124.483398,58.8779297 C126.271819,58.8779297 127.94677,58.6643902 129.508301,58.2373047 C131.069832,57.8102192 132.424473,57.1962931 133.572266,56.3955078 C134.720058,55.5947226 135.620928,54.6337947 136.274902,53.5126953 C136.928877,52.391596 137.255859,51.1503974 137.255859,49.7890625 C137.255859,48.6679631 137.075685,47.6669966 136.715332,46.7861328 C136.354979,45.905269 135.774418,45.117842 134.973633,44.4238281 C134.172848,43.7298142 133.151862,43.1158881 131.910645,42.5820312 C130.669427,42.0481744 129.167978,41.5677105 127.40625,41.140625 L120.479492,39.4589844 C116.822573,38.5781206 114.086598,37.3035565 112.271484,35.6352539 C110.456371,33.9669513 109.548828,31.7314593 109.548828,28.9287109 L109.548828,28.9287109 Z M146.504883,28.9287109 C146.504883,27.2203691 146.88525,25.6521881 147.645996,24.2241211 C148.406742,22.7960541 149.45442,21.5748749 150.789062,20.5605469 C152.123705,19.5462189 153.691886,18.7521188 155.493652,18.1782227 C157.295419,17.6043266 159.237294,17.3173828 161.319336,17.3173828 C163.481456,17.3173828 165.46337,17.6243459 167.265137,18.2382812 C169.066904,18.8522166 170.635084,19.7263941 171.969727,20.8608398 C173.304369,21.9952856 174.372066,23.3632732 175.172852,24.9648438 C175.973637,26.5664143 176.454101,28.3414616 176.614258,30.2900391 L173.571289,30.2900391 C173.411132,28.7952399 173.017419,27.4205792 172.390137,26.1660156 C171.762855,24.9114521 170.922043,23.8304082 169.867676,22.9228516 C168.813309,22.0152949 167.565437,21.3079452 166.124023,20.8007812 C164.68261,20.2936173 163.067717,20.0400391 161.279297,20.0400391 C159.677726,20.0400391 158.16293,20.2535786 156.734863,20.6806641 C155.306796,21.1077495 154.065598,21.7083295 153.01123,22.4824219 C151.956863,23.2565143 151.116051,24.1774035 150.48877,25.2451172 C149.861488,26.3128309 149.547852,27.5006445 149.547852,28.8085938 C149.547852,30.9440211 150.288567,32.6189718 151.77002,33.8334961 C153.251472,35.0480204 155.527003,36.0156214 158.59668,36.7363281 L165.283203,38.3779297 C167.41863,38.9117865 169.247063,39.5123665 170.768555,40.1796875 C172.290047,40.8470085 173.531245,41.6344356 174.492188,42.5419922 C175.45313,43.4495488 176.16048,44.4838809 176.614258,45.6450195 C177.068036,46.8061581 177.294922,48.1207609 177.294922,49.5888672 C177.294922,51.3772876 176.901208,53.0055265 176.11377,54.4736328 C175.326331,55.9417391 174.225267,57.202957 172.810547,58.2573242 C171.395826,59.3116915 169.714202,60.1258109 167.765625,60.699707 C165.817048,61.2736031 163.681652,61.5605469 161.359375,61.5605469 C159.037098,61.5605469 156.908376,61.2335645 154.973145,60.5795898 C153.037914,59.9256152 151.35629,59.0247453 149.928223,57.8769531 C148.500156,56.7291609 147.365727,55.3811926 146.524902,53.8330078 C145.684078,52.284823 145.210287,50.6165454 145.103516,48.828125 L148.226562,48.828125 C148.360027,50.2428456 148.780433,51.5641215 149.487793,52.7919922 C150.195153,54.0198629 151.129389,55.0875606 152.290527,55.9951172 C153.451666,56.9026738 154.806307,57.6100235 156.354492,58.1171875 C157.902677,58.6243515 159.597647,58.8779297 161.439453,58.8779297 C163.227874,58.8779297 164.902824,58.6643902 166.464355,58.2373047 C168.025887,57.8102192 169.380528,57.1962931 170.52832,56.3955078 C171.676113,55.5947226 172.576982,54.6337947 173.230957,53.5126953 C173.884932,52.391596 174.211914,51.1503974 174.211914,49.7890625 C174.211914,48.6679631 174.03174,47.6669966 173.671387,46.7861328 C173.311033,45.905269 172.730473,45.117842 171.929688,44.4238281 C171.128902,43.7298142 170.107916,43.1158881 168.866699,42.5820312 C167.625482,42.0481744 166.124032,41.5677105 164.362305,41.140625 L157.435547,39.4589844 C153.778628,38.5781206 151.042652,37.3035565 149.227539,35.6352539 C147.412426,33.9669513 146.504883,31.7314593 146.504883,28.9287109 L146.504883,28.9287109 Z M184.862305,17.8779297 L187.985352,17.8779297 L187.985352,61 L184.862305,61 L184.862305,17.8779297 Z M186.423828,7.30761719 C185.729814,7.30761719 185.142581,7.07405833 184.662109,6.60693359 C184.181638,6.13980886 183.941406,5.55924826 183.941406,4.86523438 C183.941406,4.17122049 184.181638,3.58398678 184.662109,3.10351562 C185.142581,2.62304447 185.729814,2.3828125 186.423828,2.3828125 C187.117842,2.3828125 187.711749,2.62304447 188.205566,3.10351562 C188.699384,3.58398678 188.946289,4.17122049 188.946289,4.86523438 C188.946289,5.55924826 188.699384,6.13980886 188.205566,6.60693359 C187.711749,7.07405833 187.117842,7.30761719 186.423828,7.30761719 L186.423828,7.30761719 Z M228.865234,30.8505859 C228.54492,29.3024011 227.984379,27.8743555 227.183594,26.5664062 C226.382808,25.258457 225.368496,24.1307014 224.140625,23.1831055 C222.912754,22.2355096 221.504728,21.4947943 219.916504,20.9609375 C218.32828,20.4270807 216.599944,20.1601562 214.731445,20.1601562 C212.302397,20.1601562 210.113617,20.6139278 208.165039,21.5214844 C206.216462,22.429041 204.554857,23.7236244 203.180176,25.4052734 C201.805494,27.0869225 200.74447,29.115548 199.99707,31.4912109 C199.249671,33.8668739 198.875977,36.5227718 198.875977,39.4589844 C198.875977,42.4218898 199.249671,45.091134 199.99707,47.4667969 C200.74447,49.8424598 201.805494,51.8644122 203.180176,53.5327148 C204.554857,55.2010175 206.223135,56.4889278 208.185059,57.3964844 C210.146982,58.304041 212.342436,58.7578125 214.771484,58.7578125 C216.61329,58.7578125 218.321607,58.5109074 219.896484,58.0170898 C221.471362,57.5232723 222.866042,56.8225957 224.080566,55.9150391 C225.295091,55.0074824 226.309403,53.9130923 227.123535,52.6318359 C227.937667,51.3505795 228.504881,49.9358801 228.825195,48.3876953 L231.948242,48.3876953 C231.627928,50.3362728 230.980636,52.1179932 230.006348,53.7329102 C229.032059,55.3478271 227.797534,56.735834 226.302734,57.8969727 C224.807935,59.0581113 223.0796,59.9589812 221.117676,60.5996094 C219.155752,61.2402376 217.040376,61.5605469 214.771484,61.5605469 C211.888657,61.5605469 209.272798,61.0467174 206.923828,60.019043 C204.574858,58.9913686 202.572925,57.5166112 200.917969,55.5947266 C199.263013,53.672842 197.988448,51.3505996 197.094238,48.6279297 C196.200028,45.9052598 195.75293,42.8489753 195.75293,39.4589844 C195.75293,36.0956863 196.200028,33.0460749 197.094238,30.3100586 C197.988448,27.5740423 199.263013,25.2451268 200.917969,23.3232422 C202.572925,21.4013576 204.568185,19.9199271 206.903809,18.8789062 C209.239432,17.8378854 211.848618,17.3173828 214.731445,17.3173828 C217.053723,17.3173828 219.195791,17.6643846 221.157715,18.3583984 C223.119639,19.0524123 224.847974,20.0066671 226.342773,21.2211914 C227.837573,22.4357157 229.065425,23.8704344 230.026367,25.5253906 C230.987309,27.1803468 231.627928,28.9553942 231.948242,30.8505859 L228.865234,30.8505859 Z M289.364258,61 L255.691406,61 L255.691406,3.22363281 L289.364258,3.22363281 L289.364258,6.14648438 L258.854492,6.14648438 L258.854492,29.9296875 L287.922852,29.9296875 L287.922852,32.8125 L258.854492,32.8125 L258.854492,58.0771484 L289.364258,58.0771484 L289.364258,61 Z M331.925781,61 L298.453125,61 L298.453125,3.22363281 L301.616211,3.22363281 L301.616211,58.0771484 L331.925781,58.0771484 L331.925781,61 Z M339.453125,61 L339.453125,3.22363281 L358.912109,3.22363281 C361.421237,3.22363281 363.710113,3.56396144 365.778809,4.24462891 C367.847504,4.92529637 369.622551,5.87955115 371.104004,7.10742188 C372.585457,8.3352926 373.733232,9.8167231 374.547363,11.5517578 C375.361495,13.2867925 375.768555,15.1953021 375.768555,17.2773438 C375.768555,19.0123785 375.50163,20.6272712 374.967773,22.1220703 C374.433917,23.6168695 373.666509,24.9514915 372.665527,26.1259766 C371.664546,27.3004616 370.463386,28.294755 369.062012,29.1088867 C367.660638,29.9230184 366.105803,30.4902328 364.397461,30.8105469 L364.397461,31.0507812 C366.426117,31.264324 368.32128,31.751461 370.083008,32.512207 C371.844735,33.272953 373.372878,34.2739196 374.66748,35.5151367 C375.962083,36.7563539 376.976396,38.2244381 377.710449,39.9194336 C378.444502,41.614429 378.811523,43.5029193 378.811523,45.5849609 C378.811523,47.9606239 378.364425,50.0960192 377.470215,51.9912109 C376.576005,53.8864027 375.288094,55.5012954 373.606445,56.8359375 C371.924796,58.1705796 369.882825,59.1982386 367.480469,59.9189453 C365.078113,60.639652 362.36883,61 359.352539,61 L339.453125,61 Z M342.616211,29.8496094 L357.670898,29.8496094 C359.93979,29.8496094 361.988435,29.5626656 363.816895,28.9887695 C365.645354,28.4148734 367.206862,27.5940809 368.501465,26.5263672 C369.796068,25.4586535 370.797034,24.1640701 371.504395,22.6425781 C372.211755,21.1210861 372.56543,19.4127699 372.56543,17.5175781 C372.56543,15.7825434 372.231774,14.2076894 371.564453,12.7929688 C370.897132,11.3782481 369.94955,10.1770883 368.72168,9.18945312 C367.493809,8.20181798 366.012378,7.4410834 364.277344,6.90722656 C362.542309,6.37336973 360.593761,6.10644531 358.431641,6.10644531 L342.616211,6.10644531 L342.616211,29.8496094 Z M359.032227,58.1171875 C361.621432,58.1171875 363.943675,57.8235706 365.999023,57.2363281 C368.054372,56.6490856 369.796054,55.8082737 371.224121,54.7138672 C372.652188,53.6194607 373.739905,52.2981848 374.487305,50.75 C375.234704,49.2018152 375.608398,47.4534603 375.608398,45.5048828 C375.608398,43.5029197 375.214685,41.7145261 374.427246,40.1396484 C373.639807,38.5647708 372.498705,37.2234756 371.003906,36.1157227 C369.509107,35.0079697 367.687348,34.1604847 365.538574,33.5732422 C363.3898,32.9859997 360.940769,32.6923828 358.191406,32.6923828 L342.616211,32.6923828 L342.616211,58.1171875 L359.032227,58.1171875 Z" id="Application" sketch:type="MSShapeGroup"></path>
        </g>
    </g>
</svg>