<?xml version="1.0" encoding="utf-8"?>
<!-- Generator: Adobe Illustrator 16.0.0, SVG Export Plug-In . SVG Version: 6.00 Build 0)  -->
<!DOCTYPE svg PUBLIC "-//W3C//DTD SVG 1.1//EN" "http://www.w3.org/Graphics/SVG/1.1/DTD/svg11.dtd">
<svg version="1.1" id="Layer_1" xmlns="http://www.w3.org/2000/svg" xmlns:xlink="http://www.w3.org/1999/xlink" x="0px" y="0px"
	 width="99.915px" height="61.508px" viewBox="0 0 99.915 61.508" enable-background="new 0 0 99.915 61.508" xml:space="preserve">
<path fill="#1D8B90" d="M83.477,29.018c-0.152,0-0.298,0.018-0.449,0.022c0.112-0.97,0.174-1.95,0.174-2.948
	c0-14.138-11.458-25.596-25.597-25.596c-11.017,0-20.404,6.959-24.013,16.721c-1.986-2.377-4.97-3.89-8.308-3.89
	c-5.979,0-10.824,4.844-10.824,10.82c0,0.865,0.111,1.702,0.304,2.509c-8.134,1.421-14.322,8.5-14.322,17.041
	c0,9.564,7.754,17.314,17.317,17.314h1.667c5.4-5.402,12.013-12.016,12.479-12.482c0.796-0.793,2.914-0.793,2.914-0.793
	s2.064-2.061,4.184-4.184c2.121-2.121-1.532-5.773-1.532-5.773l-5.098-5.098c19.611-19.62,34.103-13.716,34.103-13.716
	s5.907,14.493-13.704,34.11l-5.1-5.098c0,0-3.65-3.652-5.77-1.531c-2.124,2.123-4.186,4.186-4.186,4.186s0.003,2.121-0.795,2.916
	c-0.325,0.326-3.646,3.648-7.46,7.463H84.86v-0.068c8.185-0.701,14.612-7.561,14.612-15.928
	C99.473,36.18,92.311,29.018,83.477,29.018z"/>
</svg>
