<?xml version="1.0" encoding="utf-8"?>
<!-- Generator: Adobe Illustrator 19.2.1, SVG Export Plug-In . SVG Version: 6.00 Build 0)  -->
<svg version="1.1"
	 id="Layer_1" xmlns:cc="http://creativecommons.org/ns#" xmlns:dc="http://purl.org/dc/elements/1.1/" xmlns:rdf="http://www.w3.org/1999/02/22-rdf-syntax-ns#" xmlns:svg="http://www.w3.org/2000/svg"
	 xmlns="http://www.w3.org/2000/svg" xmlns:xlink="http://www.w3.org/1999/xlink" x="0px" y="0px" viewBox="0 0 505.9 76.7"
	 style="enable-background:new 0 0 505.9 76.7;" xml:space="preserve">
<style type="text/css">
	.st0{fill:none;enable-background:new    ;}
	.st1{fill:#797979;}
	.st2{fill:#E17F03;}
</style>
<path class="st0" d="z"/>
<g>
	<g>
		<path class="st1" d="M24.1,70H7V6.7h16.6c8.3,0,14.4,1.7,18.4,5c4.7,4,7,9.5,7,16.5c0,7.7-2.5,13.4-7.5,17.2
			c-3.4,2.5-8.3,3.8-14.7,3.8h-2.7V70z M24.1,35l0.8,0c2.1,0,3.7-0.6,5-1.9c1.2-1.3,1.8-3,1.8-5.2c0-2.2-0.6-4-1.8-5.3
			c-1.2-1.4-2.7-2.1-4.6-2.1h-1.2V35z"/>
		<path class="st1" d="M99.5,38.6c0,9.6-2.2,17.5-6.6,23.5c-4.4,6-10.1,9-17.1,9c-6.2,0-11.6-2.3-16-6.9c-5.6-5.8-8.4-14.6-8.4-26.3
			c0-11.2,2.9-19.8,8.8-25.7c4.3-4.4,9.5-6.6,15.5-6.6c7.3,0,13.1,3,17.4,8.9C97.4,20.5,99.5,28.5,99.5,38.6z M81.8,38.7
			c0-11.4-2-17.2-6.1-17.2c-2,0-3.6,1.5-4.8,4.5c-1.2,2.8-1.8,6.9-1.8,12.3c0,5.3,0.6,9.5,1.7,12.4c1.1,2.9,2.6,4.4,4.6,4.4
			c2,0,3.6-1.4,4.7-4.3C81.2,47.9,81.8,43.8,81.8,38.7z"/>
		<path class="st1" d="M157.3,70h-16.5l-3.9-22.2c-0.8-4.3-1.3-8-1.7-11.1c-0.2-1.6-0.4-2.9-0.5-3.9c-0.1-1-0.2-1.8-0.3-2.4
			c-0.1,1.1-0.3,3.2-0.6,6.3c-0.1,1.6-0.3,3.2-0.5,4.9c-0.2,1.7-0.4,3.5-0.7,5.5L129.4,70h-16.6L98.7,6.7h16.9l2.8,17.4
			c1.1,6.9,1.8,12.4,2.2,16.4l0.6,5.8l0.5-5c0.6-5.8,1.3-11.3,2.2-16.5l3.2-18.1h14.7l2.9,15.2c1.4,7.1,2.6,15.5,3.6,25.1
			c0.3-4.3,0.6-8.2,1-11.6c0.4-3.4,0.8-6.4,1.2-9.1l3.1-19.6h16.7L157.3,70z"/>
		<path class="st1" d="M171.7,70V6.7h31.8v14.9h-14.7v9.2h13.2v14.3h-13.2v9.7h14.7V70H171.7z"/>
		<path class="st1" d="M254.7,70h-18.5l-8.4-22.5c-0.1-0.4-0.2-0.9-0.4-1.5c-0.2-0.6-0.5-1.4-0.8-2.3l0.1,4.2V70h-17V6.7h17.5
			c7.7,0,13.5,1.5,17.3,4.5c4.9,3.9,7.3,9.4,7.3,16.6c0,7.7-3.3,12.9-9.8,15.9L254.7,70z M226.8,36h1.1c2,0,3.6-0.8,4.9-2.3
			c1.3-1.5,2-3.4,2-5.7c0-4.7-2.5-7.1-7.4-7.1h-0.6V36z"/>
		<path class="st1" d="M257.5,70V6.7h14.8c8.4,0,15,2.3,19.7,6.8c6.2,5.9,9.3,14.2,9.3,24.9c0,10.5-2.6,18.6-7.8,24.3
			c-4.5,4.9-11.1,7.3-19.9,7.3H257.5z M274.6,54.7c6.1-0.3,9.2-5.6,9.2-15.8c0-5.1-0.8-9-2.3-12c-1.6-3-3.7-4.4-6.3-4.4h-0.5V54.7z"
			/>
		<path class="st1" d="M306.5,70V6.7h16.3l8.6,22.2c0.5,1.3,1,2.8,1.6,4.5c0.6,1.7,1.2,3.6,1.9,5.9l1.8,5.6
			c-0.6-5.5-1.1-10.2-1.4-14.1c-0.3-3.9-0.5-7.2-0.5-9.8V6.7h16.3V70h-16.3l-8.6-23.3c-0.9-2.5-1.7-4.8-2.4-7
			c-0.7-2.2-1.4-4.2-1.9-6.2c0.4,4.5,0.6,8.3,0.8,11.6c0.2,3.3,0.2,6.2,0.2,8.7V70H306.5z"/>
		<path class="st1" d="M355.7,68.4V48.6c3.4,4.6,7,6.9,10.9,6.9c1.5,0,2.7-0.4,3.6-1.2c0.9-0.8,1.4-1.8,1.4-2.9c0-1.7-1-3.3-3-5
			l-2.8-2.2c-1.9-1.4-3.4-2.8-4.8-4.2c-1.3-1.4-2.4-2.8-3.2-4.3c-0.8-1.5-1.4-3-1.8-4.5c-0.4-1.6-0.6-3.2-0.6-4.9c0-3,0.7-6,2-9.3
			c0.7-1.5,1.5-2.9,2.4-4.1c0.9-1.2,1.9-2.3,3.1-3.3c3.2-2.7,7.1-4.1,11.7-4.1c4.1,0,8.2,1.1,12.3,3.2v19.3c-1.4-2.2-3-3.9-4.8-5.1
			c-1.8-1.2-3.5-1.9-5.2-1.9c-1.3,0-2.4,0.4-3.2,1.1c-0.9,0.7-1.3,1.6-1.3,2.7c0,1.7,1.2,3.4,3.5,5l2.7,2c3.6,2.6,6.2,5.3,7.7,8
			c1.6,2.7,2.4,5.9,2.4,9.6c0,6.2-1.9,11.4-5.7,15.4c-3.8,4-8.6,6.1-14.4,6.1C364.6,71.1,360.2,70.2,355.7,68.4z"/>
	</g>
	<g>
		<circle class="st2" cx="411.2" cy="20.9" r="15.3"/>
		<circle class="st2" cx="411.2" cy="55.8" r="15.3"/>
		<circle class="st2" cx="447.4" cy="20.9" r="15.3"/>
		<circle class="st2" cx="447.4" cy="55.8" r="15.3"/>
		<circle class="st2" cx="483.6" cy="20.9" r="15.3"/>
		<circle class="st2" cx="483.6" cy="55.8" r="15.3"/>
	</g>
</g>
</svg>
