<?xml version="1.0" encoding="utf-8"?>
<!-- Generator: Adobe Illustrator 18.1.1, SVG Export Plug-In . SVG Version: 6.00 Build 0)  -->
<svg version="1.1" id="Layer_1" xmlns="http://www.w3.org/2000/svg" xmlns:xlink="http://www.w3.org/1999/xlink" x="0px" y="0px"
	 viewBox="-241 323.5 122.5 122.5" enable-background="new -241 323.5 122.5 122.5" xml:space="preserve">
<g id="Layer_1_1_">
</g>
<g>
	<path fill="#464342" d="M-232.3,384.7c0,20.8,12.1,38.8,29.6,47.3l-25.1-68.7C-230.7,369.9-232.3,377.1-232.3,384.7z"/>
	<path fill="#464342" d="M-144.3,382.1c0-6.5-2.3-11-4.3-14.5c-2.7-4.3-5.2-8-5.2-12.3c0-4.8,3.7-9.3,8.8-9.3c0.2,0,0.5,0,0.7,0
		c-9.3-8.6-21.8-13.8-35.5-13.8c-18.4,0-34.5,9.4-43.9,23.7c1.2,0,2.4,0.1,3.4,0.1c5.5,0,14-0.7,14-0.7c2.8-0.2,3.2,4,0.3,4.3
		c0,0-2.8,0.3-6,0.5l19.1,56.9l11.5-34.5l-8.2-22.4c-2.8-0.2-5.5-0.5-5.5-0.5c-2.8-0.2-2.5-4.5,0.3-4.3c0,0,8.7,0.7,13.8,0.7
		c5.5,0,14-0.7,14-0.7c2.8-0.2,3.2,4,0.3,4.3c0,0-2.9,0.3-6,0.5l19,56.5l5.2-17.5C-146,391.8-144.3,386.6-144.3,382.1z"/>
	<path fill="#464342" d="M-178.8,389.3l-15.8,45.8c4.7,1.4,9.7,2.1,14.8,2.1c6.1,0,12-1.1,17.5-3c-0.1-0.2-0.3-0.5-0.4-0.7
		L-178.8,389.3z"/>
	<path fill="#464342" d="M-133.6,359.5c0.2,1.7,0.4,3.5,0.4,5.4c0,5.3-1,11.3-4,18.8l-16.1,46.4c15.6-9.1,26.1-26,26.1-45.4
		C-127.2,375.6-129.5,367-133.6,359.5z"/>
	<path fill="#464342" d="M-179.7,323.5c-33.8,0-61.3,27.5-61.3,61.3c0,33.8,27.5,61.3,61.3,61.3c33.8,0,61.3-27.5,61.3-61.3
		C-118.5,351-146,323.5-179.7,323.5z M-179.7,443.2c-32.2,0-58.5-26.2-58.5-58.5c0-32.2,26.2-58.5,58.5-58.5
		c32.2,0,58.5,26.2,58.5,58.5C-121.3,417-147.5,443.2-179.7,443.2z"/>
</g>
</svg>
