<?xml version="1.0" encoding="utf-8"?>
<!-- Generator: Adobe Illustrator 19.2.1, SVG Export Plug-In . SVG Version: 6.00 Build 0)  -->
<svg version="1.1" id="Layer_1" xmlns="http://www.w3.org/2000/svg" xmlns:xlink="http://www.w3.org/1999/xlink" x="0px" y="0px"
	 viewBox="0 0 100 100" style="enable-background:new 0 0 100 100;" xml:space="preserve">
<style type="text/css">
	.st0{fill:#0EB7ED;}
	.st1{fill:#D3EDF1;}
	.st2{fill:none;stroke:#000000;stroke-width:0.5;stroke-miterlimit:10;}
	.st3{fill:#00C8FA;}
	.st4{fill:#00A9D2;}
	.st5{fill:#FFFFFF;}
	.st6{opacity:0.5;fill:#0EB7ED;enable-background:new    ;}
	.st7{opacity:0.8;fill:#333333;}
	.st8{fill:#F2F2F2;}
</style>
<g id="Layer_2">
</g>
<g>
	<g>
		<path class="st0" d="M25.7,56.9c-3.3,1.3-7.3,5.3-1.6,13.8s21.6,6.8,28.9-2.5c5.6-7.2,5.8-8.7,7.1-9.9c2.5,0.6,5.5-0.7,6.4-3.4
			c0,0-3.1-2.9-6.5,0.4c0,0,1.8-2,0.4-3.8L25.7,56.9z"/>
		<path class="st1" d="M21.6,65.7c1.1,0.8,7.8,3.3,15.3-1.3c0,0-2.5,9.1,7.9,9.8c0,0-9,4-15.9,0.6S21.6,65.7,21.6,65.7z"/>
		<path class="st2" d="M60.3,51.6c1.4,1.8-0.4,3.8-0.4,3.8c3.4-3.2,6.5-0.4,6.5-0.4c-0.9,2.6-3.9,3.9-6.4,3.4
			c-1.3,1.2-1.5,2.7-7.1,9.9c-7.2,9.3-23.2,11-28.9,2.5S22.2,57.9,25.6,57"/>
		<path class="st2" d="M21.6,65.5c1.5,1.6,10.1,2.3,16-1.6"/>
		<path class="st0" d="M74.8,60.3c0,0,1.8-2,0.4-3.8l-34.6,5.3c-3.3,1.3-7.3,5.3-1.6,13.8c5.8,8.6,21.7,7,28.9-2.4
			c5.6-7.2,5.8-8.7,7.1-9.9c2.5,0.6,5.5-0.7,6.4-3.4C81.4,60,78.3,57.1,74.8,60.3z M68.5,62.5l3.1-2c0.6,1.1,0.9,1.4,1.1,1.6
			C72.7,62.1,70.6,63.1,68.5,62.5z"/>
		<path class="st0" d="M42.7,37.7c3.9,0,5.9-3.8,5.9-3.8c-4.9-1.5-3.8-7.4-3.8-7.4c4.2,0.9,4.8,4.1,4.8,4.1c0.2-4.2,4.8-4.6,4.8-4.6
			c1.9,5.2-2.8,7.4-2.8,7.4s1.1,7.9,0.8,11.6c-0.1,1.7-3.9,15.9-19.6,14.7s-15.1-15.1-13-17.1c1-0.9,4.7-2.5,9.5-3"/>
		<path class="st1" d="M19.2,49.7c1.1,0.8,7.3,2.9,14.7-1.8c0,0-2,9.5,8.5,10.3c0,0-9,4-15.9,0.6S19.2,49.7,19.2,49.7z"/>
		<path class="st2" d="M19,49.4c1.5,1.6,10.1,2,15.9-1.9"/>
		<path class="st2" d="M42.2,38c3.9,0,6.3-3.7,6.3-3.7c-4.9-1.5-3.8-7.4-3.8-7.4c4.2,0.9,4.8,4.1,4.8,4.1c0.2-4.2,4.8-4.6,4.8-4.6
			c1.9,5.2-2.8,7.4-2.8,7.4s1.3,6.6,0.8,11.6c-0.2,2.7-3.9,15.9-19.6,14.7s-15-15.3-13-17.3c1-1,4.5-3,9.5-3.3"/>
		<path class="st0" d="M31.8,45.6c-2.1,1.9-2.7,16.1,13,17.3s19.4-13,19.6-14.7c0.3-3.7-0.8-11.6-0.8-11.6s4.8-2.2,2.8-7.4
			c0,0-4.6,0.3-4.8,4.6c0,0-0.5-3.2-4.8-4.1c0,0-1.1,5.9,3.8,7.4c0,0-2,3.8-5.9,3.8"/>
		<path class="st1" d="M31.3,52.7c1.1,0.8,7.3,2.9,14.7-1.8c0,0-2,9.5,8.5,10.3c0,0-9.1,3.6-16,0.2C31.5,58,31.3,52.7,31.3,52.7z"/>
		<path class="st2" d="M31,52.4c1.5,1.6,10.1,2,15.9-1.9"/>
		<path class="st2" d="M54.3,40.7c3.9,0,6.3-3.7,6.3-3.7c-4.9-1.5-3.8-7.4-3.8-7.4c4.2,0.9,4.8,4.1,4.8,4.1c0.2-4.2,4.8-4.6,4.8-4.6
			c1.9,5.2-2.8,7.4-2.8,7.4s1.2,6.7,0.7,11.7c-0.2,2.7-3.9,15.9-19.6,14.7S29.8,47.6,31.8,45.6c0.5-0.5,1.4-1,4.1-1.2"/>
		<path class="st0" d="M45.8,46.6c-2.1,1.9-2.7,16.1,13,17.3s19-13.8,19.2-15.5c0.3-3.7-0.4-10.8-0.4-10.8s4.8-2.2,2.8-7.4
			c0,0-4.6,0.3-4.8,4.6c0,0-0.5-3.2-4.8-4.1c0,0-1.1,5.9,3.8,7.4c0,0-2,3.8-5.9,3.8"/>
		<path class="st2" d="M71.5,60.5c0.6,1.1,0.9,1.4,1.1,1.6c0,0-2.1,1-4.2,0.4"/>
		<polygon class="st3" points="29.6,32.1 29.6,42.9 48.6,47.2 68.6,42.2 68.6,20.3 51.1,18.6 39.6,20 39.6,30.1 		"/>
		<polygon class="st4" points="68.3,20.2 68.3,42.2 48.3,47.7 48.3,35.2 58.3,33.4 58.3,22.2 		"/>
		<polyline class="st2" points="29.3,32.1 48.4,35 68.3,31.5 		"/>
		<line class="st2" x1="58.3" y1="22.2" x2="58.3" y2="44.7"/>
		<line class="st2" x1="48.3" y1="35.2" x2="48.3" y2="47.2"/>
		<line class="st2" x1="58.3" y1="33.3" x2="39.3" y2="30.1"/>
		<g>
			<path class="st5" d="M64.8,53.3c-0.4,0-0.9-0.1-1.3-0.2c-1.3-0.5-2.1-1.7-1.8-3c0.3-1.6,1.6-2.5,3.3-2.5c0.9,0,1.7,0.3,2.2,0.8
				s0.7,1.2,0.7,2.1C67.9,52.3,66.4,53.3,64.8,53.3L64.8,53.3z"/>
			<path d="M65.1,47.8c1.7,0,2.7,1,2.6,2.6c-0.1,1.7-1.4,2.6-2.9,2.6c-0.4,0-0.8-0.1-1.2-0.2c-1.1-0.4-1.9-1.5-1.7-2.7
				C62.3,48.6,63.6,47.8,65.1,47.8 M65.1,47.3c-1.9,0-3.3,1.1-3.6,2.7c-0.3,1.4,0.5,2.7,2,3.2c0.4,0.2,0.9,0.2,1.3,0.2
				c1.6,0,3.3-1.1,3.4-3.1c0-0.9-0.2-1.7-0.8-2.3C66.9,47.6,66.1,47.3,65.1,47.3L65.1,47.3z"/>
		</g>
		<path d="M64.2,48c-1.1,0-2.1,0.6-2.3,1.7c-0.2,0.9,0.4,1.7,1.2,2c1.3,0.5,2.9-0.2,3-1.8C66.2,48.7,65.5,48,64.2,48z"/>
		<g>
			<path class="st5" d="M56.6,71c-0.5,0-0.9-0.1-1.4-0.2c-1.4-0.5-2.2-1.8-2-3.2c0.3-1.7,1.7-2.8,3.6-2.8c1,0,1.8,0.3,2.4,0.9
				C59.7,66.2,60,67,60,68C59.9,69.9,58.2,71,56.6,71L56.6,71z"/>
			<path d="M56.9,65c1.8,0,2.9,1,2.9,2.9c-0.1,1.8-1.5,2.9-3.1,2.9c-0.4,0-0.9-0.1-1.3-0.2c-1.3-0.5-2.1-1.6-1.8-2.9
				C53.8,65.8,55.2,65,56.9,65 M56.9,64.5c-2,0-3.5,1.2-3.9,3c-0.3,1.5,0.6,2.9,2.1,3.5c0.5,0.2,1,0.3,1.5,0.3
				c1.8,0,3.6-1.1,3.6-3.3c0-1-0.3-1.9-0.8-2.5C58.8,64.8,57.9,64.5,56.9,64.5L56.9,64.5z"/>
		</g>
		<path d="M55.3,65.1c-1,0.2-1.4,0.8-1.6,1.8c-0.1,0.8,0.3,1.5,1.1,1.8c1.2,0.4,2.5-0.2,2.7-1.6C57.8,65.7,56.6,64.9,55.3,65.1z"/>
		<path class="st1" d="M45.1,53.6c1.1,0.8,7.8,3,15.2-1.7c0,0-2,9.5,8.5,10.3c0,0-9.4,3.6-16.3,0.2C45.6,59,45.1,53.6,45.1,53.6z"/>
		<path class="st1" d="M36.6,70.7c1.1,0.8,7.9,2.9,15.4-1.8c0,0-2.6,9.5,7.8,10.3c0,0-9,4-15.9,0.6S36.6,70.7,36.6,70.7z"/>
		<path class="st2" d="M45,53.4c1.5,1.6,10.1,2,15.9-1.9"/>
		<path class="st2" d="M45.8,46.6c-2.1,1.9-2.7,16.1,13,17.3S77.7,51.1,78,48.4c0.5-5-0.4-10.8-0.4-10.8s4.8-2.2,2.8-7.4
			c0,0-4.6,0.3-4.8,4.6c0,0-0.5-3.2-4.8-4.1c0,0-1.1,5.9,3.8,7.4c0,0-2.4,3.7-6.3,3.7"/>
		<path class="st2" d="M74.9,56.6c1.4,1.8,0,3.8,0,3.8c3.4-3.2,6.5-0.4,6.5-0.4c-0.9,2.6-3.9,3.9-6.4,3.4c-1.3,1.2-1.5,2.7-7.1,9.9
			c-7.2,9.3-23.5,11.2-28.9,2.5c-5-8.2-2.4-12.7,1.1-13.7"/>
		<path class="st2" d="M36.8,70.9c1.7,1.6,9.9,1.7,15.7-2.3"/>
		<path class="st6" d="M30.6,43.3c-1.4-0.3,3.9,0.9,3.9,0.9l-2,1C32.5,44.7,32,43.6,30.6,43.3z"/>
		<path class="st6" d="M39.6,45.2c-3.9-0.8,6.2,1.3,6.2,1.3s-1.3,1.6-1.2,3.3C44.5,49.9,42.5,45.9,39.6,45.2z"/>
		<polygon class="st2" points="29.3,32.1 29.3,42.9 48.3,47.2 68.3,42.2 68.3,20.5 50.8,18.6 39.3,20 39.3,30.1 		"/>
	</g>
	<polyline class="st2" points="39,20.3 58,22.4 68,20.8 	"/>
</g>
<path class="st7" d="M93,95.5H7c-1.1,0-2-0.9-2-2v-12c0-1.1,0.9-2,2-2H93c1.1,0,2,0.9,2,2v12C95,94.6,94.1,95.5,93,95.5z"/>
<g>
	<path class="st8" d="M21.8,85v1.6h2v0.8h-2v1.6h2.6v0.9h-3.6v-5.8h3.6V85H21.8z"/>
	<path class="st8" d="M30.1,89.9H29c-0.1,0-0.1,0-0.2-0.1c0,0-0.1-0.1-0.1-0.1l-1.3-2.2c0,0.1,0,0.1-0.1,0.2l-1.3,2
		c0,0-0.1,0.1-0.1,0.1c0,0-0.1,0.1-0.2,0.1h-1l1.9-3l-1.8-2.8h1.1c0.1,0,0.1,0,0.2,0c0,0,0.1,0.1,0.1,0.1l1.3,2.1
		c0-0.1,0.1-0.1,0.1-0.2l1.2-1.9c0,0,0.1-0.1,0.1-0.1c0,0,0.1,0,0.1,0h1l-1.9,2.8L30.1,89.9z"/>
	<path class="st8" d="M32.7,84.2c0.4,0,0.7,0,1,0.1s0.5,0.2,0.7,0.4s0.3,0.4,0.4,0.6s0.1,0.5,0.1,0.7c0,0.3,0,0.5-0.1,0.8
		c-0.1,0.2-0.2,0.4-0.4,0.6s-0.4,0.3-0.7,0.4c-0.3,0.1-0.6,0.1-1,0.1h-0.8v2h-1.1v-5.8H32.7z M32.7,87.1c0.2,0,0.4,0,0.5-0.1
		c0.1,0,0.3-0.1,0.4-0.2c0.1-0.1,0.2-0.2,0.2-0.3c0-0.1,0.1-0.3,0.1-0.4c0-0.2,0-0.3-0.1-0.4s-0.1-0.2-0.2-0.3
		c-0.1-0.1-0.2-0.2-0.4-0.2C33,85,32.9,85,32.7,85h-0.8v2.1H32.7z"/>
	<path class="st8" d="M36.9,85v1.6h2v0.8h-2v1.6h2.6v0.9h-3.6v-5.8h3.6V85H36.9z"/>
	<path class="st8" d="M45,89.9h-1c-0.2,0-0.3-0.1-0.4-0.2l-1.2-1.9c0-0.1-0.1-0.1-0.1-0.1s-0.1,0-0.2,0h-0.5v2.3h-1.1v-5.8h1.8
		c0.4,0,0.7,0,1,0.1c0.3,0.1,0.5,0.2,0.7,0.3c0.2,0.1,0.3,0.3,0.4,0.5c0.1,0.2,0.1,0.4,0.1,0.7c0,0.2,0,0.4-0.1,0.6
		c-0.1,0.2-0.1,0.3-0.2,0.5c-0.1,0.1-0.2,0.3-0.4,0.4s-0.3,0.2-0.5,0.3c0.1,0,0.1,0.1,0.2,0.1c0.1,0.1,0.1,0.1,0.2,0.2L45,89.9z
		 M42.3,86.9c0.2,0,0.4,0,0.5-0.1c0.2-0.1,0.3-0.1,0.4-0.2s0.2-0.2,0.2-0.3c0-0.1,0.1-0.3,0.1-0.4c0-0.3-0.1-0.5-0.3-0.7
		C43,85.1,42.7,85,42.3,85h-0.7v1.9H42.3z"/>
	<path class="st8" d="M46.8,89.9h-1.1v-5.8h1.1V89.9z"/>
	<path class="st8" d="M54.5,84.2v5.8h-0.9v-3.7c0-0.1,0-0.3,0-0.5L51.8,89c-0.1,0.2-0.2,0.2-0.4,0.2h-0.2c-0.2,0-0.3-0.1-0.4-0.2
		l-1.8-3.3c0,0.1,0,0.2,0,0.3s0,0.2,0,0.2v3.7h-0.9v-5.8H49c0,0,0.1,0,0.1,0c0,0,0.1,0,0.1,0c0,0,0.1,0,0.1,0.1c0,0,0,0.1,0.1,0.1
		l1.7,3.2c0,0.1,0.1,0.2,0.1,0.3c0,0.1,0.1,0.2,0.1,0.3c0-0.1,0.1-0.2,0.1-0.3c0-0.1,0.1-0.2,0.1-0.3l1.7-3.2c0,0,0-0.1,0.1-0.1
		c0,0,0,0,0.1-0.1c0,0,0.1,0,0.1,0c0,0,0.1,0,0.1,0H54.5z"/>
	<path class="st8" d="M56.9,85v1.6h2v0.8h-2v1.6h2.6v0.9h-3.6v-5.8h3.6V85H56.9z"/>
	<path class="st8" d="M65.4,84.2v5.8h-0.6c-0.1,0-0.2,0-0.2,0c-0.1,0-0.1-0.1-0.2-0.1l-3-3.9c0,0.2,0,0.3,0,0.5v3.6h-0.9v-5.8h0.6
		c0,0,0.1,0,0.1,0c0,0,0.1,0,0.1,0s0,0,0.1,0.1c0,0,0.1,0.1,0.1,0.1l3,3.9c0-0.1,0-0.2,0-0.3c0-0.1,0-0.2,0-0.3v-3.5H65.4z"/>
	<path class="st8" d="M70.8,85H69v4.9H68V85h-1.7v-0.9h4.6V85z"/>
	<path class="st8" d="M76,89.9h-0.8c-0.1,0-0.2,0-0.2-0.1c-0.1,0-0.1-0.1-0.1-0.2l-0.4-1.2H72l-0.4,1.2c0,0.1-0.1,0.1-0.1,0.2
		c-0.1,0.1-0.1,0.1-0.2,0.1h-0.8l2.3-5.8h1.1L76,89.9z M74.1,87.8l-0.7-1.9c0-0.1-0.1-0.2-0.1-0.3c0-0.1-0.1-0.2-0.1-0.4
		c0,0.1-0.1,0.3-0.1,0.4c0,0.1-0.1,0.2-0.1,0.3l-0.7,1.9H74.1z"/>
	<path class="st8" d="M80.1,89.1v0.9h-3.4v-5.8h1.1v4.9H80.1z"/>
</g>
</svg>
