<?xml version="1.0" encoding="utf-8"?>
<!-- Generator: Adobe Illustrator 21.1.0, SVG Export Plug-In . SVG Version: 6.00 Build 0)  -->
<svg version="1.1" id="Layer_1" xmlns="http://www.w3.org/2000/svg" xmlns:xlink="http://www.w3.org/1999/xlink" x="0px" y="0px"
	 viewBox="0 0 550 250" style="enable-background:new 0 0 550 250;" xml:space="preserve">
<style type="text/css">
	.st0{fill:none;}
	.st1{enable-background:new    ;}
	.st2{fill:#019B8F;}
	.st3{fill:#3EBEB0;}
	.st4{fill:#353535;}
	.st5{fill:#F04E98;}
</style>
<rect x="245" y="104.5" class="st0" width="163" height="41"/>
<g class="st1">
	<path d="M254.3,127.3l3.1-3.9l7.8-8.3h6.4l-10.4,11.1l11.1,14.8h-6.5l-8.3-11.4l-3,2.5v8.9h-5.5v-36.5h5.5v17.8l-0.3,5H254.3z"/>
	<path d="M276.1,108.2c0-1,0.3-1.7,0.8-2.3s1.3-0.8,2.3-0.8c1,0,1.7,0.3,2.3,0.8s0.8,1.3,0.8,2.3c0,0.9-0.3,1.7-0.8,2.2
		s-1.3,0.8-2.3,0.8c-1,0-1.8-0.3-2.3-0.8S276.1,109.1,276.1,108.2z M281.9,141h-5.5v-25.9h5.5V141z"/>
	<path d="M303,114.6c3.2,0,5.8,1.2,7.6,3.5s2.7,5.6,2.7,9.9c0,4.2-0.9,7.6-2.7,9.9s-4.4,3.6-7.6,3.6c-3.3,0-5.8-1.2-7.6-3.5h-0.4
		l-1,3.1h-4.1v-36.5h5.5v8.7c0,0.6,0,1.6-0.1,2.9s-0.1,2.1-0.1,2.4h0.2C297,115.9,299.6,114.6,303,114.6z M301.6,119.1
		c-2.2,0-3.8,0.7-4.8,2s-1.5,3.5-1.5,6.6v0.4c0,3.2,0.5,5.4,1.5,6.9s2.6,2.1,4.9,2.1c2,0,3.4-0.8,4.4-2.3s1.5-3.8,1.5-6.7
		C307.6,122,305.6,119.1,301.6,119.1z"/>
	<path d="M335.9,141l-1.1-3.6h-0.2c-1.2,1.6-2.5,2.7-3.8,3.2s-2.9,0.9-4.9,0.9c-2.5,0-4.5-0.7-6-2.1s-2.1-3.3-2.1-5.8
		c0-2.7,1-4.7,3-6c2-1.4,5-2.1,9.1-2.2l4.5-0.1v-1.4c0-1.7-0.4-2.9-1.2-3.7s-2-1.2-3.6-1.2c-1.3,0-2.6,0.2-3.8,0.6s-2.4,0.9-3.5,1.4
		l-1.8-3.9c1.4-0.7,2.9-1.3,4.6-1.7s3.2-0.6,4.7-0.6c3.3,0,5.8,0.7,7.5,2.2s2.5,3.7,2.5,6.8V141H335.9z M327.7,137.2
		c2,0,3.6-0.6,4.8-1.7s1.8-2.7,1.8-4.7v-2.2l-3.3,0.1c-2.6,0.1-4.5,0.5-5.7,1.3s-1.8,2-1.8,3.6c0,1.2,0.3,2.1,1,2.7
		S326.3,137.2,327.7,137.2z"/>
	<path d="M370.3,141h-5.5V125c0-2-0.4-3.5-1.2-4.5s-2.1-1.5-3.8-1.5c-2.3,0-4,0.7-5.1,2.1s-1.6,3.7-1.6,6.9V141h-5.5v-25.9h4.3
		l0.8,3.4h0.3c0.8-1.2,1.9-2.2,3.3-2.9s3-1,4.8-1c6.2,0,9.3,3.2,9.3,9.5V141z"/>
	<path d="M394.2,141l-1.1-3.6h-0.2c-1.2,1.6-2.5,2.7-3.8,3.2s-2.9,0.9-4.9,0.9c-2.5,0-4.5-0.7-6-2.1s-2.1-3.3-2.1-5.8
		c0-2.7,1-4.7,3-6c2-1.4,5-2.1,9.1-2.2l4.5-0.1v-1.4c0-1.7-0.4-2.9-1.2-3.7s-2-1.2-3.6-1.2c-1.3,0-2.6,0.2-3.8,0.6s-2.4,0.9-3.5,1.4
		l-1.8-3.9c1.4-0.7,2.9-1.3,4.6-1.7s3.2-0.6,4.7-0.6c3.3,0,5.8,0.7,7.5,2.2s2.5,3.7,2.5,6.8V141H394.2z M386,137.2
		c2,0,3.6-0.6,4.8-1.7s1.8-2.7,1.8-4.7v-2.2l-3.3,0.1c-2.6,0.1-4.5,0.5-5.7,1.3s-1.8,2-1.8,3.6c0,1.2,0.3,2.1,1,2.7
		S384.6,137.2,386,137.2z"/>
</g>
<g>
	<g>
		<path class="st2" d="M188.6,123.5L159,159v8h3.7l33-39.5C193.4,126,191.1,124.7,188.6,123.5z"/>
		<path class="st3" d="M195.7,127.5l-33,39.5H219C219,150.9,209.9,136.6,195.7,127.5z"/>
	</g>
	<g>
		<path class="st4" d="M159,159l29.6-35.5c-8.7-4.1-18.8-6.5-29.6-6.5V159z"/>
		<path class="st5" d="M159,87v30c10.8,0,20.8,2.4,29.6,6.5L219,87H159z"/>
	</g>
</g>
</svg>
