<?xml version="1.0" encoding="utf-8"?>
<!-- Generator: Adobe Illustrator 18.1.1, SVG Export Plug-In . SVG Version: 6.00 Build 0)  -->
<svg version="1.1" id="Layer_1" xmlns="http://www.w3.org/2000/svg" xmlns:xlink="http://www.w3.org/1999/xlink" x="0px" y="0px"
	 viewBox="-5 125 1034 378" enable-background="new -5 125 1034 378" xml:space="preserve">
<path fill="#7BD4E2" d="M848.1,130.5h173.3c0,60.2,0,120.7,0.2,181c0,4.2,0,12.6,0,12.6c-13.1-28.8-46.4-42.6-76.6-44.3
	c-23.8-0.5-49.6,0.2-70.4,13.6c-10.9,8.2-26.8,31.7-26.8,31.7v-8.7C848.1,254.5,847.9,192.5,848.1,130.5z"/>
<path fill="#EBBC46" d="M650,184.1c57.8-1,115.8-0.5,173.6,0c0.5,46.1,1,92.2,0,138.4c-10.7-15.1-24.1-29.8-42.2-35.2
	c-22.8-8.9-47.9-9.2-71.9-6c-24.8,4.2-52.7,19.1-59.6,44.9c0,0,0.1-9.7,0.1-14.6C650,269.1,649.8,226.7,650,184.1z"/>
<path fill="#4D4D4D" d="M2.6,235.2c11.7,0,23.3,0.2,34.7-0.2c1.7,55.5-0.2,111.3,1,167.1c12.6-7.9,26.3-15.4,41.4-16.6
	c14.1-2,29.8-0.5,42.2-8.7c12.1-6.7,21.1-18.6,25.5-31.5c3.7-11.4,2.5-23.6,2.5-35.2c12.1-0.5,24.3,0,36.4-0.5
	c3,25-1.5,51.8-16.6,72.4c-5.5,7.9-13.4,13.6-19.8,21.1c20.3,14.6,33.2,37.9,36.4,62.5c1,9.9,0.5,19.8,0.5,29.8
	c-12.4-0.5-24.8,1-36.9-0.7c2-19.3,0-40.9-14.4-55.5c-22.6-26.3-69.2-22.8-87.8,6.4c-10.9,14.1-9.7,32.7-9.7,49.6
	c-11.9,0.2-23.8,0.7-35.7-0.2C1.6,415.4,2.6,336.3,1.9,257C1.6,249.8,2.1,242.3,2.6,235.2z"/>
<path fill="#8AB97B" d="M451.9,234.7h174.6c-0.5,31.2-0.2,63,0,94.2c-7.7-21.8-27.8-37.9-49.8-43.4c-20.6-7.4-43.1-6.2-64.5-4.5
	c-16.6,4.5-34.2,9.7-46.1,23.1c-6,5.7-9.7,13.1-14.1,20.1C451.7,294.2,452.2,264.4,451.9,234.7z"/>
<path fill="#4D4D4D" d="M199.3,309.8c11.9-0.2,24.1,0,36.2-0.2c0.7,61.7,0,123.7,0.2,185.5c-12.1,0-24.3,0.5-36.4-0.5
	C199.8,433,199.5,371.3,199.3,309.8z"/>
<path fill="#4D4D4D" d="M659.9,346.5c17.1-22.8,45.6-36.7,73.9-36.2c37.7-0.5,74.4,24.8,86.8,60.7c7.4,17.4,5.5,36.4,5.7,54.5
	c0,23.3,0.2,46.4-0.2,69.7c-12.4,0.5-24.8,1-36.9-0.7c0.5-30.5,0-61,0.2-91.2c0.2-15.4-6.4-30.2-17.4-40.9
	c-11.9-11.7-29.3-16.9-45.6-14.9c-26.5,2-48.8,26.5-48.8,53.1c-0.2,31.5,0.2,63-0.2,94.5c-12.1,0.7-24.3,1.7-36.2,0
	c-0.5-30.5,0-61.2-0.2-92C640.8,382.9,647.3,362.3,659.9,346.5z"/>
<path fill="#4D4D4D" d="M423.6,360.9c-14.9-29.3-45.9-49.6-78.8-50.3c-19.6-0.2-39.4-0.5-59,0.2c-1.7-24.8-0.2-49.6-0.7-74.4
	c-12.1-0.5-24.5-0.5-36.9,0c0.2,56.5,0,112.8,0,169.3c0.2,36.4,25.3,70.9,59,83.8c17.4,6.2,36.7,8.7,54.8,4.2
	c30.5-6.9,56.3-30.7,66.2-60.5C437,409.7,435,382.9,423.6,360.9z M357.2,456.8c-14.6,3.2-30.7,3-43.9-5c-17.6-9.2-28.5-29-28.3-48.6
	c0.2-18.8-0.7-37.7,0.5-56.3c19.8,0.7,39.9-0.5,59.8,0.7c25.5,1.2,47.9,22.8,51.1,47.9C400.3,421.9,383,449.6,357.2,456.8z"/>
<path fill="#4D4D4D" d="M577.9,319.2c-17.4-9.2-37.9-10.7-57-7.7c-30.2,5.5-57,26.5-69.2,54.8c-10.2,23.6-9.4,51.6,1.2,74.9
	c11.2,23.6,32.2,42.6,57.5,49.8c11.2,4,23.1,4,35,4.2c28.3-0.2,56.3,0.2,84.5,0c0-30.5,0-61,0-91.5
	C631.2,368.3,609.6,333.8,577.9,319.2z M593.2,458.1c-21.6-0.2-43.4,1.2-64.7-1c-27.3-2.5-48.6-29.3-47.1-56.3
	c-0.5-29.8,27.3-55.8,56.8-54.3c29-0.7,54.8,25.3,55,54.1C593.5,419.9,593.7,439,593.2,458.1z"/>
<path fill="#4D4D4D" d="M1021.7,383.7c-6.2-35.7-36.4-65.2-71.7-72.2c-20.6-3.5-42.6-1.5-61,8.7c-23.3,11.4-41.2,33.2-47.4,58.5
	c-7.7,28.3-0.7,60.2,18.6,82.6c17.1,21.8,45.1,34,72.6,33.7c29.8,0.5,59.5,0.2,89.3,0C1021.7,457.8,1021.7,420.6,1021.7,383.7z
	 M987,458.3c-23.8-0.7-47.9,2-71.4-2.2c-30.5-7.4-48.3-43.6-37.2-72.6c7.9-23.3,32.2-38.9,56.8-36.4c28,0.5,51.8,26,52.1,53.8
	C987,419.9,987.2,439.2,987,458.3z"/>
</svg>
