<?xml version="1.0" encoding="UTF-8" standalone="no"?>
<svg
   xmlns:dc="http://purl.org/dc/elements/1.1/"
   xmlns:cc="http://creativecommons.org/ns#"
   xmlns:rdf="http://www.w3.org/1999/02/22-rdf-syntax-ns#"
   xmlns:svg="http://www.w3.org/2000/svg"
   xmlns="http://www.w3.org/2000/svg"
   version="1.1"
   viewBox="0 0 411.38 93.5"
   data-name="Layer 1"
   id="Layer_1">
  <metadata
     id="metadata49">
    <rdf:RDF>
      <cc:Work
         rdf:about="">
        <dc:format>image/svg+xml</dc:format>
        <dc:type
           rdf:resource="http://purl.org/dc/dcmitype/StillImage" />
      </cc:Work>
    </rdf:RDF>
  </metadata>
  <defs
     id="defs4">
    <style
       id="style2">.cls-1{fill:#7e38ff;}</style>
  </defs>
  <title
     id="title6">ironfunction</title>
  <rect
     id="rect8"
     height="31"
     width="11"
     y="56.87"
     x="269.19" />
  <path
     id="path10"
     d="M260.19,49.87h-11v7h-4v9h4V77.64c0,4.94.81,10.18,10.69,10.18,5.23,0,6.31-1.65,6.31-1.65V78.64s-4,2.36-6-1V65.87h6v-9h-6v-7Z" />
  <rect
     id="rect12"
     height="7"
     width="11"
     y="46.87"
     x="269.19" />
  <rect
     id="rect14"
     height="42"
     width="11"
     y="45.87"
     x="7.19" />
  <polygon
     id="polygon16"
     points="117.68 47.87 117.19 47.87 117.19 57.75 117.19 57.75 117.19 64.75 117.19 64.75 117.19 73.75 117.19 73.75 117.19 87.87 128.19 87.87 128.19 73.87 146.19 73.87 146.19 64.87 128.19 64.87 128.19 57.87 148.19 57.87 148.19 47.87 128.54 47.87 117.68 47.87" />
  <path
     id="path18"
     d="M62.33,55.55c-9.67,0-17.52,7.36-17.52,16.43s7.84,16.43,17.52,16.43S79.85,81.06,79.85,72,72,55.55,62.33,55.55Zm0,24c-3.55,0-6.43-3.37-6.43-7.52s2.89-7.52,6.43-7.52,6.43,3.37,6.43,7.52S65.88,79.5,62.33,79.5Z" />
  <path
     id="path20"
     d="M300.09,55.55c-9.67,0-17.52,7.36-17.52,16.43s7.84,16.43,17.52,16.43S317.61,81.06,317.61,72,309.77,55.55,300.09,55.55Zm0,24c-3.55,0-6.43-3.37-6.43-7.52s2.89-7.52,6.43-7.52,6.43,3.37,6.43,7.52S303.64,79.5,300.09,79.5Z" />
  <path
     id="path22"
     d="M103.57,54.83c-7.23,0-9.39,5.25-10.39,5.25V55.87h-11v32h11V69a4.5,4.5,0,1,1,9,0V87.87h11V69c0-6-.85-8.08-0.85-8.08S110.1,54.83,103.57,54.83Z" />
  <path
     id="path24"
     d="M169.19,77a4.58,4.58,0,0,1-3.51,1.8,4.51,4.51,0,0,1-4.49-4.62V55.87h-11V74.21c0,6,1.25,8.08,1.25,8.08s2.3,6.13,8.83,6.13a10,10,0,0,0,8.92-4.54v4h11v-32h-11V77Z" />
  <path
     id="path26"
     d="M204.41,55.83a10.7,10.7,0,0,0-9.23,4.54v-3.5h-11v32h11V67.21a4.58,4.58,0,0,1,3.51-1.8A4.51,4.51,0,0,1,203.19,70V88.87h11V70c0-6-.93-8.08-0.93-8.08S210.94,55.83,204.41,55.83Z" />
  <path
     id="path28"
     d="M339.36,55.83a10.57,10.57,0,0,0-9.17,4.54v-3.5h-11v32h11V67.21a4.58,4.58,0,0,1,3.51-1.8A4.51,4.51,0,0,1,338.19,70V88.87h11V70c0-6-1-8.08-1-8.08S345.88,55.83,339.36,55.83Z" />
  <path
     id="path30"
     d="M33.19,61.31V55.87h-11v32h11V73.37c0-1.06,2-8,10-6.56v-12S36.19,53.12,33.19,61.31Z" />
  <path
     id="path32"
     d="M234.07,55.46c-9.67,0-17.52,7.36-17.52,16.43,0,10.35,7.84,16.43,17.52,16.43,5.38,0,9.19-3,11.88-7l-7.45-5.41V75.85a6.8,6.8,0,1,1,.35-7.36l7.1-6.16A13.72,13.72,0,0,0,234.07,55.46Z" />
  <path
     id="path34"
     d="M371.68,70.08c-3.67-1.5-11-2.08-10.33-5.17s7.5-1.08,11.25,1.67l3.75-6.42s-21.81-11.38-24.42,6.08c-1.42,9.5,16.69,9.15,15.83,12.42-1.5,5.75-12-.83-13-1.25l-3.92,5.75S355.63,88,364.59,88c11.42,0,12.67-7.5,12.67-10.58C377.26,75.33,375.34,71.58,371.68,70.08Z" />
  <path
     id="path36"
     d="M383.41,17.85V26.5a16,16,0,0,1,0,31v8.65A24.51,24.51,0,0,0,383.41,17.85Z"
     class="cls-1" />
  <path
     id="path38"
     d="M362.82,53.52a27,27,0,0,1,6.19.8,16,16,0,0,1,6.15-27.82V17.85A24.49,24.49,0,0,0,358,54.19,16.66,16.66,0,0,1,362.82,53.52Z"
     class="cls-1" />
  <rect
     id="rect40"
     transform="translate(140.71 -255.68) rotate(45)"
     height="9.53"
     width="22.83"
     y="37.24"
     x="367.57"
     class="cls-1" />
  <rect
     id="rect42"
     transform="translate(676.68 -196.27) rotate(135)"
     height="9.53"
     width="22.83"
     y="37.24"
     x="367.57"
     class="cls-1" />
  <path
     id="path44"
     d="M357.76,12.75V7.58c-0.54-.9-3.48-2.83-9.29-2.83-8.12,0-9,10.33-9,10.33v5.67l-39.36,3.33,40.33,1.83v7.33l-33.9,2.84,33.9,2.16V52.88a12,12,0,0,1,7,2.84l0.51,0.1V25.91h9.83V20.75H347.43V16.91C347.43,10.25,356.22,12.06,357.76,12.75Z"
     class="cls-1" />
</svg>
