<?xml version="1.0" encoding="UTF-8" ?>
<!DOCTYPE svg PUBLIC "-//W3C//DTD SVG 1.1//EN" "http://www.w3.org/Graphics/SVG/1.1/DTD/svg11.dtd">
<svg width="328pt" height="52pt" viewBox="0 0 328 52" version="1.1" xmlns="http://www.w3.org/2000/svg">
<path fill="#fcfefc" d=" M 0.00 0.00 L 134.81 0.00 C 133.53 5.10 132.73 10.31 131.77 15.48 C 126.92 14.49 121.65 14.53 117.24 17.04 C 108.99 21.24 104.07 30.83 104.90 39.98 C 104.71 45.27 108.01 50.61 113.27 52.00 L 0.00 52.00 L 0.00 0.00 Z" />
<path fill="#9ab3da" d=" M 134.81 0.00 L 145.24 0.00 C 143.92 8.33 142.07 16.56 140.59 24.87 C 139.09 33.51 136.72 42.06 136.75 50.89 C 133.43 51.09 130.11 51.11 126.80 51.06 C 126.87 49.64 126.94 48.23 127.01 46.81 C 124.65 49.11 121.94 51.09 118.73 52.00 L 113.27 52.00 C 108.01 50.61 104.71 45.27 104.90 39.98 C 104.07 30.83 108.99 21.24 117.24 17.04 C 121.65 14.53 126.92 14.49 131.77 15.48 C 132.73 10.31 133.53 5.10 134.81 0.00 Z" />
<path fill="#fcfefc" d=" M 145.24 0.00 L 215.31 0.00 C 213.18 1.72 211.22 4.11 211.91 7.06 C 212.37 12.88 222.08 12.37 223.14 7.07 C 224.34 4.44 222.65 1.80 220.80 0.00 L 328.00 0.00 L 328.00 14.89 C 322.33 13.98 317.18 17.16 314.30 21.87 C 314.42 19.90 314.54 17.92 314.64 15.94 C 311.48 15.90 308.33 15.93 305.19 16.07 C 305.16 21.88 303.98 27.57 303.36 33.32 C 302.48 37.84 301.74 42.38 300.69 46.87 C 300.47 47.81 300.26 48.75 300.07 49.69 L 299.92 50.87 C 303.51 51.07 307.12 51.10 310.72 50.83 C 312.31 43.86 312.43 36.32 315.94 29.93 C 317.90 26.32 322.06 25.29 325.82 24.78 C 326.29 21.86 327.09 19.01 328.00 16.19 L 328.00 52.00 L 283.47 52.00 C 286.40 51.18 289.66 50.86 292.17 49.01 C 292.20 46.64 291.88 44.28 291.67 41.92 C 290.26 42.45 288.85 42.99 287.46 43.53 L 287.42 43.54 C 284.60 44.00 281.72 44.12 278.90 43.64 C 278.06 43.35 277.24 43.05 276.43 42.73 C 274.90 41.38 274.28 39.45 273.69 37.57 C 280.12 37.39 287.16 37.56 292.70 33.79 C 298.35 29.97 298.00 20.36 292.08 16.96 C 284.75 12.91 275.02 15.60 269.70 21.76 C 264.25 28.05 262.17 37.69 265.93 45.32 C 267.57 48.87 271.37 50.44 274.69 52.00 L 118.73 52.00 C 121.94 51.09 124.65 49.11 127.01 46.81 C 126.94 48.23 126.87 49.64 126.80 51.06 C 130.11 51.11 133.43 51.09 136.75 50.89 C 136.72 42.06 139.09 33.51 140.59 24.87 C 142.07 16.56 143.92 8.33 145.24 0.00 Z" />
<path fill="#9ab3da" d=" M 215.31 0.00 L 220.80 0.00 C 222.65 1.80 224.34 4.44 223.14 7.07 C 222.08 12.37 212.37 12.88 211.91 7.06 C 211.22 4.11 213.18 1.72 215.31 0.00 Z" />
<path fill="#fc0204" d=" M 52.57 1.84 C 55.82 1.90 60.34 3.13 60.58 7.04 C 61.03 9.83 58.49 11.54 56.17 12.24 C 56.15 12.96 56.10 14.40 56.08 15.12 C 52.32 15.86 53.95 11.39 53.54 9.16 C 55.22 8.93 57.42 9.15 57.57 6.87 C 56.68 4.88 54.31 5.17 52.56 4.83 C 52.56 4.08 52.57 2.58 52.57 1.84 Z" />
<path fill="#3a5a81" d=" M 80.38 2.17 C 84.86 1.86 89.36 2.00 93.85 2.05 C 95.66 18.38 97.62 34.69 99.46 51.01 C 95.80 51.08 92.14 51.11 88.49 50.83 C 88.48 46.53 87.96 42.27 87.59 37.99 C 82.87 38.07 78.13 37.78 73.42 38.22 C 71.96 42.10 70.30 45.91 68.47 49.63 C 68.00 46.53 70.08 43.83 71.10 41.04 C 71.91 39.70 72.25 37.58 74.01 37.18 C 78.81 36.50 83.70 36.82 88.51 37.29 C 89.09 41.43 89.52 45.58 89.90 49.74 C 92.56 49.74 95.22 49.75 97.88 49.77 C 96.67 34.14 94.83 18.55 92.97 2.98 C 89.00 2.95 85.03 2.95 81.06 3.00 C 77.69 10.05 74.05 16.97 70.94 24.15 C 67.08 32.73 62.61 41.03 59.01 49.73 C 62.09 49.72 65.16 49.72 68.24 49.79 L 68.16 50.93 C 64.46 51.15 60.75 51.40 57.06 50.94 C 64.81 34.68 72.75 18.50 80.38 2.17 Z" />
<path fill="#9ab3da" d=" M 81.06 3.00 C 85.03 2.95 89.00 2.95 92.97 2.98 C 94.83 18.55 96.67 34.14 97.88 49.77 C 95.22 49.75 92.56 49.74 89.90 49.74 C 89.52 45.58 89.09 41.43 88.51 37.29 C 83.70 36.82 78.81 36.50 74.01 37.18 C 72.25 37.58 71.91 39.70 71.10 41.04 C 70.08 43.83 68.00 46.53 68.47 49.63 L 68.48 49.79 L 68.24 49.79 C 65.16 49.72 62.09 49.72 59.01 49.73 C 62.61 41.03 67.08 32.73 70.94 24.15 C 74.05 16.97 77.69 10.05 81.06 3.00 Z" />
<path fill="#fc0204" d=" M 44.55 6.49 C 45.23 5.77 46.85 6.96 46.66 7.82 C 45.01 9.58 42.98 10.92 41.09 12.38 C 43.01 14.10 45.02 15.71 47.03 17.31 C 46.39 17.85 45.73 18.36 45.04 18.83 C 42.27 16.94 39.91 14.53 37.19 12.57 C 39.66 10.56 41.99 8.38 44.55 6.49 Z" />
<path fill="#3a5a81" d=" M 82.91 13.88 C 83.45 12.05 84.53 10.49 85.75 9.06 C 88.06 15.74 86.61 23.08 88.65 29.79 C 84.88 32.11 80.13 30.71 75.96 30.67 C 77.55 24.79 80.97 19.63 82.91 13.88 Z" />
<path fill="#3a5a81" d=" M 5.00 10.97 C 12.30 8.98 20.12 9.04 27.49 10.63 C 29.75 11.04 31.76 12.15 33.35 13.81 C 33.08 24.56 33.40 35.32 33.20 46.07 C 33.16 47.95 31.02 48.82 29.52 49.41 C 21.23 52.00 12.12 51.97 3.87 49.26 C 2.88 48.69 0.97 48.39 1.10 46.90 C 0.91 35.96 0.99 25.01 1.06 14.08 C 1.01 12.05 3.53 11.59 5.00 10.97 Z" />
<path fill="#fcfefc" d=" M 82.15 18.19 C 83.29 15.68 83.86 12.87 85.61 10.68 C 86.13 17.12 86.61 23.57 87.24 30.00 C 83.78 30.01 80.31 30.01 76.85 29.98 C 78.51 26.00 80.42 22.14 82.15 18.19 Z" />
<path fill="#fcfefc" d=" M 2.86 14.95 C 7.63 11.90 13.60 12.01 19.05 12.03 C 23.08 12.36 27.46 12.52 30.87 14.96 C 25.80 17.98 19.65 17.83 13.95 17.72 C 10.13 17.49 6.18 17.02 2.86 14.95 Z" />
<path fill="#9ab3da" d=" M 159.17 19.81 C 162.24 16.66 166.41 14.30 170.96 14.90 C 174.59 14.52 177.23 17.18 179.00 20.00 C 182.10 17.98 184.99 14.94 188.96 14.95 C 191.28 15.00 194.04 14.41 195.94 16.11 C 199.31 18.50 200.39 23.10 199.67 26.99 C 198.35 35.06 196.71 43.08 195.16 51.10 C 191.72 51.41 188.26 51.59 184.81 51.31 C 185.58 45.54 186.94 39.88 187.77 34.12 C 188.11 30.89 190.14 27.15 187.73 24.26 C 186.16 23.36 184.05 23.45 182.69 24.70 C 179.25 27.51 178.19 32.08 177.34 36.22 C 176.56 41.02 175.40 45.75 174.78 50.57 C 172.05 49.20 168.93 49.78 166.00 49.77 C 166.10 44.55 168.55 39.45 167.41 34.25 C 167.37 34.01 167.27 33.53 167.22 33.29 L 167.60 33.42 C 167.86 33.52 168.39 33.70 168.65 33.80 C 169.08 30.40 170.69 26.07 167.58 23.41 C 165.20 20.88 161.25 23.17 159.61 25.50 C 154.73 32.62 154.67 41.60 152.82 49.76 C 149.82 49.87 146.78 49.83 143.87 49.03 C 145.99 38.02 148.01 26.99 149.88 15.95 C 152.92 15.95 155.95 15.94 158.99 15.97 C 159.05 17.25 159.11 18.53 159.17 19.81 Z" />
<path fill="#9ab3da" d=" M 237.92 20.27 C 241.38 17.49 245.25 14.44 249.98 14.89 C 254.02 14.38 257.96 17.06 258.86 21.04 C 259.56 26.26 258.81 31.54 257.56 36.62 L 257.18 36.59 C 257.05 36.15 256.79 35.28 256.66 34.84 C 255.51 39.78 254.60 44.76 253.65 49.74 C 251.23 49.74 248.82 49.75 246.41 49.76 C 246.05 48.26 245.69 46.75 245.36 45.24 C 245.13 44.40 245.27 43.62 245.79 42.91 C 245.92 43.52 246.19 44.74 246.32 45.35 C 247.20 41.75 248.38 37.98 247.43 34.27 C 247.39 34.05 247.30 33.60 247.26 33.38 L 247.60 33.44 C 247.87 33.49 248.41 33.60 248.68 33.65 C 249.13 30.33 250.48 26.03 247.53 23.45 C 244.23 20.96 239.98 24.14 238.25 27.09 C 234.35 33.89 234.08 41.99 232.38 49.49 C 229.78 49.68 227.18 49.79 224.58 49.85 C 225.01 42.28 228.16 34.97 227.46 27.36 C 227.35 23.52 228.57 19.78 229.07 15.99 C 232.29 15.94 235.52 15.85 238.73 16.17 C 238.46 17.53 238.18 18.90 237.92 20.27 Z" />
<path fill="#3a5a81" d=" M 269.70 21.76 C 275.02 15.60 284.75 12.91 292.08 16.96 C 298.00 20.36 298.35 29.97 292.70 33.79 C 287.16 37.56 280.12 37.39 273.69 37.57 C 274.28 39.45 274.90 41.38 276.43 42.73 C 272.96 43.37 273.17 38.84 273.40 36.54 C 280.03 36.23 287.73 36.82 293.05 32.09 C 298.21 27.60 295.73 17.78 288.89 16.58 C 278.52 13.51 267.49 21.58 265.65 31.87 C 264.41 37.80 265.06 45.82 271.09 48.95 C 277.27 52.03 284.47 50.65 290.81 48.85 C 290.82 47.06 290.83 45.28 290.85 43.49 C 289.72 43.49 288.58 43.49 287.46 43.53 C 288.85 42.99 290.26 42.45 291.67 41.92 C 291.88 44.28 292.20 46.64 292.17 49.01 C 289.66 50.86 286.40 51.18 283.47 52.00 L 274.69 52.00 C 271.37 50.44 267.57 48.87 265.93 45.32 C 262.17 37.69 264.25 28.05 269.70 21.76 Z" />
<path fill="#9ab3da" d=" M 314.30 21.87 C 317.18 17.16 322.33 13.98 328.00 14.89 L 328.00 16.19 C 327.09 19.01 326.29 21.86 325.82 24.78 C 322.06 25.29 317.90 26.32 315.94 29.93 C 312.43 36.32 312.31 43.86 310.72 50.83 C 307.75 48.57 303.55 50.11 300.07 49.69 C 300.26 48.75 300.47 47.81 300.69 46.87 C 300.84 47.50 301.13 48.77 301.27 49.41 C 302.44 44.15 304.20 38.75 303.36 33.32 C 303.98 27.57 305.16 21.88 305.19 16.07 C 308.33 15.93 311.48 15.90 314.64 15.94 C 314.54 17.92 314.42 19.90 314.30 21.87 Z" />
<path fill="#fc0204" d=" M 53.19 17.83 C 52.83 15.63 55.48 16.01 56.88 16.28 C 57.71 18.77 54.15 20.27 53.19 17.83 Z" />
<path fill="#3a5a81" d=" M 210.50 16.17 C 213.97 15.93 217.45 15.97 220.93 16.01 C 218.89 27.24 216.65 38.43 214.51 49.64 C 214.30 49.23 213.88 48.41 213.67 48.00 C 215.65 37.65 217.89 27.35 219.88 17.01 C 216.99 16.96 214.10 16.97 211.21 17.04 C 209.44 27.99 207.28 38.87 205.28 49.78 C 208.42 49.80 211.73 49.21 214.70 50.51 C 211.20 51.59 207.53 51.26 203.94 51.06 C 206.03 39.41 208.47 27.83 210.50 16.17 Z" />
<path fill="#9ab3da" d=" M 265.65 31.87 C 267.49 21.58 278.52 13.51 288.89 16.58 C 295.73 17.78 298.21 27.60 293.05 32.09 C 287.73 36.82 280.03 36.23 273.40 36.54 C 273.17 38.84 272.96 43.37 276.43 42.73 C 277.24 43.05 278.06 43.35 278.90 43.64 C 278.72 43.95 278.37 44.56 278.19 44.86 C 281.24 45.28 285.09 46.15 287.42 43.54 L 287.46 43.53 C 288.58 43.49 289.72 43.49 290.85 43.49 C 290.83 45.28 290.82 47.06 290.81 48.85 C 284.47 50.65 277.27 52.03 271.09 48.95 C 265.06 45.82 264.41 37.80 265.65 31.87 Z" />
<path fill="#9ab3da" d=" M 211.21 17.04 C 214.10 16.97 216.99 16.96 219.88 17.01 C 217.89 27.35 215.65 37.65 213.67 48.00 C 213.88 48.41 214.30 49.23 214.51 49.64 C 214.65 49.88 214.92 50.38 215.05 50.63 L 214.70 50.51 C 211.73 49.21 208.42 49.80 205.28 49.78 C 207.28 38.87 209.44 27.99 211.21 17.04 Z" />
<path fill="#fcfefc" d=" M 3.11 18.08 C 11.90 21.29 21.91 20.99 30.77 18.18 C 30.74 20.63 30.92 23.10 30.55 25.52 C 25.88 28.12 20.28 28.14 15.08 28.14 C 11.16 27.83 6.94 27.70 3.47 25.65 C 2.43 23.36 3.22 20.57 3.11 18.08 Z" />
<path fill="#3a5a81" d=" M 274.14 30.78 C 274.23 25.40 279.70 20.10 285.13 21.86 C 288.45 22.52 288.78 27.42 286.09 29.07 C 282.53 31.23 278.14 31.02 274.14 30.78 Z" />
<path fill="#3a5a81" d=" M 119.62 24.67 C 122.56 22.05 128.11 20.53 130.89 24.06 C 130.68 27.77 129.86 31.43 129.01 35.04 C 128.33 37.22 127.97 39.90 125.74 41.08 L 126.07 39.86 C 128.62 34.86 129.16 29.22 130.15 23.78 C 126.83 22.58 122.84 22.68 120.27 25.39 C 116.41 29.38 114.43 35.85 116.63 41.12 C 117.53 43.62 120.55 43.80 122.71 43.06 L 124.12 42.79 C 122.31 45.79 117.42 44.96 115.98 42.00 C 112.95 36.28 115.57 29.20 119.62 24.67 Z" />
<path fill="#3a5a81" d=" M 159.61 25.50 C 161.25 23.17 165.20 20.88 167.58 23.41 C 170.69 26.07 169.08 30.40 168.65 33.80 C 168.39 33.70 167.86 33.52 167.60 33.42 C 168.03 30.19 169.93 24.86 165.84 23.25 C 161.06 23.04 158.76 28.19 157.41 31.99 C 155.78 38.20 154.97 44.60 153.83 50.92 C 150.56 51.10 147.30 51.17 144.03 51.06 C 143.99 50.55 143.91 49.54 143.87 49.03 C 146.78 49.83 149.82 49.87 152.82 49.76 C 154.67 41.60 154.73 32.62 159.61 25.50 Z" />
<path fill="#3a5a81" d=" M 238.25 27.09 C 239.98 24.14 244.23 20.96 247.53 23.45 C 250.48 26.03 249.13 30.33 248.68 33.65 C 248.41 33.60 247.87 33.49 247.60 33.44 C 247.96 30.52 249.06 27.23 247.49 24.47 C 244.38 21.83 240.31 25.02 238.79 27.95 C 235.00 34.98 235.33 43.34 233.10 50.86 C 229.74 51.39 226.33 51.32 222.96 51.08 C 224.46 43.18 225.82 35.24 227.46 27.36 C 228.16 34.97 225.01 42.28 224.58 49.85 C 227.18 49.79 229.78 49.68 232.38 49.49 C 234.08 41.99 234.35 33.89 238.25 27.09 Z" />
<path fill="#fcfefc" d=" M 120.27 25.39 C 122.84 22.68 126.83 22.58 130.15 23.78 C 129.16 29.22 128.62 34.86 126.07 39.86 C 124.98 40.96 123.87 42.04 122.71 43.06 C 120.55 43.80 117.53 43.62 116.63 41.12 C 114.43 35.85 116.41 29.38 120.27 25.39 Z" />
<path fill="#fcfefc" d=" M 274.85 29.99 C 275.99 25.71 280.02 21.29 284.84 22.73 C 287.43 23.23 287.72 27.20 285.51 28.37 C 282.27 30.16 278.42 29.91 274.85 29.99 Z" />
<path fill="#fcfefc" d=" M 3.00 28.60 C 11.93 31.35 21.89 31.65 30.74 28.42 C 30.73 30.83 30.94 33.26 30.55 35.65 C 26.90 38.15 22.16 38.04 17.91 38.41 C 12.97 38.31 7.65 38.27 3.22 35.79 C 2.85 33.41 3.02 31.00 3.00 28.60 Z" />
<path fill="#3a5a81" d=" M 303.36 33.32 C 304.20 38.75 302.44 44.15 301.27 49.41 C 301.13 48.77 300.84 47.50 300.69 46.87 C 301.74 42.38 302.48 37.84 303.36 33.32 Z" />
<path fill="#3a5a81" d=" M 167.41 34.25 C 168.55 39.45 166.10 44.55 166.00 49.77 C 168.93 49.78 172.05 49.20 174.78 50.57 C 171.32 51.47 167.71 51.35 164.21 50.81 C 165.52 45.34 166.28 39.76 167.41 34.25 Z" />
<path fill="#3a5a81" d=" M 247.43 34.27 C 248.38 37.98 247.20 41.75 246.32 45.35 C 246.19 44.74 245.92 43.52 245.79 42.91 C 246.25 40.01 246.84 37.14 247.43 34.27 Z" />
<path fill="#3a5a81" d=" M 253.65 49.74 C 254.60 44.76 255.51 39.78 256.66 34.84 C 256.79 35.28 257.05 36.15 257.18 36.59 C 256.54 41.37 255.38 46.06 254.64 50.82 C 251.19 51.54 247.67 51.47 244.22 50.79 C 244.61 48.94 244.97 47.09 245.36 45.24 C 245.69 46.75 246.05 48.26 246.41 49.76 C 248.82 49.75 251.23 49.74 253.65 49.74 Z" />
<path fill="#fcfefc" d=" M 3.00 38.84 C 11.96 41.74 21.79 41.60 30.78 38.91 C 30.76 41.18 30.87 43.46 30.62 45.73 C 28.59 47.69 25.49 47.78 22.86 48.26 C 16.24 48.95 9.17 48.95 3.04 46.06 C 3.02 43.65 3.00 41.24 3.00 38.84 Z" />
<path fill="#3a5a81" d=" M 278.90 43.64 C 281.72 44.12 284.60 44.00 287.42 43.54 C 285.09 46.15 281.24 45.28 278.19 44.86 C 278.37 44.56 278.72 43.95 278.90 43.64 Z" />
<path fill="#3a5a81" d=" M 300.07 49.69 C 303.55 50.11 307.75 48.57 310.72 50.83 C 307.12 51.10 303.51 51.07 299.92 50.87 L 300.07 49.69 Z" />
</svg>
