<?xml version="1.0" encoding="utf-8"?>
<!-- Generator: Adobe Illustrator 18.1.1, SVG Export Plug-In . SVG Version: 6.00 Build 0)  -->
<svg version="1.1" id="Typo" xmlns="http://www.w3.org/2000/svg" xmlns:xlink="http://www.w3.org/1999/xlink" x="0px" y="0px"
	 viewBox="0 0 93.5 148.8" enable-background="new 0 0 93.5 148.8" xml:space="preserve">
<g>
	<path d="M80.9,43l-0.1-0.1c-1.2-2.1-3.2-3.5-5.4-4.1c-2.3-0.6-4.7-0.3-6.8,0.9h0c-2.2,1.2-3.6,3.2-4.2,5.5
		c-0.6,2.2-0.3,4.7,0.9,6.8l0,0.1c1.2,2.1,3.2,3.5,5.4,4.1c2.2,0.6,4.7,0.4,6.8-0.9l0.1-0.1c2.1-1.2,3.5-3.2,4.1-5.4
		C82.4,47.6,82.1,45.1,80.9,43L80.9,43z M30.6,49.8L30.6,49.8c5.2,0.9,9.9,3.4,13.5,7h0c0.6,0.6,1.1,1.2,1.6,1.8l9-5.2
		c-1.2-3.6-1.3-7.4-0.3-11c1.3-4.8,4.4-9.1,9-11.7l0.2-0.1c4.6-2.6,9.8-3.1,14.5-1.9c4.8,1.3,9.1,4.4,11.8,9v0
		c2.7,4.6,3.2,9.9,1.9,14.7c-1.3,4.8-4.4,9.1-9,11.7l-1.2,0.7h-0.1c-4.3,2-9,2.4-13.3,1.2c-3.6-0.9-6.8-2.9-9.4-5.7l-8.9,5.2
		c1,2.7,1.6,5.7,1.6,8.7c0,3.1-0.6,6.1-1.6,8.8l8.9,5.1c2.6-2.9,5.8-4.8,9.4-5.7c4.8-1.3,10.1-0.8,14.7,1.9l0.3,0.1v0
		c4.5,2.7,7.5,6.9,8.7,11.6c1.3,4.7,0.7,10-1.9,14.6l-0.2,0.3l0,0l0,0c-2.7,4.5-6.9,7.5-11.6,8.8c-4.8,1.3-10.1,0.7-14.7-1.9v0
		c-4.6-2.7-7.7-7-9-11.7c-1-3.6-0.9-7.4,0.3-11l-9-5.2c-0.5,0.6-1.1,1.2-1.6,1.8l0,0c-3.6,3.6-8.3,6.1-13.5,6.9v10.4
		c3.7,0.8,7.1,2.6,9.7,5.2l0,0l0,0c3.5,3.5,5.7,8.3,5.7,13.7c0,5.3-2.2,10.1-5.7,13.6l0,0.1l0,0c-3.5,3.5-8.4,5.7-13.7,5.7
		c-5.3,0-10.2-2.2-13.7-5.7h0v-0.1c-3.5-3.5-5.7-8.3-5.7-13.6c0-5.3,2.2-10.2,5.7-13.7v0h0c2.6-2.6,5.9-4.5,9.7-5.2V98.8
		c-5.2-0.8-9.9-3.3-13.5-6.9l0,0c-4.5-4.5-7.3-10.7-7.3-17.5c0-6.8,2.8-13,7.3-17.5h0c3.6-3.6,8.3-6.1,13.5-7V39.5
		c-3.7-0.8-7-2.7-9.7-5.3h0v0c-3.5-3.5-5.7-8.3-5.7-13.7c0-5.3,2.2-10.2,5.7-13.7l0,0l0,0c3.5-3.5,8.4-5.7,13.7-5.7
		c5.3,0,10.2,2.2,13.7,5.7v0h0c3.5,3.5,5.7,8.4,5.7,13.7c0,5.3-2.2,10.1-5.7,13.7l0,0c-2.6,2.6-5.9,4.5-9.7,5.3V49.8L30.6,49.8z
		 M35.8,65.1L35.8,65.1c-2.4-2.4-5.6-3.8-9.2-3.8c-3.6,0-6.8,1.5-9.2,3.8c-2.3,2.3-3.8,5.6-3.8,9.2c0,3.6,1.4,6.9,3.8,9.2
		c2.4,2.3,5.6,3.8,9.2,3.8c3.6,0,6.8-1.5,9.2-3.8c2.3-2.4,3.8-5.6,3.8-9.2C39.5,70.7,38.1,67.5,35.8,65.1L35.8,65.1z M75.4,109.9
		L75.4,109.9c2.2-0.6,4.2-2,5.5-4.2l0.2-0.3l0,0c1.1-2,1.3-4.4,0.7-6.5c-0.6-2.2-2-4.2-4.2-5.5l-0.1-0.1c-2.1-1.1-4.5-1.4-6.7-0.8
		c-2.2,0.6-4.2,2-5.5,4.2c-1.2,2.1-1.5,4.6-0.9,6.8c0.6,2.2,2,4.2,4.2,5.5h0C70.8,110.2,73.2,110.5,75.4,109.9L75.4,109.9z
		 M26.6,137.1L26.6,137.1c2.5,0,4.7-1,6.4-2.6l0,0c1.6-1.6,2.6-3.8,2.6-6.3c0-2.5-1-4.7-2.6-6.4h0c-1.6-1.6-3.9-2.6-6.4-2.6
		c-2.5,0-4.7,1-6.3,2.6h0c-1.6,1.6-2.6,3.9-2.6,6.4c0,2.5,1,4.7,2.6,6.3l0,0C21.8,136,24.1,137.1,26.6,137.1L26.6,137.1z M32.9,14.2
		L32.9,14.2c-1.6-1.6-3.9-2.6-6.4-2.6c-2.5,0-4.7,1-6.3,2.6h0c-1.6,1.6-2.6,3.9-2.6,6.4c0,2.5,1,4.7,2.6,6.3l0,0
		c1.6,1.6,3.8,2.6,6.3,2.6c2.5,0,4.7-1,6.4-2.6l0,0c1.6-1.6,2.6-3.8,2.6-6.3C35.5,18.1,34.5,15.8,32.9,14.2L32.9,14.2z"/>
</g>
</svg>
