<?xml version="1.0" encoding="UTF-8" standalone="no"?>
<!-- Created with Inkscape (http://www.inkscape.org/) -->

<svg
   xmlns:dc="http://purl.org/dc/elements/1.1/"
   xmlns:cc="http://creativecommons.org/ns#"
   xmlns:rdf="http://www.w3.org/1999/02/22-rdf-syntax-ns#"
   xmlns:svg="http://www.w3.org/2000/svg"
   xmlns="http://www.w3.org/2000/svg"
   xmlns:sodipodi="http://sodipodi.sourceforge.net/DTD/sodipodi-0.dtd"
   xmlns:inkscape="http://www.inkscape.org/namespaces/inkscape"
   width="624.04559"
   height="624.04559"
   viewBox="0 0 624.04561 624.04561"
   id="svg4956"
   version="1.1"
   inkscape:version="0.91 r"
   sodipodi:docname="octi-logo-rancher.svg"
   inkscape:export-filename="/home/mashinista/Downloads/octi-test.png"
   inkscape:export-xdpi="72.110115"
   inkscape:export-ydpi="72.110115">
  <defs
     id="defs4958">
    <clipPath
       clipPathUnits="userSpaceOnUse"
       id="clipPath372">
      <path
         d="m 0,1080 1920,0 L 1920,0 0,0 0,1080 Z"
         id="path374"
         inkscape:connector-curvature="0" />
    </clipPath>
  </defs>
  <sodipodi:namedview
     id="base"
     pagecolor="#ffffff"
     bordercolor="#666666"
     borderopacity="1.0"
     inkscape:pageopacity="0.0"
     inkscape:pageshadow="2"
     inkscape:zoom="0.49497475"
     inkscape:cx="-28.594486"
     inkscape:cy="393.80053"
     inkscape:document-units="px"
     inkscape:current-layer="layer1"
     showgrid="false"
     inkscape:window-width="1920"
     inkscape:window-height="1025"
     inkscape:window-x="0"
     inkscape:window-y="0"
     inkscape:window-maximized="1"
     units="px"
     fit-margin-top="0.1"
     fit-margin-left="0"
     fit-margin-right="0"
     fit-margin-bottom="0" />
  <metadata
     id="metadata4961">
    <rdf:RDF>
      <cc:Work
         rdf:about="">
        <dc:format>image/svg+xml</dc:format>
        <dc:type
           rdf:resource="http://purl.org/dc/dcmitype/StillImage" />
        <dc:title></dc:title>
      </cc:Work>
    </rdf:RDF>
  </metadata>
  <g
     inkscape:label="Layer 1"
     inkscape:groupmode="layer"
     id="layer1"
     transform="translate(196.87347,-205.46254)">
    <g
       id="g6489"
       transform="matrix(4.8754662,0,0,4.8754662,-1589.5876,-192.06545)"
       inkscape:export-xdpi="72"
       inkscape:export-ydpi="72">
      <path
         inkscape:connector-curvature="0"
         id="path346"
         style="fill:#0a6699;fill-opacity:1;fill-rule:nonzero;stroke:none"
         d="m 305.98604,132.21938 c -0.995,3.83625 0.1425,8.525 6.53625,12.7875 0.8525,0.5675 1.5625,0.99375 2.2725,1.42 l -0.28375,1.42125 c -0.1425,0.42625 0.14125,0.995 0.5675,1.13625 l 1.56375,0.71125 c 0.42625,0.14125 0.8525,0.14125 1.27875,-0.285 l 0.99375,-1.13625 c 1.27875,-1.705 2.98375,-3.41 5.4,-5.54125 -0.42625,-0.56875 -0.8525,-1.42125 -1.1375,-2.27375 -7.10375,-0.14125 -9.945,-1.98875 -10.51375,-4.9725 -0.71,-3.55125 1.27875,-7.53 4.68875,-7.3875 4.9725,0.14125 2.5575,3.2675 1.8475,3.2675 -0.71125,0 -1.1375,-0.28375 -1.42125,-0.56875 -0.42625,-0.42625 -0.995,-0.14125 -0.995,0.42625 0,1.42125 1.56375,3.41 4.68875,1.8475 2.8425,-1.42125 2.98375,-3.69375 2.13125,-5.54125 -0.8525,-2.27375 -2.5575,-3.41 -4.54625,-3.83625 l -0.1425,-0.42625 c 0,-0.42625 -0.42625,-0.71 -0.71,-0.71 l -1.42125,-0.1425 c -0.42625,0 -0.71,0.1425 -0.8525,0.56875 l -0.14125,0.71 c -1.27875,0.1425 -2.5575,0.42625 -3.5525,0.8525 l -0.71,-0.5675 c -0.28375,-0.285 -0.71,-0.1425 -0.995,0 l -0.99375,0.8525 c -0.285,0.28375 -0.42625,0.5675 -0.285,0.99375 l 0.285,0.56875 c -0.71125,0.71 -1.56375,1.705 -2.13125,2.69875 l -0.42625,-0.14125 c -0.42625,-0.1425 -0.71125,0.14125 -0.995,0.42625 l -0.56875,1.27875 c -0.14125,0.28375 -0.14125,0.71 0.1425,0.99375 l 0.42625,0.56875 z" />
      <path
         inkscape:connector-curvature="0"
         id="path354-1"
         style="fill:#0a6699;fill-opacity:1;fill-rule:nonzero;stroke:none"
         d="m 350.88304,145.57488 c -2.98375,0 -5.39875,-2.415 -5.39875,-5.39875 0,-2.98375 2.415,-5.39875 5.39875,-5.39875 2.98375,0 5.39875,2.415 5.39875,5.39875 0,2.98375 -2.415,5.39875 -5.39875,5.39875 m 62.23125,23.15875 -0.8525,0 c 0,-1.5625 -0.285,-2.84125 -0.56875,-4.12 l 0.42625,-0.56875 c 0.42625,-0.5675 0.42625,-1.27875 0.1425,-1.5625 l -0.71125,-0.995 c -0.14125,-0.14125 -0.8525,-0.28375 -1.5625,-0.28375 l -0.1425,0 c -0.8525,-1.13625 -1.84625,-1.98875 -2.98375,-2.7 l -0.28375,-1.27875 c -0.1425,-0.5675 -0.56875,-1.13625 -1.13625,-1.27875 l -1.27875,-0.14125 c -0.285,0 -0.995,0.5675 -1.42125,1.13625 -0.8525,-0.1425 -1.705,-0.28375 -2.69875,-0.28375 -4.68875,0 -9.09375,2.415 -9.52,6.96125 -0.1425,1.99 -0.1425,4.405 3.97875,6.82 1.13625,0.71 2.415,0.995 3.55125,0.995 3.41,0 6.53625,-2.13125 5.68375,-5.2575 -0.56875,-2.415 -2.27375,-3.2675 -3.97875,-3.2675 -1.27875,0 -2.415,0.56875 -2.98375,1.13625 -0.99375,1.42125 -0.28375,3.12625 0.71125,3.12625 0.99375,0 0.71,-0.8525 0.71,-0.8525 -0.56875,-0.995 0.1425,-1.42125 1.13625,-1.42125 0.8525,0 1.8475,0.42625 1.8475,1.5625 0.1425,1.56375 -1.8475,2.13125 -2.5575,2.27375 l -0.1425,0 c -4.54625,0 -4.40375,-4.2625 -3.55125,-5.25625 1.27875,-1.8475 3.125,-2.5575 4.68875,-2.5575 4.12,0 7.95625,4.40375 5.39875,9.66125 -0.8525,1.84625 -2.27375,3.41 -5.39875,3.41 -1.8475,0 -4.405,-0.56875 -7.815,-2.13125 -14.2075,-6.11 -35.3775,-16.055 -32.53625,-24.01125 2.84125,-7.9575 13.35625,-2.41625 21.59625,-17.1925 6.25125,-11.22375 -0.28375,-21.88 -5.9675,-24.86375 -4.12,-2.13125 -8.09875,-3.125 -11.65,-3.125 -19.89125,0 -30.69,28.5575 -30.69,28.5575 0,0 -0.85125,-0.1425 -1.98875,-0.1425 -1.13625,0 -2.5575,0.1425 -3.55125,0.8525 -6.53625,4.97375 -0.995,11.0825 -0.995,11.0825 -10.37125,8.80875 -8.525,12.5025 -16.765,21.45375 -2.8425,3.12625 -6.11,4.54625 -9.09375,4.54625 -4.68875,0 -8.525,-3.69375 -8.09875,-9.0925 0.285,-3.97875 3.26875,-6.39375 6.53625,-6.9625 0.42625,-0.14125 0.8525,-0.14125 1.27875,-0.14125 3.55125,0 5.25625,2.98375 3.83625,5.825 0,0 -1.1375,2.84125 -3.41,2.98375 l -0.1425,0 c -2.13125,0 -1.84625,-2.415 -1.13625,-2.98375 0.1425,-0.1425 0.42625,-0.1425 0.56875,-0.1425 0.42625,0 0.71,0.285 1.13625,0.285 0.1425,0 0.28375,0 0.42625,-0.1425 0.99375,-0.42625 0.8525,-1.27875 0.8525,-1.27875 -0.1425,-1.13625 -0.995,-1.5625 -2.13125,-1.5625 -0.71,0 -1.5625,0.28375 -2.13125,0.5675 -2.13125,1.1375 -2.7,4.2625 -1.27875,6.2525 0.8525,1.27875 2.27375,1.98875 3.97875,1.98875 2.9825,0 6.6775,-2.13125 8.0975,-6.39375 1.42125,-4.12 -1.705,-11.0825 -8.95,-11.0825 -1.56375,0 -3.26875,0.285 -5.115,0.995 -15.62875,5.6825 -8.3825,32.11 5.39875,32.11 0.71,0 1.27875,0 1.98875,-0.1425 2.98375,-0.5675 5.68375,-1.98875 8.24125,-3.83625 l 0.28375,0.285 c 0.28375,0.28375 0.56875,0.42625 0.8525,0.42625 0.28375,0 0.56875,-0.1425 0.8525,-0.285 l 1.27875,-1.13625 c 0.42625,-0.28375 0.56875,-0.8525 0.42625,-1.42125 l -0.28375,-0.8525 c 0.99375,-0.8525 1.84625,-1.84625 2.69875,-2.69875 l 0.42625,0.28375 c 0.28375,0.1425 0.42625,0.1425 0.71,0.1425 0.42625,0 0.71125,-0.1425 0.995,-0.42625 l 0.995,-1.27875 c 0.28375,-0.42625 0.42625,-0.995 0.14125,-1.42125 l -0.42625,-0.71 c 0.8525,-1.13625 1.705,-2.13125 2.5575,-3.12625 l 0.285,0.1425 c 0.14125,0.1425 0.42625,0.1425 0.71,0.1425 0.42625,0 0.71,-0.1425 0.995,-0.56875 l 0.99375,-1.27875 c 0.285,-0.42625 0.42625,-0.995 0.1425,-1.42125 l -0.28375,-0.5675 c 1.5625,-1.8475 2.84125,-2.98375 3.83625,-2.98375 0.5675,0 0.99375,0.42625 1.42,1.27875 0.285,0.5675 0.56875,1.27875 1.1375,2.13125 l -0.1425,0.14125 c -0.56875,0.42625 -0.71,1.1375 -0.28375,1.705 l 0.8525,1.42125 c 0.28375,0.42625 0.71,0.56875 1.13625,0.56875 l 0.28375,0 0.28375,0 c 0.56875,0.99375 1.1375,1.98875 1.8475,3.125 -0.56875,0.42625 -0.71,1.13625 -0.28375,1.705 l 0.8525,1.42125 c 0.28375,0.42625 0.71,0.5675 1.13625,0.5675 l 0.28375,0 0.42625,-0.14125 c 0.56875,0.99375 1.27875,1.98875 1.99,2.98375 l -0.1425,0.14125 c -0.42625,0.42625 -0.56875,1.1375 -0.1425,1.705 l 0.995,1.27875 c 0.28375,0.285 0.56875,0.56875 0.995,0.56875 l 0.42625,0 0.28375,-0.1425 c 6.39375,9.09375 14.2075,17.6175 20.175,17.6175 l 0.28375,0 c 10.65625,-0.42625 10.08875,-22.4475 2.5575,-22.4475 -0.42625,0 -0.8525,0 -1.27875,0.14125 -4.83,1.42125 -4.54625,7.38875 -4.54625,7.38875 0,0 2.415,-3.41 3.83625,-3.41 1.13625,0 1.8475,1.705 0.995,7.53 -0.285,2.13125 -1.1375,3.12625 -2.13125,3.12625 -5.39875,0 -18.755,-26.00125 -18.755,-30.5475 0,-0.42625 0.285,-0.56875 0.71125,-0.56875 0.5675,0 1.2775,0.285 2.415,0.71125 l -0.285,0.99375 c -0.14125,0.56875 0.1425,1.27875 0.71125,1.56375 l 1.5625,0.5675 c 0.1425,0 0.28375,0.1425 0.42625,0.1425 0.28375,0 0.71,-0.1425 0.995,-0.42625 l 0.71,-0.8525 c 0.71,0.42625 1.5625,0.8525 2.415,1.27875 l -0.28375,1.13625 c -0.1425,0.56875 0.1425,1.27875 0.71,1.56375 l 1.56375,0.5675 c 0.14125,0 0.28375,0.1425 0.42625,0.1425 0.28375,0 0.71,-0.1425 0.99375,-0.42625 l 0.71125,-0.71 c 0.99375,0.5675 2.13125,1.13625 3.2675,1.84625 l -0.285,0.995 c -0.14125,0.5675 0.1425,1.27875 0.71125,1.5625 l 1.5625,0.56875 c 0.1425,0 0.28375,0.14125 0.42625,0.14125 0.28375,0 0.71,-0.14125 0.995,-0.42625 l 0.5675,-0.5675 c 1.1375,0.5675 2.27375,1.27875 3.26875,1.84625 l -0.285,0.995 c -0.14125,0.56875 0.1425,1.27875 0.71125,1.5625 l 1.5625,0.56875 c 0.1425,0 0.28375,0.1425 0.42625,0.1425 0.28375,0 0.71,-0.1425 0.995,-0.42625 l 0.5675,-0.56875 c 4.2625,2.27375 8.6675,4.54625 12.7875,6.39375 5.39875,2.415 10.94,3.83625 15.62875,3.83625 6.10875,0 10.94,-2.415 12.07625,-8.6675 0,-0.14125 0,-0.42625 0.1425,-0.5675 l 0.56875,-0.1425 c 0.5675,-0.1425 1.13625,-0.71 1.13625,-1.13625 l 0.1425,-1.27875 c 0.28375,-0.56875 0,-0.8525 -0.42625,-0.995" />
      <path
         inkscape:connector-curvature="0"
         id="path358"
         style="fill:#0b81ce;fill-opacity:1;fill-rule:nonzero;stroke:none"
         d="m 347.61529,138.47088 c 0,0 -0.71,3.97875 3.12625,3.97875 3.835,0 3.125,-3.97875 3.125,-3.97875 -3.2675,1.98875 -6.25125,0 -6.25125,0" />
      <path
         inkscape:connector-curvature="0"
         id="path362-5"
         style="fill:#0a6699;fill-opacity:1;fill-rule:nonzero;stroke:none"
         d="m 386.54504,137.47639 c 0.1425,0.28375 0.56875,0.56875 0.995,0.42625 l 0.5675,-0.1425 c 1.27875,1.42125 2.8425,2.27375 2.41625,4.68875 -0.56875,3.12625 -3.97875,5.115 -12.50375,4.9725 -5.25625,-0.14125 -9.0925,-1.98875 -11.36625,-3.40875 -2.98375,0.99375 -4.68875,1.84625 -5.54125,4.26125 -0.42625,1.1375 0,2.41625 0.995,3.97875 1.705,0.71 3.55125,1.42125 5.25625,1.98875 l 0,0.995 c 0,0.42625 0.285,0.8525 0.71125,0.995 l 1.5625,0.5675 c 0.42625,0.1425 0.995,0 1.27875,-0.42625 l 0.56875,-0.8525 c 1.13625,0.285 2.415,0.42625 3.69375,0.56875 l 0.42625,1.27875 c 0.1425,0.42625 0.56875,0.71 0.995,0.71 l 1.705,-0.14125 c 0.425,0 0.85125,-0.42625 0.99375,-0.8525 l 0.1425,-0.8525 c 1.42,-0.1425 2.84125,-0.285 4.2625,-0.71125 l 0.99375,0.995 c 0.285,0.28375 0.8525,0.42625 1.27875,0.28375 l 1.56375,-0.71 c 0.42625,-0.1425 0.71,-0.71 0.5675,-1.13625 l -0.14125,-1.1375 c 0.99375,-0.42625 1.84625,-0.99375 2.84125,-1.705 11.7925,-7.81375 5.825,-14.35 1.98875,-17.475 -3.69375,-3.12625 0.56875,-6.11 5.115,-6.11 1.27875,0 3.5525,0.1425 4.9725,0.285 0.285,0 0.42625,-0.42625 0.1425,-0.56875 -3.5525,-1.98875 -6.82,-2.27375 -9.3775,-1.5625 l -0.28375,-0.285 c -0.28375,-0.28375 -0.56875,-0.42625 -0.995,-0.28375 l -1.27875,0.56875 c -0.42625,0.14125 -0.5675,0.5675 -0.5675,0.8525 l 0,0.42625 c -0.71125,0.42625 -1.27875,0.8525 -1.705,1.42 l -0.56875,-0.28375 c -0.42625,-0.1425 -0.71,0.1425 -0.8525,0.42625 l -0.71,1.13625 c -0.1425,0.28375 -0.1425,0.71 0.14125,0.995 l 0.285,0.28375 c -0.42625,0.995 -0.56875,1.8475 -0.56875,2.7 l -0.56875,0.5675 c -0.28375,0.285 -0.28375,0.71125 -0.14125,0.995 l 0.71,1.27875 z" />
      <path
         inkscape:connector-curvature="0"
         id="path378-5"
         style="fill:#0a6699;fill-opacity:1;fill-rule:nonzero;stroke:none"
         d="m 330.56579,131.08276 c 0,0 1.30875,-31.933751 25.71625,-31.621251 0,0 25.2,-3.495 29.72125,12.500001 0,0 8.06125,16.71 -3.93875,24.13625 -11.99875,7.42625 -15.15875,3.6575 -16.68625,6.35125 -1.52875,2.69375 -10.21,-9.2375 -10.21,-9.2375 l -24.6025,-2.12875 z" />
      <path
         inkscape:connector-curvature="0"
         id="path390"
         style="fill:#0a6699;fill-opacity:1;fill-rule:nonzero;stroke:none"
         d="m 390.52317,163.61888 c -0.1425,1.98875 -0.1425,4.405 3.97875,6.82 1.13625,0.71 2.415,0.99375 3.55125,0.99375 3.41,0 6.53625,-2.13 5.68375,-5.25625 -0.56875,-2.415 -2.27375,-3.2675 -3.97875,-3.2675 -1.27875,0 -2.415,0.5675 -2.98375,1.13625 -0.99375,1.42125 -0.28375,3.12625 0.71125,3.12625 0.99375,0 0.71,-0.8525 0.71,-0.8525 -0.56875,-0.995 0.1425,-1.42125 1.13625,-1.42125 0.8525,0 1.8475,0.42625 1.8475,1.5625 0.14125,1.56375 -1.8475,2.13125 -2.5575,2.27375 l -0.1425,0 c -4.54625,0 -4.40375,-4.2625 -3.55125,-5.2575" />
      <path
         inkscape:connector-curvature="0"
         id="path386"
         style="fill:#0a6699;fill-opacity:1;fill-rule:nonzero;stroke:none"
         d="m 304.94954,154.85605 c 0.6925,1.10125 -0.48625,2.5575 -1.19625,3.97875 0,0 -1.1375,2.84125 -3.41,2.9825 l -0.1425,0 c -2.13125,0 -1.8475,-2.415 -1.13625,-2.9825 0.14125,-0.1425 0.42625,-0.1425 0.5675,-0.1425 0.42625,0 0.71125,0.28375 1.1375,0.28375 0.14125,0 0.28375,0 0.42625,-0.14125 0.99375,-0.42625 0.8525,-1.27875 0.8525,-1.27875 -0.1425,-1.1375 -0.995,-1.56375 -2.13125,-1.56375 -0.71125,0 -1.56375,0.285 -2.13125,0.56875 -2.13125,1.13625 -2.7,4.2625 -1.27875,6.25125 0.8525,1.27875 2.2725,1.98875 3.9775,1.98875 2.98375,0 6.67875,-2.13125 8.09875,-6.3925 1.0625,-3.0825 -0.41875,-7.755 -4.265,-9.91375" />
    </g>
  </g>
</svg>
