<?xml version="1.0" encoding="UTF-8" standalone="no"?>
<!-- Generator: Adobe Illustrator 16.0.0, SVG Export Plug-In . SVG Version: 6.00 Build 0)  -->

<svg
   xmlns:dc="http://purl.org/dc/elements/1.1/"
   xmlns:cc="http://creativecommons.org/ns#"
   xmlns:rdf="http://www.w3.org/1999/02/22-rdf-syntax-ns#"
   xmlns:svg="http://www.w3.org/2000/svg"
   xmlns="http://www.w3.org/2000/svg"
   xmlns:sodipodi="http://sodipodi.sourceforge.net/DTD/sodipodi-0.dtd"
   xmlns:inkscape="http://www.inkscape.org/namespaces/inkscape"
   version="1.1"
   id="Layer_1"
   x="0px"
   y="0px"
   width="435.72101"
   height="200"
   viewBox="62.402 -18.766 435.721 200.00001"
   enable-background="new 62.402 -18.766 435.721 85.242"
   xml:space="preserve"
   inkscape:version="0.48.4 r9939"
   sodipodi:docname="catalogIcon-rocket.chat.svg"><metadata
     id="metadata53"><rdf:RDF><cc:Work
         rdf:about=""><dc:format>image/svg+xml</dc:format><dc:type
           rdf:resource="http://purl.org/dc/dcmitype/StillImage" /></cc:Work></rdf:RDF></metadata><defs
     id="defs51" /><sodipodi:namedview
     pagecolor="#ffffff"
     bordercolor="#666666"
     borderopacity="1"
     objecttolerance="10"
     gridtolerance="10"
     guidetolerance="10"
     inkscape:pageopacity="0"
     inkscape:pageshadow="2"
     inkscape:window-width="640"
     inkscape:window-height="480"
     id="namedview49"
     showgrid="false"
     inkscape:zoom="0.72293967"
     inkscape:cx="217.8605"
     inkscape:cy="42.620998"
     inkscape:window-x="0"
     inkscape:window-y="27"
     inkscape:window-maximized="0"
     inkscape:current-layer="Layer_1" /><g
     id="g3"
     transform="translate(-5.5329655,59.428355)"><path
       d="m 205.456,22.207 c 0,4.297 -1.603,7.119 -4.681,8.465 l 4.425,16.803 c 0.192,0.771 -0.192,1.154 -0.898,1.154 h -6.67 c -0.641,0 -0.961,-0.32 -1.09,-0.898 l -4.297,-16.289 h -4.425 v 16.162 c 0,0.642 -0.384,1.025 -1.026,1.025 h -6.67 c -0.641,0 -1.026,-0.385 -1.026,-1.025 V -1.651 c 0,-0.641 0.385,-1.026 1.026,-1.026 h 16.097 c 6.028,0 9.235,3.207 9.235,9.235 v 15.649 l 0,0 z m -11.287,0.769 c 1.667,0 2.565,-0.898 2.565,-2.565 V 8.354 c 0,-1.667 -0.898,-2.564 -2.565,-2.564 h -6.349 v 17.187 l 6.349,-0.001 0,0 z"
       id="path5"
       inkscape:connector-curvature="0"
       style="fill:#04436a" /><path
       d="m 210.583,6.558 c 0,-6.028 3.206,-9.235 9.235,-9.235 h 7.183 c 6.028,0 9.235,3.207 9.235,9.235 v 32.836 c 0,6.027 -3.207,9.234 -9.235,9.234 h -7.183 c -6.029,0 -9.235,-3.207 -9.235,-9.234 V 6.558 z m 14.814,33.797 c 1.667,0 2.565,-0.834 2.565,-2.565 V 8.162 c 0,-1.667 -0.898,-2.565 -2.565,-2.565 h -3.719 c -1.667,0 -2.565,0.898 -2.565,2.565 v 29.629 c 0,1.73 0.898,2.564 2.565,2.564 h 3.719 l 0,0 z"
       id="path7"
       inkscape:connector-curvature="0"
       style="fill:#04436a" /><path
       d="m 268.362,13.484 c 0,0.642 -0.385,1.026 -1.025,1.026 h -6.413 c -0.706,0 -1.026,-0.384 -1.026,-1.026 v -5.13 c 0,-1.667 -0.897,-2.564 -2.564,-2.564 h -3.335 c -1.731,0 -2.565,0.897 -2.565,2.564 V 37.6 c 0,1.731 0.897,2.563 2.565,2.563 h 3.335 c 1.667,0 2.564,-0.833 2.564,-2.563 v -5.132 c 0,-0.642 0.32,-1.026 1.026,-1.026 h 6.413 c 0.643,0 1.025,0.384 1.025,1.026 v 6.927 c 0,6.027 -3.271,9.234 -9.234,9.234 h -7.183 c -6.028,0 -9.299,-3.207 -9.299,-9.234 V 6.558 c 0,-6.028 3.271,-9.235 9.299,-9.235 h 7.183 c 5.964,0 9.234,3.207 9.234,9.235 v 6.926 z"
       id="path9"
       inkscape:connector-curvature="0"
       style="fill:#04436a" /><path
       d="m 295.422,48.629 c -0.771,0 -1.218,-0.32 -1.476,-0.961 l -8.079,-19.048 -2.374,4.554 v 14.172 c 0,0.834 -0.448,1.283 -1.282,1.283 h -6.157 c -0.834,0 -1.283,-0.449 -1.283,-1.283 v -48.74 c 0,-0.833 0.449,-1.283 1.283,-1.283 h 6.157 c 0.833,0 1.282,0.449 1.282,1.283 v 19.881 l 9.876,-20.202 c 0.321,-0.641 0.771,-0.962 1.476,-0.962 h 6.733 c 0.962,0 1.347,0.642 0.897,1.539 l -10.901,22.382 11.606,25.91 c 0.449,0.834 0.064,1.475 -0.961,1.475 h -6.797 z"
       id="path11"
       inkscape:connector-curvature="0"
       style="fill:#04436a" /><path
       d="m 333.45,4.763 c 0,0.641 -0.257,1.09 -1.026,1.09 h -16.033 v 12.826 h 12.249 c 0.643,0 1.026,0.385 1.026,1.09 v 6.349 c 0,0.706 -0.385,1.091 -1.026,1.091 h -12.249 v 12.954 h 16.033 c 0.771,0 1.026,0.321 1.026,1.026 v 6.414 c 0,0.641 -0.257,1.024 -1.026,1.024 h -23.6 c -0.578,0 -0.963,-0.385 -0.963,-1.024 V -1.651 c 0,-0.641 0.385,-1.026 0.963,-1.026 h 23.6 c 0.771,0 1.026,0.385 1.026,1.026 v 6.414 z"
       id="path13"
       inkscape:connector-curvature="0"
       style="fill:#04436a" /><path
       d="m 363.204,-2.677 c 0.705,0 1.026,0.385 1.026,1.026 v 6.414 c 0,0.641 -0.321,1.026 -1.026,1.026 h -7.439 v 41.814 c 0,0.705 -0.32,1.024 -1.025,1.024 h -6.67 c -0.643,0 -1.026,-0.319 -1.026,-1.024 V 5.789 h -7.438 c -0.643,0 -1.026,-0.385 -1.026,-1.026 v -6.414 c 0,-0.641 0.385,-1.026 1.026,-1.026 h 23.598 z"
       id="path15"
       inkscape:connector-curvature="0"
       style="fill:#04436a" /><path
       d="m 363.585,41.445 c 0,-0.834 0.449,-1.282 1.283,-1.282 h 5.836 c 0.834,0 1.282,0.448 1.282,1.282 v 5.899 c 0,0.835 -0.448,1.283 -1.282,1.283 h -5.836 c -0.834,0 -1.283,-0.448 -1.283,-1.283 v -5.899 z"
       id="path17"
       inkscape:connector-curvature="0"
       style="fill:#04436a" /><path
       d="m 404.114,13.484 c 0,0.642 -0.386,1.026 -1.026,1.026 h -6.413 c -0.705,0 -1.025,-0.384 -1.025,-1.026 v -5.13 c 0,-1.667 -0.897,-2.564 -2.564,-2.564 h -3.335 c -1.732,0 -2.565,0.897 -2.565,2.564 V 37.6 c 0,1.731 0.897,2.563 2.565,2.563 h 3.335 c 1.667,0 2.564,-0.833 2.564,-2.563 v -5.132 c 0,-0.642 0.32,-1.026 1.025,-1.026 h 6.413 c 0.643,0 1.026,0.384 1.026,1.026 v 6.927 c 0,6.027 -3.271,9.234 -9.235,9.234 h -7.183 c -6.028,0 -9.299,-3.207 -9.299,-9.234 V 6.558 c 0,-6.028 3.271,-9.235 9.299,-9.235 h 7.183 c 5.965,0 9.235,3.207 9.235,9.235 v 6.926 z"
       id="path19"
       inkscape:connector-curvature="0"
       style="fill:#04436a" /><path
       d="m 427.455,-1.651 c 0,-0.641 0.384,-1.026 1.025,-1.026 h 6.605 c 0.77,0 1.089,0.385 1.089,1.026 v 49.254 c 0,0.641 -0.32,1.024 -1.089,1.024 h -6.605 c -0.643,0 -1.025,-0.385 -1.025,-1.024 V 27.209 h -8.209 v 20.395 c 0,0.642 -0.385,1.025 -1.026,1.025 h -6.604 c -0.771,0 -1.091,-0.385 -1.091,-1.025 V -1.651 c 0,-0.641 0.32,-1.026 1.091,-1.026 h 6.604 c 0.643,0 1.026,0.385 1.026,1.026 v 20.394 h 8.209 V -1.651 l 0,0 z"
       id="path21"
       inkscape:connector-curvature="0"
       style="fill:#04436a" /><path
       d="m 465.419,48.629 c -0.577,0 -0.897,-0.32 -1.026,-0.898 l -1.795,-9.362 h -11.416 l -1.73,9.362 c -0.129,0.578 -0.449,0.898 -1.026,0.898 h -6.861 c -0.705,0 -1.026,-0.385 -0.835,-1.09 l 10.646,-49.318 c 0.129,-0.641 0.513,-0.898 1.09,-0.898 h 8.915 c 0.577,0 0.962,0.257 1.09,0.898 l 10.646,49.318 c 0.129,0.705 -0.128,1.09 -0.897,1.09 h -6.801 z m -8.53,-40.083 -4.104,22.382 h 8.209 L 456.889,8.546 z"
       id="path23"
       inkscape:connector-curvature="0"
       style="fill:#04436a" /><path
       d="m 497.097,-2.677 c 0.705,0 1.026,0.385 1.026,1.026 v 6.414 c 0,0.641 -0.321,1.026 -1.026,1.026 h -7.438 v 41.814 c 0,0.705 -0.321,1.024 -1.026,1.024 h -6.67 c -0.641,0 -1.025,-0.319 -1.025,-1.024 V 5.789 H 473.5 c -0.642,0 -1.025,-0.385 -1.025,-1.026 v -6.414 c 0,-0.641 0.385,-1.026 1.025,-1.026 h 23.597 z"
       id="path25"
       inkscape:connector-curvature="0"
       style="fill:#04436a" /></g><path
     d="m 169.50221,80.449873 c 0,-5.031 -1.505,-9.854 -4.474,-14.339 -2.666,-4.025 -6.401,-7.588 -11.1,-10.591 -9.074,-5.796 -21,-8.989 -33.579,-8.989 -4.202,0 -8.344,0.355 -12.361,1.059 -2.492,-2.333 -5.41,-4.432 -8.497003,-6.091002 -16.494,-7.994 -30.172,-0.188 -30.172,-0.188 0,0 12.717,10.447002 10.649,19.604002 -5.689,5.644 -8.773,12.45 -8.773,19.535 0,0.022 0.001,0.045 0.001,0.068 0,0.022 -0.001,0.044 -0.001,0.068 0,7.085 3.083,13.891 8.773,19.533997 2.068,9.158 -10.649,19.605 -10.649,19.605 0,0 13.678,7.805 30.172,-0.188 3.087003,-1.659 6.004003,-3.759 8.497003,-6.091 4.018,0.703 8.159,1.058 12.361,1.058 12.58,0 24.505,-3.191 33.579,-8.987 4.699,-3.003 8.434,-6.564997 11.1,-10.591997 2.969,-4.484 4.474,-9.309 4.474,-14.338 0,-0.023 -0.001,-0.045 -0.001,-0.068 0,-0.023 0.001,-0.047 0.001,-0.069 z"
     id="path27"
     inkscape:connector-curvature="0"
     style="fill:#c1272d" /><path
     d="m 120.34921,53.643873 c 23.293,0 42.177,12.062 42.177,26.941 0,14.878 -18.884,26.940997 -42.177,26.940997 -5.187,0 -10.154,-0.6 -14.743,-1.693 -4.664,5.61 -14.924003,13.411 -24.891003,10.89 3.242,-3.482 8.045,-9.366 7.017,-19.057997 -5.974,-4.648 -9.56,-10.597 -9.56,-17.08 -0.001,-14.88 18.883,-26.941 42.177003,-26.941"
     id="path29"
     inkscape:connector-curvature="0"
     style="fill:#ffffff" /><g
     id="g31"
     transform="translate(6.9162068,56.661873)"><g
       id="g33"><circle
         cx="113.433"
         cy="24.790001"
         r="5.6030002"
         id="circle35"
         sodipodi:cx="113.433"
         sodipodi:cy="24.790001"
         sodipodi:rx="5.6030002"
         sodipodi:ry="5.6030002"
         style="fill:#c1272d"
         d="m 119.036,24.790001 c 0,3.094451 -2.50855,5.603 -5.603,5.603 -3.09445,0 -5.603,-2.508549 -5.603,-5.603 0,-3.094452 2.50855,-5.603 5.603,-5.603 3.09445,0 5.603,2.508548 5.603,5.603 z" /></g><g
       id="g37"><circle
         cx="132.91299"
         cy="24.790001"
         r="5.6030002"
         id="circle39"
         sodipodi:cx="132.91299"
         sodipodi:cy="24.790001"
         sodipodi:rx="5.6030002"
         sodipodi:ry="5.6030002"
         style="fill:#c1272d"
         d="m 138.51599,24.790001 c 0,3.094451 -2.50854,5.603 -5.603,5.603 -3.09445,0 -5.603,-2.508549 -5.603,-5.603 0,-3.094452 2.50855,-5.603 5.603,-5.603 3.09446,0 5.603,2.508548 5.603,5.603 z" /></g><g
       id="g41"><circle
         cx="93.952003"
         cy="24.790001"
         r="5.6020002"
         id="circle43"
         sodipodi:cx="93.952003"
         sodipodi:cy="24.790001"
         sodipodi:rx="5.6020002"
         sodipodi:ry="5.6020002"
         style="fill:#c1272d"
         d="m 99.554004,24.790001 c 0,3.093899 -2.508101,5.602 -5.602001,5.602 -3.093899,0 -5.602,-2.508101 -5.602,-5.602 0,-3.093899 2.508101,-5.602 5.602,-5.602 3.0939,0 5.602001,2.508101 5.602001,5.602 z" /></g></g><g
     id="g45"
     transform="translate(6.9162068,56.661873)"><path
       d="m 113.433,47.319 c -5.187,0 -10.154,-0.52 -14.743,-1.468 -4.118,4.294 -12.6,10.066 -21.39,9.854 -1.158,1.755 -2.417,3.19 -3.501,4.355 9.967,2.521 20.227,-5.279 24.891,-10.89 4.589,1.094 9.557,1.693 14.743,1.693 23.106,0 41.87,-11.871 42.169,-26.585 -0.299,12.754 -19.063,23.041 -42.169,23.041 z"
       id="path47"
       inkscape:connector-curvature="0"
       style="fill:#cccccc" /></g></svg>