<?xml version="1.0" encoding="utf-8"?>
<!-- Generator: Adobe Illustrator 19.1.0, SVG Export Plug-In . SVG Version: 6.00 Build 0)  -->
<svg version="1.1" id="Layer_1" xmlns="http://www.w3.org/2000/svg" xmlns:xlink="http://www.w3.org/1999/xlink" x="0px" y="0px"
	 viewBox="0 0 343 98.7" style="enable-background:new 0 0 343 98.7;" xml:space="preserve">
<style type="text/css">
	.st0{fill:#50BE9C;}
	.st1{fill:#8FC640;}
	.st2{fill:#6CC28A;}
	.st3{fill:#4276B9;}
	.st4{fill:#42BAEB;}
	.st5{fill:#222425;}
	.st6{fill:#5A833B;}
	.st7{fill:url(#SVGID_1_);}
	.st8{fill:url(#SVGID_2_);}
	.st9{fill:url(#SVGID_3_);}
	.st10{fill:url(#SVGID_4_);}
	.st11{fill:url(#SVGID_5_);}
	.st12{fill:url(#SVGID_6_);}
	.st13{fill:url(#SVGID_7_);}
	.st14{fill:url(#SVGID_8_);}
	.st15{fill:url(#SVGID_9_);}
	.st16{fill:#5F8C3D;}
	.st17{fill:#37573A;}
	.st18{fill:#D5D6D7;}
	.st19{fill:#848588;}
	.st20{fill:url(#SVGID_10_);}
	.st21{fill:url(#SVGID_11_);}
	.st22{fill:url(#SVGID_12_);}
	.st23{fill:url(#SVGID_13_);}
	.st24{fill:url(#SVGID_14_);}
	.st25{fill:url(#SVGID_15_);}
	.st26{fill:url(#SVGID_16_);}
	.st27{fill:url(#SVGID_17_);}
	.st28{fill:url(#SVGID_18_);}
	.st29{fill:url(#SVGID_19_);}
	.st30{fill:url(#SVGID_20_);}
	.st31{fill:url(#SVGID_21_);}
	.st32{fill:url(#SVGID_22_);}
	.st33{fill:url(#SVGID_23_);}
	.st34{fill:#E6F1FA;}
	.st35{fill:none;stroke:url(#SVGID_24_);stroke-width:3;stroke-miterlimit:10;}
	.st36{fill:#CEDCE9;}
	.st37{fill:#1A4866;}
	.st38{fill:#5DC3AF;}
	.st39{fill:#65C5B2;}
</style>
<g id="g110">
	<g id="g112">
		<g id="g118" transform="translate(180.5576,59.5039)">
			<path id="path120" class="st37" d="M0.7,15.8c-1.6,0-3.1-0.2-4.5-0.7c-1.4-0.5-2.6-1.1-3.6-2
				c-1-0.9-1.8-2-2.4-3.3c-0.6-1.3-0.8-2.8-0.8-4.6v-21.4H-7V5.1c0,1.1,0.2,2.2,0.6,3.1C-6,9-5.5,9.8-4.8,10.4
				c0.7,0.6,1.5,1.1,2.4,1.4c0.9,0.3,2,0.5,3.1,0.5c1.1,0,2.1-0.2,3.1-0.5c0.9-0.3,1.7-0.8,2.4-1.4C6.8,9.8,7.4,9,7.8,8.1
				c0.4-0.9,0.6-1.9,0.6-3.1v-21.3h3.8V5.2c0,1.7-0.3,3.2-0.9,4.6c-0.6,1.3-1.4,2.4-2.4,3.3c-1,0.9-2.2,1.5-3.6,2
				C3.8,15.6,2.3,15.8,0.7,15.8"/>
		</g>
		<g id="g122" transform="translate(200.9756,73.959)">
			<path id="path124" class="st37" d="M5.8-16.7h3.9c1.3,0,2.4-0.2,3.3-0.5
				c0.9-0.3,1.5-0.8,2.1-1.3c0.5-0.5,0.9-1.1,1.1-1.7c0.2-0.6,0.3-1.2,0.3-1.8c0-0.6-0.2-1.3-0.5-1.9c-0.3-0.6-0.8-1.2-1.4-1.6
				c-0.6-0.5-1.3-0.8-2.1-1.1c-0.8-0.3-1.7-0.4-2.6-0.4h-4V-16.7z M2,1v-31.6h7.5c1,0,2.2,0.2,3.4,0.5c1.2,0.3,2.4,0.8,3.5,1.5
				c1.1,0.7,2,1.6,2.7,2.7c0.7,1.1,1.1,2.4,1.1,3.9c0,2.3-0.6,4.2-1.7,5.7c-1.1,1.5-2.8,2.5-4.9,3L20.3,1h-4.1L9.6-13.1H8.8H5.8V1
				C5.8,1,2,1,2,1z"/>
		</g>
		<g id="g126" transform="translate(223.4951,72.4102)">
			<path id="path128" class="st37" d="M11.4-13.3c0,1.8,0.3,3.4,1,4.9c0.7,1.5,1.5,2.8,2.7,4
				c1.1,1.1,2.5,2,3.9,2.7c1.5,0.7,3.1,1,4.8,1c1.7,0,3.3-0.3,4.8-1c1.5-0.7,2.8-1.6,4-2.7c1.1-1.1,2-2.5,2.7-4c0.6-1.5,1-3.2,1-4.9
				c0-1.7-0.3-3.4-1-4.9c-0.6-1.5-1.5-2.9-2.7-4c-1.1-1.1-2.5-2-4-2.7c-1.5-0.7-3.1-1-4.8-1c-1.7,0-3.3,0.3-4.8,1
				c-1.5,0.7-2.8,1.6-3.9,2.7c-1.1,1.2-2,2.5-2.7,4C11.7-16.6,11.4-15,11.4-13.3 M7.6-13.3c0-2.2,0.4-4.3,1.3-6.3
				c0.8-2,2-3.7,3.4-5.2c1.5-1.5,3.2-2.6,5.1-3.5c2-0.9,4.1-1.3,6.3-1.3c2.2,0,4.3,0.4,6.3,1.3c2,0.9,3.7,2,5.2,3.5
				c1.5,1.5,2.6,3.2,3.5,5.2c0.9,2,1.3,4.1,1.3,6.3c0,2.2-0.4,4.3-1.3,6.3c-0.9,2-2,3.7-3.5,5.1C33.7-0.4,32,0.8,30,1.6
				c-2,0.9-4.1,1.3-6.3,1.3c-2.2,0-4.3-0.4-6.3-1.3c-2-0.8-3.7-2-5.1-3.4C10.9-3.3,9.7-5,8.9-7C8.1-8.9,7.6-11,7.6-13.3"/>
		</g>
		<g id="g130" transform="translate(257.3213,73.959)">
			<path id="path132" class="st37" d="M19.9-16.7h3.9c1.3,0,2.4-0.2,3.3-0.5
				c0.9-0.3,1.5-0.8,2-1.3c0.5-0.5,0.9-1.1,1.1-1.7c0.2-0.6,0.3-1.2,0.3-1.8c0-0.6-0.2-1.3-0.5-1.9c-0.3-0.6-0.8-1.2-1.4-1.6
				c-0.6-0.5-1.3-0.8-2.1-1.1c-0.8-0.3-1.7-0.4-2.6-0.4h-4V-16.7z M16.1,1v-31.6h7.4c1,0,2.2,0.2,3.4,0.5c1.2,0.3,2.4,0.8,3.5,1.5
				c1.1,0.7,2,1.6,2.7,2.7c0.7,1.1,1.1,2.4,1.1,3.9c0,2.3-0.6,4.2-1.7,5.7c-1.1,1.5-2.8,2.5-5,3L34.4,1h-4.1l-6.6-14.1h-0.8h-3.1V1
				C19.9,1,16.1,1,16.1,1z"/>
		</g>
		<g id="g134" transform="translate(157.3545,73.0156)">
			<path id="path136" class="st37" d="M-5.1-14.6c-2.3-5.5-4.6-11-7-16.5c-0.6,1.5-1.3,3-1.9,4.4
				l4.5,10.6l2.4,5.5h0c0.9,2.1,1.8,4.2,2.6,6.3c0.9,2.1,1.8,4.2,2.6,6.3h3.8C-0.5-3.6-2.8-9.2-5.1-14.6"/>
		</g>
		<g id="g138" transform="translate(147.792,69.8066)">
			<path id="path140" class="st37" d="M-7.5-7.4l2.2-5.1h0c0.3-0.7,0.6-1.4,0.9-2.1l-1.9-4.5
				c-1.1,2.5-2.2,5.1-3.2,7.7c-2.3,5.5-4.6,11-7,16.5h3.7C-12,3-11.1,1-10.2-1.1C-9.3-3.2-8.4-5.3-7.5-7.4L-7.5-7.4z"/>
		</g>
		<g id="g142" transform="translate(293.6025,73.0156)">
			<path id="path144" class="st37" d="M28.9-14.6c-2.3-5.5-4.7-11-7-16.5c-0.6,1.5-1.3,3-1.9,4.4
				l4.5,10.6l2.4,5.5h0c0.9,2.1,1.8,4.2,2.6,6.3c0.9,2.1,1.8,4.2,2.6,6.3h3.7C33.6-3.6,31.2-9.2,28.9-14.6"/>
		</g>
		<g id="g146" transform="translate(284.0322,69.8066)">
			<path id="path148" class="st37" d="M26.5-7.4l2.2-5.1h0c0.3-0.7,0.6-1.4,0.9-2.1l-1.9-4.5
				c-1.1,2.5-2.2,5.1-3.3,7.7c-2.3,5.5-4.6,11-7,16.5h3.8C22.1,3,23,1,23.9-1.1C24.8-3.2,25.7-5.3,26.5-7.4L26.5-7.4z"/>
		</g>
	</g>
</g>
<g>
	<g id="g14" transform="translate(89.4268,98.3438)">
		<path id="path16" class="st39" d="M-22.1-71.6h-22.9l11.5,19.8L-22.1-71.6z"/>
	</g>
	<g id="g18" transform="translate(69.2861,97.3203)">
		<path id="path20" class="st39" d="M-27.2-69.3l-11.5,19.8h22.9L-27.2-69.3z"/>
	</g>
	<g id="g22" transform="translate(78.4736,79.4082)">
		<path id="path24" class="st39" d="M-24.9-29h-22.9l11.5,19.8L-24.9-29z"/>
	</g>
	<g id="g26" transform="translate(58.3584,78.3828)">
		<path id="path28" class="st39" d="M-29.9-26.7L-41.4-6.9h23L-29.9-26.7z"/>
	</g>
	<g id="g30" transform="translate(91.1904,97.3203)">
		<path id="path32" class="st39" d="M-21.7-69.3l-11.4,19.8h22.9L-21.7-69.3z"/>
	</g>
	<g id="g34" transform="translate(100.3838,79.4082)">
		<path id="path36" class="st39" d="M-19.4-29h-22.9l11.4,19.8L-19.4-29z"/>
	</g>
	<g id="g38" transform="translate(80.2666,116.2793)">
		<path id="path40" class="st39" d="M-24.4-112l-11.5,19.8H-13L-24.4-112z"/>
	</g>
	<g id="g42" transform="translate(67.5205,60.4707)">
		<path id="path44" class="st39" d="M-27.6,13.6h-23l11.5,20L-27.6,13.6z"/>
	</g>
	<g id="g46" transform="translate(102.1475,78.3828)">
		<path id="path48" class="st39" d="M-18.9-26.7L-30.4-6.9h23L-18.9-26.7z"/>
	</g>
	<g id="g50" transform="translate(111.3369,60.4707)">
		<path id="path52" class="st39" d="M-16.6,13.6h-23l11.5,20L-16.6,13.6z"/>
	</g>
	<g id="g54" transform="translate(80.2666,78.3828)">
		<path id="path56" class="st37" d="M-24.4-26.7L-35.9-6.9H-13L-24.4-26.7z"/>
	</g>
	<g id="g58" transform="translate(67.5205,98.3438)">
		<path id="path60" class="st37" d="M-27.6-71.6h-23l11.5,19.8L-27.6-71.6z"/>
	</g>
	<g id="g62" transform="translate(38.2119,81.4688)">
		<path id="path64" class="st37" d="M-34.9-33.6H-12l-11.5-19.8"/>
	</g>
	<g id="g66" transform="translate(47.374,63.5449)">
		<path id="path68" class="st37" d="M-32.6,6.7l11.5-19.8h-22.9"/>
	</g>
	<g id="g70" transform="translate(113.0986,97.3203)">
		<path id="path72" class="st37" d="M-16.2-69.3l-11.4,19.8h22.9L-16.2-69.3z"/>
	</g>
	<g id="g74" transform="translate(122.2881,79.4082)">
		<path id="path76" class="st37" d="M-13.9-29h-22.9l11.4,19.8L-13.9-29z"/>
	</g>
	<g id="g78" transform="translate(100.3838,117.3066)">
		<path id="path80" class="st37" d="M-19.4-114.3h-22.9l11.4,19.8L-19.4-114.3z"/>
	</g>
	<g id="g82" transform="translate(89.4268,60.4707)">
		<path id="path84" class="st37" d="M-22.1,13.6h-23l11.5,20L-22.1,13.6z"/>
	</g>
	<g id="g86" transform="translate(91.1904,59.4492)">
		<path id="path88" class="st37" d="M-21.7,15.9l-11.4,20h22.9L-21.7,15.9z"/>
	</g>
	<g id="g90" transform="translate(78.4736,117.3066)">
		<path id="path92" class="st37" d="M-24.9-114.3h-22.9l11.5,19.8L-24.9-114.3z"/>
	</g>
	<g id="g94" transform="translate(58.3584,116.2793)">
		<path id="path96" class="st37" d="M-29.9-112l-11.5,19.8h23L-29.9-112z"/>
	</g>
	<g id="g98" transform="translate(102.1475,116.2793)">
		<path id="path100" class="st37" d="M-18.9-112l-11.5,19.8h23L-18.9-112z"/>
	</g>
	<g id="g102" transform="translate(111.3369,98.3438)">
		<path id="path104" class="st37" d="M-16.6-71.6h-23l11.5,19.8L-16.6-71.6z"/>
	</g>
	<g id="g106" transform="translate(69.2861,59.4492)">
		<path id="path108" class="st37" d="M-27.2,15.9l-11.5,20h22.9L-27.2,15.9z"/>
	</g>
	<g>
		<path class="st37" d="M141.3,33.9l-1.3-3.7h-5.1l-1.3,3.7h-2.3l5-13.4h2.4l5,13.4H141.3z M139.4,28.3l-1.3-3.6
			c-0.1-0.2-0.2-0.6-0.4-1.2c-0.2-0.5-0.3-0.9-0.3-1.2c-0.2,0.8-0.4,1.6-0.7,2.5l-1.2,3.5H139.4z"/>
	</g>
	<g>
		<path class="st37" d="M149.3,34.1c-1.3,0-2.3-0.5-3-1.4h-0.1c0.1,0.9,0.1,1.4,0.1,1.6v4.1h-2.2V23.8h1.7c0,0.2,0.1,0.6,0.3,1.4
			h0.1c0.7-1,1.7-1.5,3-1.5c1.3,0,2.2,0.5,3,1.4s1.1,2.2,1.1,3.9c0,1.7-0.4,2.9-1.1,3.9C151.6,33.6,150.6,34.1,149.3,34.1z
			 M148.8,25.3c-0.9,0-1.5,0.2-1.9,0.8c-0.4,0.5-0.6,1.3-0.6,2.4v0.3c0,1.2,0.2,2.1,0.6,2.7c0.4,0.6,1,0.8,1.9,0.8
			c0.7,0,1.3-0.3,1.7-0.9s0.6-1.5,0.6-2.6c0-1.1-0.2-2-0.6-2.6C150.1,25.6,149.6,25.3,148.8,25.3z"/>
	</g>
	<g>
		<path class="st37" d="M161.2,33.9l-0.4-1.4h-0.1c-0.5,0.6-1,1-1.5,1.3c-0.5,0.2-1.1,0.3-1.9,0.3c-1,0-1.8-0.3-2.3-0.8
			s-0.8-1.3-0.8-2.3c0-1,0.4-1.8,1.2-2.4c0.8-0.5,2-0.8,3.5-0.9l1.7-0.1v-0.5c0-0.6-0.2-1.1-0.5-1.5c-0.3-0.3-0.8-0.5-1.4-0.5
			c-0.5,0-1,0.1-1.5,0.2c-0.5,0.2-0.9,0.3-1.4,0.5l-0.7-1.5c0.5-0.3,1.2-0.5,1.8-0.7s1.3-0.2,1.8-0.2c1.3,0,2.3,0.3,2.9,0.8
			c0.7,0.6,1,1.4,1,2.6v6.8H161.2z M158,32.4c0.8,0,1.4-0.2,1.9-0.7c0.5-0.4,0.7-1,0.7-1.8v-0.9l-1.3,0.1c-1,0-1.8,0.2-2.2,0.5
			s-0.7,0.8-0.7,1.4c0,0.5,0.1,0.8,0.4,1C157,32.3,157.4,32.4,158,32.4z"/>
	</g>
	<g>
		<path class="st37" d="M168,34.1c-1.5,0-2.7-0.4-3.5-1.3s-1.2-2.2-1.2-3.8c0-1.7,0.4-3,1.2-3.9s2-1.4,3.6-1.4c1.1,0,2,0.2,2.9,0.6
			l-0.7,1.7c-0.9-0.4-1.7-0.5-2.3-0.5c-1.8,0-2.6,1.2-2.6,3.5c0,1.1,0.2,2,0.7,2.6c0.4,0.6,1.1,0.9,1.9,0.9c1,0,1.9-0.2,2.7-0.7v1.9
			c-0.4,0.2-0.8,0.4-1.2,0.5S168.6,34.1,168,34.1z"/>
	</g>
	<g>
		<path class="st37" d="M181.2,33.9H179v-6.2c0-0.8-0.2-1.4-0.5-1.7c-0.3-0.4-0.8-0.6-1.5-0.6c-0.9,0-1.6,0.3-2,0.8
			c-0.4,0.5-0.6,1.4-0.6,2.7v5h-2.2V19.6h2.2v3.6c0,0.6,0,1.2-0.1,1.9h0.1c0.3-0.5,0.7-0.9,1.2-1.1c0.5-0.3,1.1-0.4,1.8-0.4
			c2.5,0,3.7,1.2,3.7,3.7V33.9z"/>
	</g>
	<g>
		<path class="st37" d="M187.1,34.1c-1.6,0-2.8-0.5-3.7-1.4c-0.9-0.9-1.3-2.2-1.3-3.8c0-1.7,0.4-3,1.2-3.9c0.8-0.9,2-1.4,3.4-1.4
			c1.3,0,2.4,0.4,3.2,1.2c0.8,0.8,1.2,1.9,1.2,3.4v1.2h-6.7c0,1,0.3,1.7,0.8,2.3c0.5,0.5,1.2,0.8,2.1,0.8c0.6,0,1.2-0.1,1.7-0.2
			c0.5-0.1,1.1-0.3,1.7-0.6v1.7c-0.5,0.2-1.1,0.4-1.6,0.5C188.4,34,187.8,34.1,187.1,34.1z M186.7,25.2c-0.7,0-1.2,0.2-1.6,0.6
			c-0.4,0.4-0.7,1.1-0.7,1.9h4.6c0-0.8-0.2-1.5-0.6-1.9S187.4,25.2,186.7,25.2z"/>
	</g>
</g>
</svg>
