<?xml version="1.0" encoding="utf-8"?>
<!-- Generator: Adobe Illustrator 19.2.1, SVG Export Plug-In . SVG Version: 6.00 Build 0)  -->
<svg version="1.1" id="f5logo" xmlns="http://www.w3.org/2000/svg" xmlns:xlink="http://www.w3.org/1999/xlink" x="0px" y="0px"
	 viewBox="0 0 142.7 142.7" style="enable-background:new 0 0 142.7 142.7;" xml:space="preserve">
<style type="text/css">
	.st0{fill:#E21D38;}
	.st1{fill:#FFFFFF;}
</style>
<circle id="bg_2_" class="st0" cx="71.3" cy="71.3" r="71.3"/>
<path class="st1" d="M69.7,78.4c34.8,2.9,48.5,12.4,47.7,25.7c-0.8,7.1-7.5,13.7-16.2,14.5c-10.4,0.8-14.9-3.7-17.8-7.9
	c-2.5-4.1-5.4-8.3-8.3-12.9c-0.8-1.2-2.1-0.4-2.9,0.4c-2.1,2.1-4.1,4.1-6.2,6.2c-1.2,1.2-0.8,2.1-0.8,3.3c2.1,4.6,3.7,9.1,5.8,13.3
	c3.3,2.1,17.8,4.6,28.2,3.7c7.5-0.8,16.2-3.7,24.1-9.1c7.5-5.8,12.9-13.3,13.7-26.1c0.4-7.9-0.8-15.8-7.9-23.2
	c-6.6-7.5-18.2-13.3-41.5-14.9c1.2-3.7,2.1-7.5,3.7-10.8c14.1,0.8,26.5,1.7,37.3,2.9c0.8-4.1,1.2-7.9,2.1-12l-2.9-3.3
	c-5.4-0.8-10.8-2.1-16.2-2.5c-7.5-0.8-14.9-1.7-23.2-2.1C82.5,38.2,76.3,57.6,69.7,78.4 M60.1,18.2c-2.5,0-6.2,0.8-12,2.1
	c-12.4,3.7-27.8,12-29.4,26.5c-0.4,2.1-0.4,5-0.8,7.1c-3.7,0.4-6.6,0.8-10,0.8c-0.4,2.9-0.4,5.4-0.8,8.3c3.3-0.4,6.2-0.4,10-0.8
	c-0.8,14.9,0,30.3,1.2,44.4c0.4,2.1,0.4,4.1,0.4,5.4c-0.4,1.2-2.5,2.1-5.8,2.1l4.1,5c12,2.1,27.4,3.7,44,4.1c0-1.7,0-3.3,0-5
	c-9.5-0.8-14.1-2.1-14.9-3.7c-0.8-1.7-0.8-3.7-0.8-6.2c-0.8-14.9-0.8-30.7-0.8-47.3c5.4,0,10.8,0,16.2-0.4c2.9-1.2,5.4-2.5,7.9-3.7
	c0-2.1,0-3.7,0-5.4c-8.3,0-16.2,0.4-24.5,0.4c0.4-6.6,0.8-13.3,0.8-19.1c0.4-4.1,3.3-7.1,5.8-7.1c4.6-0.4,8.7,1.7,12.9,3.7
	c2.1,0.8,4.6,2.1,6.6,3.3c0.8,0.4,2.1,0.8,3.3-0.4c1.2-1.7,2.5-3.3,3.7-4.6c0.8-0.8,0.4-1.7,0-2.1c-2.9-2.1-5.4-4.1-8.3-6.2
	c-1.7-1.2-4.6-1.2-7.1-1.2C62.2,18.2,61.4,18.2,60.1,18.2"/>
</svg>
